<?xml version="1.0" encoding="UTF-8" standalone="no"?>
<!-- Created with Inkscape (http://www.inkscape.org/) -->

<svg
   width="198.43739mm"
   height="66.389587mm"
   viewBox="0 0 198.43739 66.389586"
   version="1.1"
   id="svg2916"
   inkscape:version="1.1 (c68e22c387, 2021-05-23)"
   sodipodi:docname="noamlogo.svg"
   xmlns:inkscape="http://www.inkscape.org/namespaces/inkscape"
   xmlns:sodipodi="http://sodipodi.sourceforge.net/DTD/sodipodi-0.dtd"
   xmlns="http://www.w3.org/2000/svg"
   xmlns:svg="http://www.w3.org/2000/svg">
  <sodipodi:namedview
     id="namedview2918"
     pagecolor="#ffffff"
     bordercolor="#666666"
     borderopacity="1.0"
     inkscape:pageshadow="2"
     inkscape:pageopacity="0.0"
     inkscape:pagecheckerboard="0"
     inkscape:document-units="mm"
     showgrid="false"
     inkscape:zoom="0.48640572"
     inkscape:cx="425.57065"
     inkscape:cy="233.34429"
     inkscape:window-width="1366"
     inkscape:window-height="705"
     inkscape:window-x="-8"
     inkscape:window-y="-8"
     inkscape:window-maximized="1"
     inkscape:current-layer="layer1" />
  <defs
     id="defs2913" />
  <g
     inkscape:label="Layer 1"
     inkscape:groupmode="layer"
     id="layer1"
     transform="translate(7.5680881,-86.934491)">
    <path
       d="m 66.049028,139.97595 q 0,2.36161 3.38833,2.36161 3.422546,0 3.422546,-2.12187 0,-1.12959 -1.163689,-1.84828 -1.163635,-0.71851 -2.840701,-1.19782 -1.642815,-0.47912 -3.319864,-1.0954 -1.642833,-0.65029 -2.806504,-1.9849 -1.163653,-1.36898 -1.163653,-3.38844 0,-8.59061 11.054848,-8.59061 4.038607,0 6.092117,1.54033 2.087761,1.50596 2.087761,4.20972 0,0.99245 -0.273797,1.91651 -0.239599,0.88985 -0.513377,1.26639 l -0.273815,0.41091 h -6.057918 q 0.752958,-0.78745 0.752958,-1.98526 0,-2.22482 -2.90915,-2.22482 -3.662128,0 -3.662128,2.32759 0,1.16362 1.163654,1.84793 1.163671,0.68467 2.806486,1.0954 1.677066,0.37636 3.354097,0.95825 1.677066,0.5819 2.840737,1.95071 1.163653,1.33496 1.163653,3.49121 0,4.34651 -2.601138,6.46856 -2.601139,2.08785 -8.008764,2.08785 -5.407624,0 -7.392703,-1.91651 -1.471719,-1.43755 -1.471719,-3.97033 0,-0.95843 0.205365,-2.08785 l 0.102593,-0.54753 h 6.160583 l -0.06857,0.41073 q -0.06857,0.34216 -0.06857,0.61592 z"
       style="font-size:22.0376px;line-height:1.25;font-family:'Fugaz One';-inkscape-font-specification:'Fugaz One';letter-spacing:0px;word-spacing:0px;fill:#000000;stroke-width:0.855636"
       id="path13366-1-9-3" />
    <path
       d="m 95.003763,122.11024 q 8.248347,0 8.248347,6.7425 0,1.12942 -0.23957,2.43019 l -1.19788,6.84491 q -0.82145,4.75742 -3.559465,7.05046 -2.738037,2.29322 -7.700733,2.29322 -4.962714,0 -6.913559,-2.29322 -1.334803,-1.57435 -1.334803,-4.34651 0,-1.23219 0.273814,-2.70395 l 1.197887,-6.84491 q 1.608617,-9.17269 11.225962,-9.17269 z m -3.525229,20.05616 q 1.711282,0 2.738055,-0.88968 1.026773,-0.88986 1.437468,-3.28585 l 1.163671,-6.57133 q 0.102593,-0.68431 0.102593,-1.23201 0,-2.77234 -2.806486,-2.77234 -3.525229,0.068 -4.209738,4.00435 l -1.163654,6.57133 q -0.136969,0.85566 -0.136969,1.7799 0,2.39563 2.874935,2.39563 z"
       style="font-size:22.0376px;line-height:1.25;font-family:'Fugaz One';-inkscape-font-specification:'Fugaz One';letter-spacing:0px;word-spacing:0px;fill:#000000;stroke-width:0.855636"
       id="path13368-3-8-1" />
    <path
       d="m 113.07482,147.47152 q -4.89425,0 -6.77665,-2.12205 -1.30058,-1.50578 -1.30058,-4.2099 0,-1.16362 0.2396,-2.49822 l 1.40325,-7.8721 q 1.54013,-8.65901 11.12328,-8.65901 3.97017,0 6.02368,1.71132 2.05353,1.67712 2.05353,4.62063 0,1.36899 -0.41069,2.73797 -0.37648,1.33478 -0.75296,1.98508 l -0.3765,0.68449 h -6.0579 q 1.12944,-1.30059 1.12944,-3.6964 0,-1.26639 -0.65028,-1.98508 -0.65027,-0.75306 -1.91663,-0.75306 -3.45678,0 -4.10707,3.83336 l -1.19789,6.91349 q -0.17117,0.89004 -0.17117,1.74552 0,2.25884 2.70383,2.25884 3.25141,0 3.9017,-3.66202 h 6.16059 l -0.17117,0.99245 q -1.36904,7.97469 -10.8495,7.97469 z"
       style="font-size:22.0376px;line-height:1.25;font-family:'Fugaz One';-inkscape-font-specification:'Fugaz One';letter-spacing:0px;word-spacing:0px;fill:#000000;stroke-width:0.855636"
       id="path13370-2-0-6" />
    <path
       d="m 135.21871,147.47152 q -4.89425,0 -6.77666,-2.12205 -1.30055,-1.50578 -1.30055,-4.2099 0,-1.16362 0.23956,-2.49822 l 1.40325,-7.8721 q 1.54015,-8.65901 11.12328,-8.65901 3.97016,0 6.02371,1.71132 2.05351,1.67712 2.05351,4.62063 0,1.36899 -0.4107,2.73797 -0.37648,1.33478 -0.75294,1.98508 l -0.3765,0.68449 h -6.05791 q 1.12943,-1.30059 1.12943,-3.6964 0,-1.26639 -0.65027,-1.98508 -0.6503,-0.75306 -1.91663,-0.75306 -3.45678,0 -4.10706,3.83336 l -1.19788,6.91349 q -0.17117,0.89004 -0.17117,1.74552 0,2.25884 2.7038,2.25884 3.25143,0 3.90171,-3.66202 h 6.1606 l -0.17117,0.99245 q -1.36902,7.97469 -10.84948,7.97469 z"
       style="font-size:22.0376px;line-height:1.25;font-family:'Fugaz One';-inkscape-font-specification:'Fugaz One';letter-spacing:0px;word-spacing:0px;fill:#000000;stroke-width:0.855636"
       id="path13372-8-3-2" />
    <path
       d="m 165.88473,146.99221 h -17.1812 l 4.34664,-24.64222 h 17.18121 l -0.9583,5.33914 h -11.02064 l -0.78719,4.62045 h 9.10401 l -0.95833,5.33932 h -9.10398 l -0.68451,4.00435 h 11.02061 z"
       style="font-size:22.0376px;line-height:1.25;font-family:'Fugaz One';-inkscape-font-specification:'Fugaz One';letter-spacing:0px;word-spacing:0px;fill:#000000;stroke-width:0.855636"
       id="path13374-0-0-0" />
    <path
       d="m 184.09266,122.34999 q 3.90171,0 5.54454,1.71114 1.23211,1.30076 1.23211,3.28566 0,0.68467 -0.13697,1.43756 l -0.47916,2.66975 q -0.4107,2.22446 -1.43747,3.59344 -0.99254,1.36916 -2.22468,1.95106 l 3.11455,9.99361 h -6.91356 l -2.87495,-9.2067 h -2.12198 l -1.40325,9.2067 h -6.57128 l 4.34664,-24.64222 z m -2.15621,5.33914 h -2.5669 l -0.88988,5.95541 h 2.39581 q 1.81395,0 2.60112,-0.85584 0.7872,-0.88985 0.7872,-2.32723 0,-2.77234 -2.32735,-2.77234 z"
       style="font-size:22.0376px;line-height:1.25;font-family:'Fugaz One';-inkscape-font-specification:'Fugaz One';letter-spacing:0px;word-spacing:0px;fill:#000000;stroke-width:0.855636"
       id="path13376-5-5-5" />
    <path
       d="m 82.470374,93.020706 -4.203651,24.020754 h -6.038581 l -4.203633,-13.14481 -2.268651,13.14481 h -6.038581 l 4.237025,-24.020754 h 6.205362 l 4.136956,12.277334 2.168529,-12.277334 z"
       style="font-size:21.4818px;line-height:1.25;font-family:'Fugaz One';-inkscape-font-specification:'Fugaz One';letter-spacing:0px;word-spacing:0px;fill:#000000;stroke-width:0.834059"
       id="path13379-2-1-3" />
    <path
       d="m 95.948694,92.787052 q 8.040346,0 8.040346,6.572405 0,1.100953 -0.23355,2.368773 l -1.16768,6.67249 q -0.80069,4.63728 -3.469687,6.87249 -2.668979,2.2352 -7.506522,2.2352 -4.837526,0 -6.739187,-2.2352 -1.301124,-1.5346 -1.301124,-4.23694 0,-1.20103 0.266885,-2.63555 l 1.1677,-6.67249 q 1.568027,-8.941178 10.942819,-8.941178 z M 92.512397,112.3374 q 1.668114,0 2.668979,-0.86748 1.000865,-0.86729 1.401211,-3.20276 l 1.134326,-6.40554 q 0.09991,-0.6673 0.09991,-1.20104 0,-2.702333 -2.735709,-2.702333 -3.436315,0.06625 -4.103564,3.903373 l -1.134326,6.40554 q -0.133389,0.83417 -0.133389,1.73477 0,2.33547 2.802422,2.33547 z"
       style="font-size:21.4818px;line-height:1.25;font-family:'Fugaz One';-inkscape-font-specification:'Fugaz One';letter-spacing:0px;word-spacing:0px;fill:#000000;stroke-width:0.834059"
       id="path13381-0-4-1" />
    <path
       d="m 116.73338,117.04146 0.20017,-5.2378 h -5.5715 l -1.63476,5.2378 h -6.3722 l 8.5741,-24.020754 h 11.00957 l 0.13339,24.020754 z m -1.36787,-18.182435 -2.63562,8.474045 h 4.37048 l 0.36697,-8.474045 z"
       style="font-size:21.4818px;line-height:1.25;font-family:'Fugaz One';-inkscape-font-specification:'Fugaz One';letter-spacing:0px;word-spacing:0px;fill:#000000;stroke-width:0.834059"
       id="path13383-1-8-9" />
    <path
       d="m 136.75073,93.020706 3.56978,11.509944 7.67332,-11.509944 h 6.30548 l -4.23702,24.020754 h -6.03856 l 2.40209,-13.54497 -5.1378,8.0737 h -4.37049 l -2.26863,-8.0737 -2.40208,13.54497 h -6.00522 l 4.23704,-24.020754 z"
       style="font-size:21.4818px;line-height:1.25;font-family:'Fugaz One';-inkscape-font-specification:'Fugaz One';letter-spacing:0px;word-spacing:0px;fill:#000000;stroke-width:0.834059"
       id="path13385-6-9-1" />
    <g
       id="g5414-8-9"
       transform="matrix(2.1737008,0,0,2.1737008,2118.739,-4299.3394)">
      <path
         style="color:#000000;fill:#000000;stroke-width:2.26167;-inkscape-stroke:none"
         d="m -964.70092,2017.8831 c -2.04488,0 -4.08849,0.03 -5.79995,0.094 -1.71148,0.062 -3.03991,0.1411 -3.87668,0.2959 -0.71697,0.1327 -1.25604,0.2583 -1.71863,0.4386 -0.46257,0.1802 -1.01777,0.4356 -1.23099,1.162 -1.00121,3.4121 -1.16167,10.5971 -0.35718,14.2256 1.45059,6.5428 4.74192,11.0244 10.0774,13.5668 0.52115,0.2533 1.06703,0.4265 1.61822,0.5976 0.47854,0.1194 0.95554,0.1855 1.45244,0.1536 1.04631,-0.067 2.03457,-0.4662 3.33685,-1.104 3.09263,-1.5144 6.01946,-4.5487 7.59312,-7.8137 1.82705,-3.7906 2.36728,-6.9815 2.18954,-12.7062 -0.0396,-1.2757 -0.11011,-2.5735 -0.19263,-3.6505 -0.0825,-1.0771 -0.14963,-1.8477 -0.28623,-2.4111 l -0.47736,-1.969 -2.65336,-0.4909 c -0.83645,-0.1546 -2.16342,-0.2333 -3.87458,-0.2958 -1.7112,-0.062 -3.7551,-0.093 -5.79998,-0.093 z"
         id="path15152-8-5-6-0-4-5-4-5-8" />
      <path
         style="fill:#ffffff;stroke-width:0.269041"
         d="m -967.1201,2046.6446 c -5.04518,-2.4041 -8.0614,-6.482 -9.45994,-12.7901 -0.71574,-3.2282 -0.53111,-10.7022 0.33751,-13.6624 0.0929,-0.3164 0.70249,-0.554 2.07111,-0.807 2.67288,-0.4946 16.26866,-0.4954 18.93919,0 l 1.93333,0.3575 0.30464,1.2567 c 0.16757,0.6911 0.36855,3.3147 0.44666,5.8301 0.17536,5.6475 -0.31525,8.5242 -2.0772,12.1798 -1.44769,3.0035 -4.27842,5.9214 -7.0716,7.2894 -2.51974,1.2339 -3.43904,1.2928 -5.4237,0.347 z"
         id="path15154-6-7-7-0-0-7-6-3-8" />
      <g
         id="g4665-7-5"
         transform="matrix(0.92983407,0,0,0.92983407,-67.457725,142.45497)">
        <path
           d="m -967.97163,2026.582 -4.36733,3.1676 -0.95907,-0.93 1.35694,-2.7352 -2.38488,1.7383 -0.95907,-0.93 4.37263,-3.1626 0.98555,0.9558 -1.23387,2.5871 2.23533,-1.616 z"
           style="font-size:21.4818px;line-height:1.25;font-family:'Fugaz One';-inkscape-font-specification:'Fugaz One';letter-spacing:0px;word-spacing:0px;fill:#000000;stroke-width:0.184526"
           id="path13379-3-9-4" />
        <path
           d="m -965.79498,2028.6208 q 1.27699,1.2384 0.26471,2.2822 -0.16954,0.1749 -0.40192,0.3402 l -1.21315,0.8799 q -0.84143,0.6132 -1.60957,0.5572 -0.7682,-0.056 -1.5365,-0.8012 -0.76831,-0.745 -0.72606,-1.3929 0.0297,-0.4441 0.44595,-0.8734 0.18499,-0.1908 0.4483,-0.3774 l 1.2132,-0.88 q 1.62609,-1.1785 3.11503,0.2654 z m -3.55688,2.5758 q 0.26495,0.2569 0.5575,0.2733 0.29258,0.017 0.71583,-0.2929 l 1.16675,-0.8427 q 0.11863,-0.09 0.20088,-0.1753 0.41621,-0.4292 -0.0183,-0.8506 -0.55593,-0.5187 -1.25295,-0.013 l -1.16674,0.8427 q -0.14965,0.1119 -0.28838,0.255 -0.35969,0.371 0.0854,0.8025 z"
           style="font-size:21.4818px;line-height:1.25;font-family:'Fugaz One';-inkscape-font-specification:'Fugaz One';letter-spacing:0px;word-spacing:0px;fill:#000000;stroke-width:0.184526"
           id="path13381-2-7-1" />
        <path
           d="m -966.22955,2035.6742 0.83854,-0.8011 -0.88489,-0.8581 -1.06641,0.5801 -1.01204,-0.9814 5.06145,-2.4945 1.74858,1.6957 -3.67852,3.8356 z m 2.58322,-3.0985 -1.72378,0.94 0.69413,0.6731 1.36346,-1.2894 z"
           style="font-size:21.4818px;line-height:1.25;font-family:'Fugaz One';-inkscape-font-specification:'Fugaz One';letter-spacing:0px;word-spacing:0px;fill:#000000;stroke-width:0.184526"
           id="path13383-4-4-8" />
        <path
           d="m -959.35065,2034.9422 -1.20577,2.3778 2.99144,-0.6461 1.00146,0.9711 -4.37263,3.1626 -0.95906,-0.9301 2.46775,-1.7814 -2.0595,0.491 -0.69414,-0.6732 0.8832,-1.6316 -2.46776,1.7813 -0.95376,-0.9249 4.37262,-3.1625 z"
           style="font-size:21.4818px;line-height:1.25;font-family:'Fugaz One';-inkscape-font-specification:'Fugaz One';letter-spacing:0px;word-spacing:0px;fill:#000000;stroke-width:0.184526"
           id="path13385-1-1-5" />
        <path
           style="fill:#aa0000;stroke-width:0.263722"
           d="m -977.02408,2027.6359 c -0.0432,2.4669 0.0887,4.9172 0.42272,6.4239 1.37089,6.1833 4.32739,10.1806 9.27283,12.5372 v 0 c 1.9454,0.9271 2.84654,0.8696 5.31645,-0.34 0.82495,-0.404 1.65286,-0.9469 2.44637,-1.5875 z"
           id="path3387-9-6" />
        <path
           style="fill:#aa0000;stroke-width:0.263722"
           d="m -964.9571,2019.5124 c -3.04303,10e-5 -6.08227,0.072 -7.93493,0.2129 l 18.43608,17.988 c 1.21838,-2.9832 1.56078,-5.741 1.41182,-10.5394 -0.0766,-2.4657 -0.27347,-5.0374 -0.4377,-5.7149 l -0.29869,-1.232 -1.895,-0.3503 c -1.30884,-0.2428 -5.29513,-0.3645 -9.28158,-0.3643 z"
           id="path1265-0-6" />
        <path
           style="fill:#ffffff;stroke-width:0.0100828"
           d="m -957.49888,2031.1984 c -0.0611,-0.097 -0.0617,-0.099 -0.0428,-0.1191 0.0215,-0.024 0.0241,-0.034 0.008,-0.034 -0.006,0 -0.0334,-0.02 -0.0604,-0.045 -0.0477,-0.042 -0.0507,-0.044 -0.089,-0.035 -0.03,0.01 -0.0427,0.017 -0.0522,0.041 -0.008,0.018 -0.0256,0.035 -0.0454,0.044 -0.047,0.019 -0.0496,0.03 -0.0192,0.077 0.0149,0.022 0.0247,0.043 0.0221,0.046 -0.002,0 -0.0259,0.01 -0.0516,0.019 -0.0361,0.01 -0.0478,0.011 -0.0506,0 -0.002,-0.01 -0.008,-0.026 -0.0129,-0.042 -0.011,-0.036 -0.0265,-0.039 -0.0311,-0.01 -0.003,0.021 -0.005,0.021 -0.0374,-0.017 -0.0334,-0.039 -0.0838,-0.06 -0.14358,-0.061 -0.0126,-3e-4 -0.036,-0.01 -0.0521,-0.015 -0.0171,-0.01 -0.0329,-0.01 -0.0382,-0.01 -0.0164,0.016 -0.0532,-0.029 -0.0532,-0.067 0,-0.03 -0.005,-0.037 -0.0523,-0.062 -0.0289,-0.015 -0.0595,-0.042 -0.0684,-0.059 -0.0177,-0.033 -0.0483,-0.051 -0.0374,-0.023 0.008,0.019 -0.008,0.021 -0.0523,0.01 -0.0385,-0.014 -0.0618,-0.053 -0.0618,-0.1076 0,-0.035 -0.0115,-0.053 -0.13358,-0.1937 -0.0735,-0.085 -0.14041,-0.1579 -0.14872,-0.1623 -0.009,-0.01 -0.10746,-0.036 -0.22034,-0.072 l -0.20522,-0.063 -0.15051,-0.1574 c -0.142,-0.1483 -0.15351,-0.158 -0.20369,-0.1699 -0.0516,-0.012 -0.0552,-0.011 -0.11536,0.019 -0.0878,0.044 -0.14246,0.042 -0.25515,-0.01 -0.0477,-0.021 -0.10658,-0.053 -0.13106,-0.069 -0.0245,-0.017 -0.0696,-0.041 -0.10001,-0.054 -0.0884,-0.038 -0.21346,-0.1196 -0.25527,-0.1668 -0.0261,-0.029 -0.0519,-0.047 -0.0805,-0.054 -0.084,-0.023 -0.1357,-0.056 -0.17222,-0.114 -0.0209,-0.034 -0.0569,-0.07 -0.091,-0.094 -0.0455,-0.032 -0.0601,-0.048 -0.0753,-0.089 -0.0348,-0.093 -0.0351,-0.096 -0.0121,-0.096 0.0165,0 0.0209,-0.01 0.0209,-0.031 0,-0.017 0.008,-0.045 0.0164,-0.062 0.0149,-0.028 0.015,-0.035 0.002,-0.078 -0.009,-0.026 -0.0185,-0.064 -0.0222,-0.086 -0.003,-0.022 -0.0219,-0.065 -0.0404,-0.098 -0.0185,-0.033 -0.0383,-0.073 -0.0436,-0.093 -0.005,-0.019 -0.0325,-0.062 -0.0602,-0.094 -0.0299,-0.034 -0.0549,-0.076 -0.0616,-0.1005 -0.008,-0.028 -0.0242,-0.053 -0.0532,-0.078 -0.023,-0.019 -0.0454,-0.035 -0.0497,-0.035 -0.003,0 -0.0108,-0.016 -0.0146,-0.035 -0.005,-0.027 -0.002,-0.041 0.01,-0.053 0.0244,-0.028 0.0197,-0.05 -0.014,-0.067 -0.0189,-0.01 -0.0303,-0.024 -0.0303,-0.036 0,-0.011 -0.0137,-0.034 -0.0303,-0.049 -0.0226,-0.021 -0.0303,-0.037 -0.0303,-0.064 0,-0.024 -0.007,-0.041 -0.0197,-0.05 -0.0108,-0.01 -0.0399,-0.06 -0.0646,-0.1139 -0.0528,-0.1181 -0.0848,-0.2774 -0.0675,-0.3365 0.009,-0.029 0.008,-0.036 -0.009,-0.048 -0.0104,-0.01 -0.0217,-0.025 -0.0254,-0.039 -0.005,-0.018 -0.0132,-0.026 -0.0307,-0.026 -0.0146,0 -0.0331,-0.011 -0.0461,-0.028 l -0.0218,-0.028 -0.0242,0.03 c -0.0216,0.027 -0.0242,0.041 -0.0243,0.1199 -4e-5,0.08 0.003,0.095 0.029,0.1411 0.0159,0.028 0.0321,0.069 0.0357,0.089 0.003,0.021 0.0178,0.057 0.0315,0.08 0.0201,0.034 0.0236,0.052 0.0185,0.086 -0.005,0.033 -0.003,0.043 0.008,0.043 0.0162,2e-4 0.0701,0.1578 0.0803,0.2352 0.003,0.028 0.0122,0.093 0.0187,0.1426 0.007,0.05 0.014,0.1051 0.0165,0.1225 0.003,0.023 0.0111,0.034 0.0285,0.038 0.0335,0.01 0.0663,0.069 0.0663,0.1214 0,0.036 -0.003,0.045 -0.0228,0.05 -0.041,0.01 -0.047,0.01 -0.0617,-0.042 -0.009,-0.028 -0.0467,-0.094 -0.0921,-0.1566 l -0.0774,-0.1077 0.016,-0.041 c 0.0279,-0.07 0.02,-0.1164 -0.0295,-0.1708 -0.0126,-0.015 -0.026,-0.035 -0.0297,-0.047 -0.003,-0.012 -0.0146,-0.023 -0.0242,-0.023 -0.0235,0 -0.11435,-0.097 -0.1358,-0.1444 l -0.0174,-0.038 0.0228,0.01 c 0.0126,0 0.0382,0.013 0.0569,0.021 0.0438,0.018 0.0428,0.018 0.0313,-0.012 -0.008,-0.018 -0.006,-0.034 0.003,-0.053 0.0122,-0.023 0.0113,-0.034 -0.007,-0.088 -0.0123,-0.037 -0.0357,-0.078 -0.0592,-0.1038 -0.0213,-0.023 -0.0388,-0.052 -0.0388,-0.063 0,-0.011 -0.01,-0.1252 -0.0204,-0.2533 l -0.0206,-0.2329 -0.0408,-0.073 c -0.0224,-0.041 -0.0491,-0.077 -0.0596,-0.08 -0.0104,0 -0.024,-0.022 -0.0303,-0.041 -0.009,-0.025 -0.0244,-0.042 -0.0611,-0.062 -0.0452,-0.025 -0.0497,-0.03 -0.0497,-0.064 0,-0.02 -0.01,-0.084 -0.0212,-0.1404 -0.0192,-0.095 -0.0197,-0.1067 -0.006,-0.1302 0.0133,-0.022 0.0134,-0.028 0.002,-0.046 -0.008,-0.01 -0.0141,-0.036 -0.0141,-0.059 0,-0.032 0.003,-0.039 0.0201,-0.039 0.0149,0 0.0202,-0.01 0.0202,-0.026 0,-0.014 -0.007,-0.028 -0.0141,-0.031 -0.008,-0.01 -0.0218,-0.036 -0.031,-0.075 -0.0159,-0.065 -0.0159,-0.077 2.2e-4,-0.1832 0.0146,-0.096 0.0235,-0.1249 0.0553,-0.18 0.025,-0.043 0.045,-0.097 0.0592,-0.1592 0.0195,-0.087 0.0254,-0.099 0.079,-0.1629 0.0318,-0.038 0.10421,-0.15 0.16061,-0.2489 l 0.10259,-0.1801 0.0263,-0.1361 0.0264,-0.136 -0.0292,-0.086 c -0.0161,-0.047 -0.0352,-0.1232 -0.0426,-0.1692 -0.0116,-0.073 -0.0114,-0.085 0.002,-0.099 0.0141,-0.013 0.0178,-0.011 0.0388,0.023 0.0307,0.051 0.0914,0.1267 0.0972,0.1208 0.002,0 -0.008,-0.028 -0.0231,-0.059 -0.0401,-0.078 -0.0472,-0.1449 -0.0204,-0.1918 0.0185,-0.033 0.0196,-0.041 0.009,-0.071 -0.01,-0.027 -0.01,-0.041 -6e-5,-0.067 0.0104,-0.028 0.01,-0.037 -0.006,-0.067 -0.024,-0.045 -0.014,-0.093 0.0264,-0.1272 0.025,-0.022 0.0323,-0.038 0.0436,-0.1008 0.0187,-0.1051 0.0181,-0.1184 -0.007,-0.1261 -0.0161,-0.01 -0.0279,0 -0.0499,0.028 l -0.0289,0.034 -2.4e-4,-0.038 c -2e-4,-0.02 0.0109,-0.063 0.0248,-0.095 0.0263,-0.06 0.0295,-0.081 0.019,-0.1336 -0.005,-0.027 -0.009,-0.029 -0.026,-0.021 -0.0313,0.017 -0.0312,0.01 2.5e-4,-0.058 0.0162,-0.033 0.0373,-0.083 0.0469,-0.1128 0.01,-0.029 0.0238,-0.056 0.0316,-0.059 0.01,0 0.011,-0.01 0.005,-0.017 -0.0163,-0.02 -0.0258,-0.246 -0.0111,-0.2638 0.0143,-0.017 0.0149,-0.017 -0.0229,-0.034 -0.0235,-0.01 -0.0277,-0.018 -0.0277,-0.052 0,-0.035 -0.006,-0.045 -0.051,-0.084 l -0.051,-0.045 -2.3e-4,-0.09 c -2.3e-4,-0.098 -0.0121,-0.1293 -0.0553,-0.1457 -0.0225,-0.01 -0.0317,0 -0.0766,0.036 l -0.051,0.046 -0.0219,-0.021 c -0.0191,-0.017 -0.0352,-0.02 -0.12423,-0.02 -0.10196,0 -0.10232,0 -0.0938,-0.023 0.007,-0.017 0.0151,-0.021 0.0388,-0.02 0.0245,0 0.0314,0 0.036,-0.02 0.009,-0.033 0.12279,-0.082 0.1755,-0.077 0.0209,0 0.0458,0.01 0.0555,0.012 0.0142,0.01 0.0177,0 0.0177,-0.017 0,-0.03 -0.0198,-0.037 -0.10904,-0.037 -0.0429,-2e-4 -0.0799,0.01 -0.11347,0.021 -0.0299,0.012 -0.0609,0.019 -0.0775,0.016 -0.0152,0 -0.0458,0 -0.068,0 -0.0353,0.01 -0.0403,0.01 -0.0409,0.034 -2.4e-4,0.016 -0.005,0.033 -0.0104,0.038 -0.005,0.01 -0.0802,0.012 -0.16591,0.015 -0.0858,0 -0.1777,0.01 -0.20427,0.011 -0.0298,0 -0.0603,0 -0.0797,-0.01 -0.0172,-0.01 -0.0529,-0.012 -0.0792,-0.01 -0.0264,0 -0.0509,0 -0.0546,-0.01 -0.003,-0.01 -0.0257,-0.01 -0.049,-0.01 -0.0627,-1e-4 -0.0881,-0.01 -0.0985,-0.037 -0.008,-0.021 -0.014,-0.024 -0.0383,-0.018 -0.0236,0.01 -0.0299,0 -0.0343,-0.015 -0.006,-0.023 -0.0457,-0.028 -0.0649,-0.01 -0.009,0.01 -0.0204,0.01 -0.0458,-0.015 -0.019,-0.015 -0.0399,-0.027 -0.0462,-0.027 -0.0172,0 -0.0141,-0.017 0.003,-0.024 0.0379,-0.015 0.095,-0.01 0.095,0.019 0,0.016 0.0706,0.024 0.12582,0.015 0.0276,-0.01 0.0489,-0.01 0.0681,0.01 0.0308,0.016 0.034,0.024 0.0159,0.042 -0.0182,0.018 0.0133,0.016 0.0379,0 0.0275,-0.021 0.0848,-0.019 0.1197,0 0.0201,0.013 0.0348,0.017 0.0461,0.01 0.01,0 0.0412,-0.012 0.0714,-0.016 0.0328,0 0.0796,-0.02 0.11681,-0.041 0.0341,-0.019 0.0705,-0.034 0.0806,-0.034 0.0103,0 0.0253,0 0.0334,-0.01 0.012,-0.01 0.01,-0.011 -0.0124,-0.02 -0.0196,-0.01 -0.0254,-0.016 -0.0208,-0.028 0.005,-0.014 0.002,-0.016 -0.0254,-0.012 -0.0175,0 -0.0318,0 -0.0318,0 0,0 0.008,-0.018 0.0164,-0.037 0.0141,-0.029 0.0146,-0.038 0.002,-0.062 -0.009,-0.017 -0.0272,-0.034 -0.048,-0.039 l -0.0343,-0.011 0.0391,-0.033 c 0.0215,-0.017 0.0485,-0.032 0.06,-0.032 0.0115,0 0.0357,-0.015 0.0537,-0.034 l 0.0328,-0.034 -0.0259,-0.017 c -0.0359,-0.024 -0.0328,-0.061 0.01,-0.1198 0.0192,-0.027 0.0384,-0.047 0.0426,-0.047 0.003,10e-5 0.0154,0.015 0.025,0.031 0.024,0.042 0.0351,0.03 0.0351,-0.036 0,-0.05 0.003,-0.06 0.0316,-0.089 0.0345,-0.035 0.14033,-0.071 0.18043,-0.06 0.0122,0 0.0434,0 0.0695,-0.01 0.0672,-0.023 0.0716,-0.022 0.0703,0.022 -0.002,0.036 8e-5,0.037 0.0361,0.041 0.0255,0 0.0392,0.01 0.0432,0.022 0.003,0.01 0.0175,0.02 0.0318,0.023 0.0202,0 0.0369,0 0.0753,-0.039 0.041,-0.036 0.0543,-0.042 0.0785,-0.038 0.0172,0 0.032,0 0.0363,-0.01 0.009,-0.015 -0.0204,-0.037 -0.0585,-0.045 -0.0233,0 -0.0272,-0.01 -0.0218,-0.027 0.005,-0.015 -0.002,-0.028 -0.0194,-0.045 -0.0351,-0.033 -0.0343,-0.073 0.002,-0.1076 0.0152,-0.013 0.0402,-0.028 0.0553,-0.032 0.0218,-0.01 0.0278,-0.012 0.0281,-0.034 1.8e-4,-0.015 0.007,-0.035 0.0141,-0.046 0.0133,-0.017 0.0161,-0.017 0.0644,0.01 0.0278,0.014 0.0692,0.029 0.0921,0.032 0.0247,0 0.0454,0.015 0.0515,0.025 0.009,0.016 0.003,0.022 -0.0306,0.039 -0.0426,0.022 -0.0485,0.038 -0.0307,0.085 0.0149,0.039 0.0528,0.034 0.11244,-0.016 0.0388,-0.033 0.049,-0.047 0.0449,-0.064 -0.003,-0.015 0.005,-0.032 0.0357,-0.061 0.0226,-0.022 0.0585,-0.065 0.08,-0.096 0.0259,-0.038 0.0498,-0.06 0.0716,-0.068 0.0306,-0.01 0.0351,-0.01 0.0735,0.028 l 0.0409,0.039 0.0926,-0.01 c 0.0829,-0.01 0.0952,-0.01 0.11816,0.01 0.014,0.01 0.0257,0.027 0.0259,0.036 2.4e-4,0.017 0.002,0.017 0.0314,0 l 0.0311,-0.018 0.0257,0.029 c 0.0181,0.02 0.0381,0.032 0.0672,0.035 0.036,0 0.042,0.01 0.0447,0.034 0.002,0.015 -0.002,0.036 -0.008,0.048 -0.008,0.016 -0.008,0.025 2.9e-4,0.039 0.01,0.015 0.008,0.028 -0.0105,0.061 -0.0215,0.042 -0.0216,0.043 -0.002,0.047 0.0245,0.01 0.0392,0.036 0.0455,0.093 0.003,0.025 0.0141,0.053 0.026,0.066 0.0116,0.012 0.021,0.033 0.021,0.044 0,0.012 0.0146,0.034 0.0353,0.05 0.0261,0.021 0.0353,0.035 0.0353,0.059 3e-5,0.016 0.009,0.044 0.0184,0.06 0.0145,0.024 0.0161,0.035 0.009,0.057 -0.009,0.022 -0.005,0.041 0.0179,0.097 0.0403,0.1004 0.0398,0.1 0.071,0.079 0.0322,-0.021 0.25914,-0.039 0.29545,-0.023 0.0264,0.011 0.029,0.022 0.008,0.029 -0.0244,0.01 -0.0174,0.024 0.0152,0.029 0.0209,0 0.0404,-10e-5 0.0629,-0.013 0.0179,-0.011 0.036,-0.019 0.0402,-0.019 0.0155,0 0.007,0.053 -0.0132,0.079 -0.015,0.02 -0.019,0.035 -0.014,0.055 l 0.007,0.028 0.0435,-0.025 c 0.0609,-0.035 0.0674,-0.032 0.0383,0.02 -0.0279,0.051 -0.0254,0.053 0.0376,0.029 0.0349,-0.012 0.0452,-0.012 0.0515,0 0.003,0.01 0.0321,0.053 0.0616,0.1033 0.0456,0.077 0.0585,0.092 0.0857,0.097 0.0489,0.01 0.0794,0.034 0.0865,0.07 0.009,0.042 0.003,0.046 -0.0488,0.054 -0.025,0.01 -0.0454,0.01 -0.0453,0.015 7e-5,0 0.0277,0.024 0.0612,0.045 0.0549,0.034 0.068,0.038 0.12956,0.038 h 0.0684 l 0.0328,0.061 c 0.0279,0.053 0.0311,0.065 0.0216,0.086 -0.0159,0.034 -0.0141,0.042 0.009,0.036 0.0206,-0.01 0.0245,-0.013 0.0356,-0.073 0.0122,-0.066 0.0137,-0.068 0.0633,-0.076 0.0378,-0.01 0.0435,-0.01 0.0274,-0.016 -0.0111,-0.01 -0.0326,-0.01 -0.0479,-0.01 -0.0295,0 -0.0332,-0.01 -0.018,-0.029 0.009,-0.014 0.12934,-0.034 0.14117,-0.024 0.002,0.01 -3e-4,0.017 -0.007,0.034 -0.0112,0.029 -0.01,0.032 0.0649,0.096 0.0723,0.062 0.0792,0.065 0.12781,0.065 0.0282,0 0.0752,0 0.10433,0.01 l 0.0529,0.01 v -0.03 c 0,-0.027 0.003,-0.032 0.0313,-0.035 h 0.0313 l -0.0316,-0.04 -0.0316,-0.039 0.0376,-0.038 c 0.0208,-0.021 0.0425,-0.039 0.0482,-0.039 0.006,0 0.0297,0.017 0.0531,0.038 0.0298,0.027 0.0444,0.049 0.0487,0.073 0.006,0.035 0.006,0.036 -0.0403,0.05 -0.0447,0.012 -0.0458,0.014 -0.0295,0.033 0.0163,0.018 0.0157,0.021 -0.01,0.047 l -0.0271,0.028 0.0303,0.029 c 0.0283,0.028 0.0303,0.028 0.0303,0.01 0,-0.03 0.0104,-0.053 0.0243,-0.053 0.007,0 0.0334,-0.013 0.0593,-0.029 0.0441,-0.028 0.0465,-0.032 0.0359,-0.054 -0.009,-0.019 -0.009,-0.033 0.002,-0.056 0.0122,-0.029 0.011,-0.033 -0.0355,-0.082 l -0.0482,-0.052 0.0222,-0.017 c 0.0185,-0.015 0.0206,-0.021 0.0126,-0.042 -0.009,-0.023 -0.003,-0.03 0.0556,-0.085 l 0.0653,-0.059 0.0246,0.023 c 0.0191,0.018 0.0246,0.034 0.0246,0.07 0,0.034 0.008,0.058 0.0259,0.085 l 0.0258,0.038 -0.0208,0.034 c -0.0262,0.042 -0.026,0.045 0.003,0.057 0.0236,0.01 0.0253,0.013 0.0257,0.083 l 2.3e-4,0.073 0.021,-0.041 c 0.0115,-0.022 0.0222,-0.042 0.0238,-0.044 0.002,0 0.0187,-10e-5 0.0382,0 0.0305,0.01 0.0366,0.011 0.0452,0.045 0.009,0.034 0.007,0.041 -0.011,0.06 l -0.0208,0.021 0.0238,0.051 c 0.0131,0.028 0.0266,0.051 0.0303,0.051 0.0146,0 0.0597,-0.059 0.0786,-0.1024 0.0124,-0.028 0.029,-0.05 0.0426,-0.053 0.0204,-0.01 0.0217,-0.011 0.0154,-0.061 -0.007,-0.052 -0.005,-0.055 0.0193,-0.066 0.023,-0.01 0.0348,-0.01 0.10144,0.028 0.0733,0.039 0.0753,0.041 0.0753,0.078 7e-5,0.03 -0.003,0.039 -0.0247,0.047 l -0.0247,0.01 0.0197,0.058 c 0.0109,0.032 0.0197,0.065 0.0197,0.073 0,0.024 -0.0579,0.073 -0.11853,0.101 l -0.053,0.024 -0.0439,-0.022 c -0.0594,-0.029 -0.0707,-0.028 -0.0636,0.01 0.005,0.025 -2e-4,0.034 -0.0439,0.066 -0.0431,0.034 -0.0483,0.04 -0.0391,0.059 0.0154,0.028 0.008,0.041 -0.0595,0.097 -0.0538,0.045 -0.0666,0.051 -0.1242,0.058 -0.0353,0 -0.0746,0.01 -0.0874,0.012 -0.0219,0.01 -0.0222,0.01 -0.006,0.025 0.0158,0.018 0.0158,0.021 2e-5,0.045 -0.01,0.015 -0.041,0.036 -0.0701,0.05 -0.0323,0.015 -0.0911,0.059 -0.14947,0.1115 -0.0761,0.07 -0.0988,0.097 -0.10855,0.1298 -0.007,0.023 -0.0237,0.071 -0.0378,0.1062 -0.0206,0.052 -0.0234,0.069 -0.0143,0.088 0.01,0.02 0.0184,0.024 0.0553,0.024 h 0.0443 l 0.0118,0.092 c 0.0104,0.081 0.01,0.095 -0.005,0.1174 l -0.0168,0.025 0.0441,-0.01 c 0.13331,-0.021 0.11601,-0.026 0.21751,0.059 0.0507,0.042 0.11635,0.088 0.14589,0.1009 0.0296,0.014 0.0691,0.041 0.0877,0.06 0.0315,0.034 0.0397,0.036 0.11091,0.042 0.0422,0 0.0962,0.01 0.11973,0.011 l 0.0428,0.01 10e-5,0.138 1.1e-4,0.1381 0.0693,0.1 c 0.0383,0.054 0.0842,0.1091 0.10234,0.1205 l 0.0329,0.02 0.015,-0.023 0.0149,-0.023 0.0236,0.022 0.0238,0.022 v -0.036 c 0,-0.02 0.005,-0.048 0.0118,-0.062 0.01,-0.021 0.009,-0.033 -0.005,-0.061 -0.0105,-0.022 -0.0169,-0.061 -0.0171,-0.1031 -8e-5,-0.037 -0.007,-0.093 -0.0148,-0.1227 -0.0165,-0.062 -0.0221,-0.054 0.071,-0.1028 0.0551,-0.028 0.0649,-0.04 0.0994,-0.1036 0.0372,-0.07 0.0381,-0.073 0.0309,-0.1419 -0.009,-0.083 -0.0134,-0.094 -0.0766,-0.1672 l -0.0485,-0.056 0.0359,-0.053 0.0359,-0.053 -0.0173,-0.061 c -0.0119,-0.042 -0.0153,-0.078 -0.0111,-0.1141 0.005,-0.042 0.002,-0.059 -0.0149,-0.088 l -0.021,-0.035 0.0212,-0.029 0.0212,-0.029 0.0476,0.015 c 0.0262,0.01 0.0772,0.017 0.1134,0.02 0.0535,0.01 0.0683,0 0.0793,-0.01 0.0122,-0.015 0.0195,-0.012 0.0744,0.027 0.0335,0.023 0.0745,0.06 0.0911,0.08 0.0216,0.027 0.0408,0.039 0.0666,0.043 0.0201,0 0.0516,0.01 0.0702,0.01 l 0.0341,0.01 -0.007,0.05 c -0.003,0.028 -0.002,0.067 0.003,0.087 0.005,0.02 0.0122,0.05 0.0156,0.065 0.005,0.022 0.0134,0.028 0.0439,0.034 0.0268,0 0.0484,0.018 0.0745,0.047 l 0.0368,0.041 0.0588,-0.039 0.0588,-0.039 0.0217,-0.094 c 0.012,-0.052 0.0236,-0.096 0.0262,-0.098 0.002,0 0.0768,0.072 0.16503,0.1677 0.11265,0.121 0.16002,0.1788 0.15898,0.1942 -0.002,0.012 -0.003,0.034 -0.005,0.051 -0.003,0.027 0.003,0.034 0.0707,0.074 0.0567,0.034 0.0778,0.053 0.0893,0.081 0.0197,0.047 0.0176,0.047 0.0514,0.023 0.0289,-0.021 0.0299,-0.021 0.0469,0 0.01,0.01 0.0362,0.022 0.0593,0.025 0.0806,0.012 0.0822,0.014 0.0553,0.042 l -0.0235,0.025 0.0359,-0.01 c 0.0321,-0.01 0.0372,0 0.048,0.02 0.0104,0.023 0.0166,0.026 0.0417,0.02 0.041,-0.01 0.0642,0.01 0.0862,0.058 0.0103,0.024 0.0325,0.059 0.0492,0.077 l 0.0305,0.034 -0.0272,0.055 c -0.015,0.03 -0.0272,0.057 -0.0272,0.06 0,0 0.0193,0 0.0428,0 0.0236,0 0.0448,-0.01 0.0472,0 0.002,0 -0.003,0.028 -0.0117,0.058 -0.009,0.028 -0.0192,0.082 -0.023,0.1184 l -0.007,0.066 0.0353,-0.034 c 0.0269,-0.025 0.0406,-0.032 0.0573,-0.027 0.0121,0 0.0198,0.012 0.0172,0.018 -0.019,0.046 -0.0191,0.046 0.0156,0.052 0.0228,0 0.0514,-2e-4 0.0867,-0.014 0.0509,-0.019 0.0528,-0.019 0.0625,0 0.005,0.01 0.01,0.037 0.01,0.059 0,0.044 0.003,0.047 0.0447,0.03 0.0244,-0.01 0.0258,-0.01 0.0258,0.021 0,0.017 -0.0106,0.046 -0.0235,0.063 -0.0129,0.017 -0.0408,0.064 -0.0618,0.1044 -0.036,0.069 -0.0402,0.072 -0.0726,0.072 -0.0309,0 -0.0334,0 -0.0239,-0.02 0.006,-0.01 0.0149,-0.022 0.0204,-0.026 0.005,-0.01 0.0146,-0.016 0.0203,-0.025 0.01,-0.017 0.008,-0.019 -0.0202,-0.013 -0.0167,0 -0.0305,0 -0.0306,0 -9e-5,0 -0.003,-0.015 -0.009,-0.022 -0.008,-0.011 -0.0145,-0.01 -0.0416,0.01 -0.0285,0.015 -0.10206,0.03 -0.24254,0.052 -0.0348,0.01 -0.0359,0 -0.0339,-0.024 0.002,-0.017 0.01,-0.042 0.019,-0.056 0.0127,-0.019 0.0152,-0.037 0.0103,-0.071 -0.003,-0.028 -0.003,-0.047 0.003,-0.052 0.006,0 0.011,-0.035 0.011,-0.071 0,-0.046 0.009,-0.089 0.0309,-0.1518 0.0171,-0.047 0.0291,-0.089 0.027,-0.092 -0.002,0 -0.0353,0.01 -0.0737,0.019 -0.0644,0.022 -0.0719,0.027 -0.0961,0.072 -0.0146,0.027 -0.0404,0.062 -0.0577,0.079 l -0.0314,0.032 -0.16915,0.01 c -0.14438,0.01 -0.29108,0.025 -0.3584,0.045 -0.01,0 -0.029,0.028 -0.0427,0.053 -0.0185,0.036 -0.032,0.051 -0.0534,0.055 -0.0159,0 -0.0495,0.028 -0.0747,0.053 -0.0497,0.051 -0.22438,0.2931 -0.21709,0.3004 0.01,0.01 0.0582,-0.039 0.10356,-0.106 0.0422,-0.062 0.0629,-0.08 0.17012,-0.1506 0.11933,-0.078 0.12373,-0.08 0.19944,-0.086 l 0.0773,-0.01 0.0304,0.044 0.0304,0.044 -0.0377,0.036 c -0.0339,0.034 -0.0431,0.036 -0.0917,0.036 -0.054,0 -0.0541,1e-4 -0.0353,0.02 0.0116,0.012 0.0266,0.019 0.0394,0.016 0.0114,-0.01 0.0331,-0.01 0.0483,-0.011 0.0272,-0.01 0.0277,-0.01 0.0277,0.04 0,0.047 0.012,0.068 0.0888,0.1499 0.0365,0.039 0.0623,0.046 0.22506,0.064 0.0313,0.01 0.0647,0.012 0.0743,0.019 0.0157,0.011 0.0108,0.017 -0.0468,0.059 -0.0802,0.056 -0.0927,0.063 -0.155,0.079 -0.0475,0.011 -0.0532,0.016 -0.0982,0.087 l -0.0477,0.074 -0.0374,-0.015 c -0.046,-0.019 -0.0407,-0.012 -0.0518,-0.062 l -0.01,-0.042 0.063,-0.062 c 0.0451,-0.045 0.0616,-0.068 0.058,-0.081 -0.006,-0.024 -0.003,-0.025 -0.0605,0.01 -0.0264,0.016 -0.0652,0.033 -0.086,0.035 -0.0275,0 -0.0439,0.016 -0.0593,0.039 -0.0151,0.023 -0.0618,0.053 -0.16299,0.1085 l -0.14174,0.077 -0.0231,0.075 c -0.0298,0.097 -0.0295,0.1026 0.009,0.146 0.0352,0.04 0.036,0.038 -0.0341,0.076 -0.026,0.014 -0.0573,0.019 -0.10302,0.019 -0.0633,0 -0.13686,0.023 -0.13686,0.042 0,0 0.0227,0.01 0.0504,0 0.0278,0 0.0504,0 0.0504,0 0,0 -0.0238,0.013 -0.0528,0.022 -0.10856,0.034 -0.10841,0.034 -0.10841,0.077 0,0.026 -0.0116,0.059 -0.0366,0.1 -0.0202,0.034 -0.04,0.063 -0.044,0.065 -0.003,0 -0.0156,0 -0.0254,-0.015 -0.0318,-0.035 -0.0356,-0.022 -0.01,0.036 0.0258,0.059 0.0241,0.077 -0.01,0.1046 -0.009,0.01 -0.0243,0.033 -0.0347,0.055 -0.0104,0.024 -0.0239,0.046 -0.0301,0.05 -0.0147,0.01 -0.0147,-0.026 9e-5,-0.059 0.01,-0.021 0.008,-0.029 -0.0102,-0.055 -0.0156,-0.022 -0.0214,-0.045 -0.0214,-0.086 0,-0.03 -0.003,-0.059 -0.009,-0.061 -0.005,0 -0.0189,0.022 -0.0311,0.055 -0.0222,0.06 -0.0222,0.061 -0.002,0.083 0.0304,0.034 0.0355,0.081 0.0116,0.111 -0.0213,0.027 -0.0195,0.03 0.0233,0.041 0.0218,0.01 0.0279,0.012 0.0279,0.035 8e-5,0.015 0.007,0.046 0.0147,0.068 0.0209,0.059 0.0201,0.061 -0.0306,0.096 -0.0427,0.029 -0.0449,0.034 -0.0302,0.049 0.0295,0.033 0.0197,0.047 -0.0343,0.055 -0.0434,0.01 -0.0553,0.012 -0.0871,0.051 -0.027,0.033 -0.0487,0.047 -0.0799,0.055 -0.0339,0.01 -0.0659,0.034 -0.15134,0.1142 -0.0596,0.056 -0.13037,0.1324 -0.15724,0.168 -0.0487,0.064 -0.0489,0.065 -0.0489,0.143 0,0.062 0.006,0.096 0.0303,0.1605 0.0166,0.045 0.0303,0.092 0.0303,0.1046 0,0.012 0.0164,0.063 0.0365,0.1128 0.0277,0.069 0.0377,0.1095 0.0414,0.1708 0.005,0.078 0.003,0.083 -0.0288,0.1383 -0.0301,0.052 -0.0376,0.058 -0.0666,0.059 -0.0261,0 -0.0328,-0.01 -0.0328,-0.019 0,-0.01 -0.0154,-0.037 -0.034,-0.059 -0.0187,-0.02 -0.0579,-0.085 -0.0868,-0.1435 l -0.0528,-0.1055 0.005,-0.091 0.005,-0.091 -0.0759,-0.077 -0.0759,-0.078 -0.0615,0.025 -0.0615,0.025 -0.0189,-0.024 c -0.0542,-0.068 -0.0655,-0.076 -0.1253,-0.089 -0.0516,-0.011 -0.0687,-0.01 -0.11486,0.01 -0.0412,0.012 -0.0746,0.015 -0.1385,0.01 l -0.0842,-0.01 -0.0262,0.034 -0.0262,0.034 0.0335,0.029 c 0.0244,0.021 0.0305,0.034 0.0222,0.041 -0.009,0.01 -0.0197,0 -0.0426,-0.012 -0.0254,-0.019 -0.0385,-0.022 -0.0681,-0.016 -0.0202,0 -0.0496,0.01 -0.0653,0.012 -0.0236,0 -0.036,0 -0.0712,-0.036 l -0.0427,-0.042 -0.0363,0.015 c -0.0343,0.015 -0.0396,0.013 -0.0939,-0.01 -0.056,-0.025 -0.0595,-0.025 -0.12604,-0.011 -0.0498,0.01 -0.0901,0.028 -0.14743,0.065 -0.0435,0.028 -0.11178,0.067 -0.15194,0.087 -0.0676,0.034 -0.0753,0.041 -0.10394,0.098 -0.0271,0.053 -0.0301,0.068 -0.0244,0.1137 0.006,0.047 0.002,0.066 -0.0435,0.183 -0.0314,0.082 -0.0563,0.1686 -0.067,0.232 -0.0159,0.095 -0.0159,0.1082 -2.2e-4,0.2061 0.0124,0.079 0.0271,0.127 0.0575,0.1913 0.0225,0.048 0.0528,0.1269 0.0676,0.1767 l 0.0269,0.091 0.0448,0.01 c 0.0331,0.01 0.0536,0.017 0.0788,0.044 l 0.034,0.036 0.16257,-0.022 c 0.19619,-0.027 0.24527,-0.042 0.29783,-0.096 0.0343,-0.035 0.0434,-0.054 0.0638,-0.1365 l 0.0239,-0.096 0.10023,-0.028 c 0.0835,-0.024 0.11867,-0.028 0.21078,-0.028 0.075,0 0.11301,0 0.11831,0.014 0.003,0.01 0.008,0.03 0.008,0.053 10e-5,0.035 -0.006,0.046 -0.0453,0.084 -0.0361,0.034 -0.0454,0.05 -0.0454,0.077 0,0.051 -0.0572,0.2267 -0.0803,0.246 -0.0174,0.015 -0.0209,0.034 -0.0266,0.1481 -0.01,0.1846 -0.0156,0.1788 0.18157,0.1653 l 0.15026,-0.01 0.12363,0.043 0.12363,0.043 0.0221,0.053 0.0219,0.053 -0.0515,0.2168 -0.0515,0.2168 0.10706,0.1606 c 0.10161,0.1525 0.10826,0.1602 0.13162,0.1513 0.0204,-0.01 0.0285,-0.01 0.0472,0.017 l 0.0226,0.026 0.12444,-0.058 0.12445,-0.058 0.10036,0.022 0.10036,0.022 0.0835,0.09 0.0836,0.09 -0.0409,0.095 c -0.0225,0.053 -0.0435,0.095 -0.0468,0.095 -0.003,0 -0.0338,-0.044 -0.0678,-0.098 z m 0.008,-1.437 c -0.005,-0.013 -0.0172,-0.028 -0.0268,-0.032 -0.027,-0.01 -0.0124,-0.016 0.0627,-0.028 0.0579,-0.01 0.0753,-0.01 0.10693,0.01 0.0209,0.01 0.0378,0.02 0.0378,0.024 0,0.02 -0.0427,0.039 -0.10328,0.045 -0.0657,0.01 -0.0683,0.01 -0.0773,-0.017 z m 0.77946,-0.012 -0.03,-0.037 -0.1029,-0.01 c -0.0923,0 -0.10532,0.01 -0.12623,0.021 l -0.0233,0.022 -0.029,-0.029 c -0.0323,-0.034 -0.0323,-0.034 0.0111,-0.048 0.0233,-0.01 0.0469,-0.01 0.0907,0 0.0442,0.01 0.0677,0.011 0.0921,0 0.0179,-0.01 0.0328,-0.013 0.0328,-0.016 0,-0.01 -0.0114,-0.018 -0.0254,-0.035 -0.0139,-0.017 -0.0253,-0.039 -0.0253,-0.049 0,-0.028 -0.0277,-0.051 -0.0612,-0.051 -0.0388,0 -0.0373,-0.011 0.005,-0.034 0.0323,-0.017 0.037,-0.017 0.0942,0 0.0479,0.013 0.0684,0.015 0.0995,0.01 0.0227,-0.01 0.069,-0.01 0.10992,0 0.0647,0.01 0.0741,0.01 0.1097,0.045 0.034,0.034 0.0449,0.039 0.0857,0.039 0.0412,0 0.0499,0 0.0747,0.035 0.0272,0.034 0.0276,0.036 0.012,0.066 -0.0114,0.022 -0.0195,0.028 -0.0281,0.021 -0.007,-0.01 -0.0388,-0.017 -0.0716,-0.025 -0.0592,-0.016 -0.0598,-0.016 -0.089,0.01 -0.032,0.027 -0.0435,0.029 -0.053,0.015 -0.01,-0.016 -0.0436,-0.011 -0.063,0.01 -0.01,0.01 -0.0271,0.03 -0.0385,0.046 l -0.0209,0.029 -0.03,-0.038 z m 0.54452,-0.041 c 0.003,-0.01 0.006,-0.026 0.006,-0.036 0,-0.019 0.003,-0.02 0.0781,-0.013 0.043,0.01 0.0932,0.01 0.11151,0.012 l 0.0334,0.01 -0.0225,0.024 c -0.0207,0.022 -0.0305,0.024 -0.11763,0.024 -0.0825,0 -0.0943,0 -0.0889,-0.016 z m -1.0324,-0.06 c -0.0104,-0.012 -0.01,-0.015 0.003,-0.015 0.009,0 0.0164,0.01 0.0164,0.015 0,0.01 -0.002,0.015 -0.003,0.015 -0.002,0 -0.01,-0.01 -0.0163,-0.015 z m -0.22652,-0.1771 c 0.009,-0.017 0.0146,-0.041 0.0128,-0.053 -0.002,-0.018 -0.0114,-0.023 -0.0552,-0.027 -0.0673,-0.01 -0.11381,-0.042 -0.11413,-0.088 -9e-5,-0.021 -0.005,-0.023 -0.0648,-0.023 -0.0621,0 -0.0668,0 -0.11787,-0.046 l -0.0532,-0.046 h -0.0841 -0.0841 l 0.0156,-0.03 0.0156,-0.03 h -0.0792 c -0.0714,0 -0.0815,0 -0.10284,0.025 -0.014,0.015 -0.0349,0.025 -0.0509,0.025 -0.0177,0 -0.0329,0.01 -0.043,0.024 -0.0104,0.016 -0.0279,0.025 -0.0516,0.028 -0.0318,0 -0.0352,0 -0.0296,-0.015 0.024,-0.076 0.0347,-0.088 0.10099,-0.118 0.0577,-0.026 0.0779,-0.029 0.15881,-0.029 0.051,0 0.14474,0.01 0.20829,0.016 0.0995,0.013 0.12071,0.02 0.15273,0.046 0.0215,0.017 0.0598,0.034 0.0908,0.041 0.0595,0.012 0.13525,0.055 0.19095,0.1074 0.0309,0.029 0.0472,0.035 0.10587,0.043 0.0382,0 0.0726,0.01 0.0766,0.01 0.003,10e-5 0.0143,0.014 0.0229,0.031 0.0126,0.025 0.0221,0.03 0.049,0.03 0.0394,0 0.12401,0.065 0.0972,0.074 -0.0683,0.025 -0.15335,0.036 -0.26135,0.036 h -0.12231 z m -0.70111,-0.1933 c 0,-0.025 0.0248,-0.05 0.0437,-0.042 0.0288,0.01 0.0174,0.049 -0.0159,0.053 -0.0184,0 -0.0277,0 -0.0277,-0.01 z m 0.65675,-0.2908 c -0.0179,-0.015 -0.0226,-0.027 -0.0186,-0.046 0.003,-0.02 -0.002,-0.032 -0.019,-0.046 -0.0182,-0.013 -0.0242,-0.029 -0.0242,-0.059 0,-0.022 0.003,-0.039 0.009,-0.039 0.0156,0 0.0387,0.044 0.0461,0.088 0.003,0.023 0.014,0.047 0.0222,0.051 0.01,0.01 0.0138,0.019 0.0116,0.039 l -0.003,0.03 z m 1.56905,-2.9857 c -0.0355,-0.01 -0.0379,-0.012 -0.0379,-0.049 0,-0.022 0.008,-0.057 0.0163,-0.079 0.0137,-0.034 0.0208,-0.04 0.0454,-0.04 0.0278,0 0.0291,0 0.0291,0.045 0,0.035 0.003,0.044 0.0152,0.04 0.009,-0.01 0.0219,-3e-4 0.03,0.01 0.0129,0.01 0.0108,0.018 -0.016,0.052 -0.017,0.022 -0.034,0.038 -0.0377,0.038 -0.003,0 -0.0236,-0.01 -0.0446,-0.01 z m 0.60744,-0.2576 c -8e-5,-0.03 0.0429,-0.1683 0.0576,-0.1841 0.0121,-0.013 0.0131,-0.01 0.008,0.03 -0.008,0.045 -0.007,0.045 0.0134,0.028 0.0245,-0.022 0.0279,-0.016 0.0382,0.066 0.007,0.05 0.005,0.058 -0.0135,0.067 -0.0283,0.016 -0.042,0.013 -0.042,0 0,-0.01 -0.003,-0.015 -0.009,-0.015 -0.005,0 -0.0146,0.01 -0.0215,0.015 -0.0168,0.02 -0.0303,0.019 -0.0303,-0.01 z m -0.94095,-0.212 -0.0688,-0.038 h 0.0677 c 0.0631,0 0.0714,0 0.12174,0.034 0.0297,0.02 0.054,0.038 0.054,0.041 0,0 -0.0238,0 -0.0528,0 -0.0419,-10e-5 -0.0674,-0.01 -0.12176,-0.038 z m -1.54125,-0.3656 c -0.0427,-0.022 -0.0548,-0.038 -0.0414,-0.052 0.006,-0.01 0.0235,-0.01 0.0465,0.01 0.0286,0.011 0.037,0.021 0.037,0.04 0,0.014 -0.002,0.025 -0.002,0.025 -0.002,-3e-4 -0.0192,-0.01 -0.0397,-0.02 z m -3.92597,-0.9162 c 0.003,-0.053 0.006,-0.1115 0.006,-0.132 0,-0.029 0.005,-0.04 0.0241,-0.048 0.0204,-0.01 0.0275,-0.01 0.0462,0.012 l 0.0221,0.024 -0.0361,0.041 c -0.0318,0.035 -0.0361,0.047 -0.0365,0.095 -1.9e-4,0.029 -0.008,0.065 -0.0157,0.079 -0.0141,0.023 -0.0149,0.018 -0.01,-0.07 z m 4.0578,-0.2 c -0.003,-0.019 0.003,-0.06 0.0109,-0.067 0.003,0 0.0177,0 0.0295,0.01 0.0201,0.01 0.0204,0.013 0.006,0.041 -0.014,0.027 -0.0435,0.041 -0.0464,0.022 z m -0.22323,-0.065 c -0.0305,-0.011 -0.0321,-0.016 -0.0184,-0.053 0.0124,-0.034 0.0847,-0.047 0.10967,-0.023 0.0148,0.015 0.0132,0.019 -0.0182,0.052 -0.0189,0.019 -0.0368,0.035 -0.0399,0.034 -0.003,-1e-4 -0.0181,-0.01 -0.0334,-0.011 z m 1.05246,0 c -0.0702,-0.01 -0.0758,-0.012 -0.10082,-0.049 -0.0253,-0.036 -0.029,-0.039 -0.0838,-0.039 -0.0606,-3e-4 -0.0684,0 -0.10802,-0.061 -0.0133,-0.019 -0.0518,-0.059 -0.0857,-0.088 -0.0549,-0.048 -0.0654,-0.053 -0.0965,-0.049 -0.0192,0 -0.0486,0.016 -0.0652,0.028 -0.0191,0.013 -0.0498,0.024 -0.0835,0.027 l -0.0534,0.01 v -0.072 -0.072 h 0.0919 c 0.0758,0 0.0987,0 0.13107,-0.023 0.0216,-0.012 0.0392,-0.025 0.0392,-0.028 0,-0.01 -0.009,-0.018 -0.0201,-0.033 -0.0272,-0.034 -0.0259,-0.039 0.0184,-0.064 0.0277,-0.016 0.0417,-0.033 0.0501,-0.06 0.0111,-0.036 0.01,-0.041 -0.0279,-0.099 -0.0281,-0.043 -0.0779,-0.093 -0.17032,-0.1691 -0.0719,-0.059 -0.13426,-0.1085 -0.13867,-0.1085 -0.003,0 -0.0277,0.019 -0.0517,0.043 l -0.0436,0.042 -0.0729,-0.039 c -0.07,-0.037 -0.0755,-0.039 -0.1366,-0.032 l -0.0637,0.01 -0.0797,-0.053 c -0.0439,-0.029 -0.0797,-0.058 -0.0797,-0.06 0,0 0.0181,-0.01 0.0403,-0.013 0.0221,0 0.0427,-0.01 0.0454,-0.015 0.01,-0.016 -0.0269,-0.041 -0.0613,-0.041 h -0.0345 l 1.8e-4,-0.053 c 2e-4,-0.047 0.005,-0.059 0.0529,-0.1229 0.0513,-0.068 0.0546,-0.071 0.12078,-0.087 0.0374,-0.01 0.0681,-0.013 0.0681,-0.01 0,0.01 -0.0131,0.019 -0.0291,0.034 -0.0335,0.033 -0.0452,0.083 -0.0295,0.1298 0.0154,0.046 0.0201,0.049 0.0472,0.029 0.0222,-0.017 0.0231,-0.021 0.0115,-0.055 -0.0116,-0.035 -0.0108,-0.04 0.0151,-0.066 0.0215,-0.022 0.0427,-0.032 0.0965,-0.041 0.0614,-0.01 0.17374,-0.01 0.22268,0.01 0.0131,0.01 0.0386,0.051 0.0386,0.071 0,0 -0.0238,0 -0.0529,0 -0.0454,10e-5 -0.0586,0.01 -0.0933,0.034 l -0.0403,0.034 0.026,0.01 c 0.0553,0.021 0.0747,0.019 0.078,-0.01 0.002,-0.021 0.0102,-0.028 0.034,-0.034 0.0679,-0.014 0.0815,-0.01 0.1347,0.051 l 0.0513,0.058 0.0447,-0.01 c 0.0435,-0.01 0.0469,-0.01 0.12038,0.041 0.0416,0.028 0.0951,0.062 0.1188,0.076 0.0346,0.019 0.0502,0.038 0.0786,0.096 l 0.0355,0.071 -0.0334,0.01 c -0.0431,0.011 -0.0425,0.01 -0.0237,0.046 0.0184,0.035 0.101,0.087 0.15569,0.097 0.0935,0.016 0.11026,0.025 0.11711,0.055 l 0.007,0.029 h 0.0754 c 0.0672,0 0.075,0 0.0703,0.017 -0.003,0.01 -0.0128,0.044 -0.0219,0.077 -0.0195,0.069 -0.0598,0.1635 -0.0734,0.1717 -0.005,0 -0.0314,-0.017 -0.0579,-0.046 -0.0522,-0.055 -0.1534,-0.1317 -0.1656,-0.1242 -0.003,0.01 -0.0131,0.018 -0.0199,0.034 -0.0117,0.028 -0.01,0.034 0.0335,0.088 0.0318,0.041 0.0625,0.066 0.0991,0.084 0.0485,0.023 0.0549,0.03 0.076,0.086 0.0291,0.076 0.0288,0.087 -0.002,0.1166 -0.025,0.023 -0.0262,0.024 -0.0529,0.01 -0.0326,-0.021 -0.11905,-0.062 -0.15087,-0.072 -0.0274,-0.01 -0.0283,4e-4 -0.003,0.041 0.0137,0.022 0.0355,0.036 0.0841,0.053 0.055,0.019 0.0683,0.029 0.0823,0.059 0.01,0.019 0.0166,0.037 0.0166,0.041 0,0.01 -0.0283,0 -0.11965,-0.01 z m 1.54386,-0.1054 c -0.0453,-0.052 -0.0531,-0.056 -0.0697,-0.045 -0.0277,0.019 -0.14519,0.076 -0.14837,0.072 -0.0889,-0.1192 -0.0973,-0.1275 -0.13456,-0.1341 -0.0697,-0.012 -0.0734,-0.015 -0.0734,-0.051 0,-0.03 -0.003,-0.034 -0.0429,-0.044 -0.0359,-0.01 -0.0469,-0.018 -0.0679,-0.057 -0.021,-0.039 -0.0231,-0.048 -0.0127,-0.066 0.0164,-0.026 0.0157,-0.045 -0.002,-0.06 -0.0116,-0.01 -0.0178,-0.01 -0.0322,0.016 -0.01,0.015 -0.019,0.029 -0.0203,0.032 -0.006,0.01 -0.12187,-0.099 -0.1722,-0.16 -0.0466,-0.056 -0.0534,-0.07 -0.0485,-0.096 0.005,-0.028 0.002,-0.033 -0.0303,-0.048 -0.0329,-0.015 -0.0357,-0.021 -0.0328,-0.054 0.003,-0.036 0.003,-0.038 0.0405,-0.034 0.0334,0 0.0382,3e-4 0.0441,-0.024 0.005,-0.018 -5e-5,-0.041 -0.0148,-0.072 -0.014,-0.028 -0.0216,-0.064 -0.0216,-0.1 v -0.055 h -0.0762 c -0.0482,0 -0.0739,0 -0.07,0.01 0.003,0.01 0.012,0.01 0.0189,0.01 0.007,0 0.0213,0.01 0.0322,0.013 0.0191,0.014 0.0191,0.015 2.4e-4,0.035 -0.0226,0.025 -0.0416,0.026 -0.0892,0.01 -0.0449,-0.018 -0.07,-0.075 -0.0374,-0.083 0.024,-0.01 0.0253,-0.016 0.005,-0.034 -0.0288,-0.024 -0.0148,-0.03 0.0664,-0.03 0.0452,0 0.08,-0.01 0.0781,-0.01 -0.002,-0.01 -0.0323,-0.032 -0.0676,-0.06 -0.0526,-0.042 -0.0715,-0.052 -0.10386,-0.052 -0.0357,0 -0.041,0 -0.0543,0.035 -0.0171,0.041 -0.0172,0.041 -0.0501,0.019 -0.0204,-0.013 -0.025,-0.025 -0.0253,-0.063 -2.4e-4,-0.081 -0.0178,-0.1307 -0.068,-0.1941 -0.0325,-0.041 -0.0682,-0.072 -0.11209,-0.097 -0.0354,-0.02 -0.0841,-0.056 -0.10812,-0.08 l -0.0437,-0.044 h -0.0885 c -0.0763,10e-5 -0.094,0 -0.12882,0.025 -0.0271,0.017 -0.0554,0.025 -0.0864,0.025 -0.0434,3e-4 -0.0474,0 -0.0689,-0.041 -0.0129,-0.023 -0.0387,-0.049 -0.0597,-0.06 l -0.037,-0.019 0.0663,-3e-4 c 0.0557,0 0.0697,0 0.0879,-0.023 0.0146,-0.016 0.0196,-0.03 0.0156,-0.046 -0.006,-0.022 -0.008,-0.022 -0.0303,-0.01 -0.0331,0.022 -0.10849,0.01 -0.15291,-0.023 l -0.0335,-0.025 0.0388,-0.041 c 0.068,-0.071 0.13526,-0.1198 0.1559,-0.1132 0.0218,0.01 0.0232,-3e-4 0.008,-0.044 -0.01,-0.028 -0.0149,-0.03 -0.0473,-0.029 -0.031,0 -0.0378,0 -0.0461,-0.025 -0.009,-0.023 -0.003,-0.034 0.0348,-0.078 0.0291,-0.034 0.0522,-0.052 0.0672,-0.052 0.0187,0 0.0219,0 0.0172,-0.023 -0.003,-0.017 0.005,-0.034 0.0435,-0.071 0.0431,-0.042 0.0508,-0.047 0.0622,-0.034 0.0165,0.019 0.0352,0.019 0.0662,0 l 0.0247,-0.016 -0.0225,-0.019 -0.0225,-0.019 0.0387,-3e-4 0.0387,-3e-4 -0.007,-0.047 c -0.007,-0.047 -0.006,-0.049 0.0268,-0.063 0.0204,-0.01 0.032,-0.021 0.0296,-0.029 -0.002,-0.01 -0.006,-0.023 -0.009,-0.032 -0.003,-0.013 0.0112,-0.025 0.0631,-0.047 0.0374,-0.017 0.0813,-0.03 0.0975,-0.03 0.0256,0 0.0286,0 0.0226,0.022 l -0.007,0.022 0.0305,-0.022 c 0.0231,-0.017 0.0453,-0.022 0.093,-0.022 h 0.0625 l -0.007,0.027 c -0.003,0.015 -0.0234,0.042 -0.0439,0.06 l -0.0375,0.033 h 0.0335 c 0.0184,1e-4 0.0426,0 0.0535,-0.01 0.0147,-0.01 0.024,-0.01 0.0347,0 0.0122,0.01 0.0134,0.01 0.008,-0.021 l -0.007,-0.034 0.0356,0.021 c 0.0466,0.029 0.0548,0.028 0.0735,-0.01 0.0121,-0.023 0.0132,-0.034 0.003,-0.052 -0.01,-0.017 -0.008,-0.025 0.0112,-0.045 l 0.0225,-0.024 0.0439,0.032 c 0.0465,0.034 0.0499,0.043 0.0341,0.098 -0.0124,0.043 -0.009,0.047 0.024,0.026 0.0371,-0.025 0.0598,-0.014 0.0513,0.025 -0.006,0.027 -0.003,0.032 0.0236,0.041 0.0184,0.01 0.0613,0.046 0.10777,0.1003 l 0.0773,0.09 0.0343,-0.015 c 0.0327,-0.014 0.0351,-0.014 0.0504,0.01 l 0.016,0.025 0.0365,-0.019 c 0.0338,-0.017 0.0389,-0.017 0.0697,0 0.0182,0.01 0.0331,0.019 0.0331,0.022 0,0 -0.0181,0.02 -0.04,0.035 -0.0221,0.016 -0.0402,0.033 -0.0403,0.036 -10e-5,0 0.011,0.014 0.0247,0.023 0.0229,0.016 0.0277,0.016 0.0615,0 0.0348,-0.017 0.0373,-0.017 0.0493,0 0.009,0.011 0.0263,0.017 0.0505,0.017 h 0.0378 l -0.003,0.045 c -0.003,0.042 -0.002,0.046 0.0246,0.052 0.0155,0 0.0509,0 0.0789,0 l 0.0507,-0.01 -0.021,0.041 c -0.0115,0.023 -0.021,0.045 -0.021,0.049 0,0.01 0.0206,0.01 0.0456,0.01 l 0.0456,-0.01 -0.006,0.044 c -0.0103,0.072 -0.0102,0.072 -0.0606,0.067 l -0.0457,-0.01 0.003,0.046 0.003,0.047 0.0492,0.01 c 0.0488,0.01 0.0492,0.01 0.0641,-0.029 0.0187,-0.046 0.0158,-0.043 0.0472,-0.035 0.0174,0 0.0338,0.02 0.0462,0.045 0.0169,0.034 0.0291,0.041 0.0961,0.066 0.0555,0.02 0.0834,0.036 0.1012,0.06 0.0135,0.017 0.0244,0.036 0.0244,0.042 0,0.02 -0.0737,0.03 -0.11835,0.017 -0.0943,-0.028 -0.0943,-0.028 -0.0822,0 0.006,0.013 0.0262,0.032 0.045,0.041 0.0294,0.015 0.0329,0.019 0.0257,0.039 -0.005,0.012 -0.0116,0.036 -0.0157,0.054 l -0.008,0.031 0.0436,-0.042 c 0.0377,-0.036 0.0514,-0.043 0.10151,-0.05 l 0.0579,-0.01 -1.9e-4,0.079 -1.8e-4,0.079 -0.0854,0.1302 c -0.047,0.072 -0.088,0.1444 -0.0912,0.1618 -0.003,0.02 0.002,0.052 0.015,0.087 0.018,0.047 0.0195,0.062 0.0105,0.106 -0.01,0.049 -0.0132,0.053 -0.0656,0.078 -0.0435,0.021 -0.0551,0.032 -0.0551,0.051 0,0.015 -0.009,0.028 -0.0253,0.035 -0.0172,0.01 -0.0253,0.019 -0.0253,0.037 0,0.015 -0.005,0.034 -0.0111,0.043 -0.01,0.015 -0.002,0.03 0.0403,0.093 0.056,0.081 0.0612,0.1065 0.0351,0.172 -0.0146,0.036 -0.0148,0.043 -0.002,0.059 0.0272,0.029 0.0873,0.1939 0.0856,0.2327 -0.002,0.02 0.002,0.044 0.006,0.053 0.006,0.012 -0.002,0.022 -0.027,0.038 -0.019,0.011 -0.039,0.021 -0.0444,0.021 -0.005,0 -0.0328,-0.026 -0.061,-0.059 z m -2.73496,-0.053 c 0,-0.041 -3e-4,-0.041 -0.0378,-0.041 l -0.0378,-3e-4 0.0234,-0.019 c 0.0163,-0.014 0.031,-0.048 0.0484,-0.1131 0.0138,-0.052 0.029,-0.097 0.0334,-0.102 0.005,-0.01 0.0192,-0.01 0.0323,-0.01 0.0172,0 0.0247,0.01 0.0269,0.029 0.002,0.022 0.008,0.025 0.0265,0.022 0.0174,0 0.0289,0.01 0.0449,0.026 0.0123,0.017 0.0415,0.038 0.0676,0.047 0.0465,0.017 0.0482,0.022 0.0295,0.067 -0.006,0.016 -0.002,0.018 0.0375,0.018 0.0247,0 0.0477,0 0.051,0.01 0.003,0.01 -0.002,0.019 -0.01,0.036 -0.0136,0.026 -0.0195,0.029 -0.0462,0.024 -0.0168,0 -0.0369,-0.01 -0.0446,-0.01 -0.008,0 -0.0139,-0.01 -0.0139,-0.02 0,-0.03 -0.0576,-0.027 -0.10139,0.01 -0.0292,0.022 -0.11236,0.064 -0.1263,0.064 -0.002,0 -0.003,-0.018 -0.003,-0.041 z m 0.55529,-0.4835 -0.0429,-0.028 0.0478,-0.034 c 0.0536,-0.037 0.0674,-0.034 0.0984,0.019 l 0.0184,0.03 -0.0392,0.02 -0.0392,0.02 z m -1.38711,-0.3131 c -0.0741,-0.015 -0.0958,-0.028 -0.0958,-0.054 0,-0.035 -0.0139,-0.039 -0.0683,-0.023 -0.0262,0.01 -0.082,0.018 -0.12386,0.021 -0.0697,0.01 -0.0816,0.01 -0.13881,-0.024 l -0.0627,-0.028 0.007,-0.041 c 0.007,-0.039 0.006,-0.041 -0.0452,-0.066 -0.0502,-0.025 -0.0516,-0.028 -0.0516,-0.07 0,-0.041 0.002,-0.044 0.0316,-0.051 0.0551,-0.01 0.0729,-0.01 0.13285,0.028 0.0928,0.055 0.13929,0.044 0.0789,-0.021 -0.0206,-0.022 -0.0509,-0.037 -0.10461,-0.053 -0.0595,-0.017 -0.077,-0.027 -0.0815,-0.044 -0.009,-0.034 -2.9e-4,-0.039 0.0569,-0.041 0.0288,0 0.0444,0 0.0345,-0.01 -0.01,0 -0.0291,-0.021 -0.0428,-0.041 l -0.025,-0.036 0.0579,-0.054 0.0579,-0.053 -0.0554,0.029 c -0.0305,0.016 -0.0804,0.043 -0.11091,0.06 -0.051,0.028 -0.0585,0.029 -0.0951,0.019 l -0.0397,-0.011 -0.002,-0.072 -0.002,-0.072 0.10668,-0.058 c 0.0944,-0.051 0.10844,-0.062 0.12192,-0.096 0.0169,-0.043 0.0237,-0.045 0.10798,-0.025 0.0471,0.011 0.0507,0.015 0.0553,0.046 0.003,0.029 0.01,0.035 0.0303,0.038 0.0701,0.01 0.0697,0.01 0.0633,0.069 -0.005,0.047 -0.003,0.06 0.0122,0.07 0.0169,0.012 0.0171,0.016 0.002,0.038 -0.0203,0.03 -0.0208,0.037 -0.002,0.029 0.008,-0.01 0.0309,0.01 0.0507,0.021 0.0343,0.026 0.0352,0.029 0.0191,0.047 -0.0196,0.022 -0.0179,0.025 0.0168,0.034 0.0222,0.01 0.0279,0 0.0435,-0.03 l 0.0179,-0.038 0.0194,0.029 c 0.0236,0.035 0.0242,0.052 0.003,0.1 -0.0168,0.041 -0.0136,0.066 0.009,0.066 0.008,0 0.0213,-0.025 0.0316,-0.059 0.0318,-0.1028 0.046,-0.1258 0.0729,-0.119 0.019,0 0.0236,0 0.0236,-0.013 0,-0.012 0.0122,-0.027 0.0315,-0.036 0.031,-0.016 0.0322,-0.016 0.0551,0.012 0.0297,0.036 0.0297,0.045 -7e-5,0.072 -0.0204,0.019 -0.0276,0.021 -0.0462,0.01 -0.0288,-0.015 -0.032,-0.01 -0.0202,0.029 0.008,0.028 0.003,0.052 -0.0209,0.1331 -0.0168,0.054 -0.0272,0.1047 -0.0234,0.1116 0.003,0.01 0.0247,0.034 0.046,0.059 0.034,0.041 0.0375,0.05 0.0285,0.073 -0.0104,0.028 -0.0155,0.028 -0.0699,0.01 -0.0108,-0.01 -0.0123,0 -0.006,0.013 0.005,0.01 0.009,0.03 0.01,0.045 0.002,0.022 -0.003,0.025 -0.0293,0.027 -0.0166,0.01 -0.0484,0 -0.0706,-0.01 z m -3.52899,-0.1309 c -0.0166,-0.011 -0.0303,-0.026 -0.0303,-0.032 0,-0.016 0.0441,-0.047 0.0781,-0.054 0.0235,-0.01 0.0278,0 0.0278,0.015 0,0.015 0.007,0.021 0.0228,0.022 0.0124,10e-5 0.0305,0.01 0.04,0.013 0.0156,0.012 0.0158,0.015 0.002,0.034 -0.0206,0.029 -0.097,0.03 -0.14021,0 z m 0.15628,-0.07 c 0,-0.017 0.007,-0.021 0.031,-0.021 0.0241,0 0.0303,0 0.0277,0.017 -0.002,0.01 -0.0143,0.019 -0.031,0.021 -0.0222,0 -0.0277,0 -0.0277,-0.018 z m 3.72891,-0.039 c -0.0105,0 -0.0192,-0.018 -0.0235,-0.043 -0.003,-0.022 -0.0221,-0.059 -0.041,-0.082 -0.0365,-0.046 -0.042,-0.067 -0.0226,-0.087 0.01,-0.01 0.0184,-0.01 0.04,0.015 0.0231,0.022 0.0305,0.025 0.0435,0.015 0.0197,-0.016 0.0201,-0.047 2.4e-4,-0.054 -0.0449,-0.017 0.0327,-0.057 0.11157,-0.057 0.0482,0 0.0566,0 0.0641,0.023 0.007,0.017 0.003,0.029 -0.0134,0.047 -0.0493,0.056 -0.0501,0.059 -0.0314,0.087 0.0164,0.025 0.0164,0.028 -2.4e-4,0.065 -0.0152,0.034 -0.0222,0.039 -0.0502,0.039 -0.0198,0 -0.0379,0.01 -0.0464,0.018 -0.008,0.01 -0.0215,0.016 -0.0307,0.015 z m 0.21888,-0.063 c -0.0369,-0.041 0.007,-0.1738 0.0681,-0.2067 0.0359,-0.019 0.0368,-0.019 0.0578,-3e-4 0.0116,0.01 0.0422,0.022 0.0679,0.025 0.0255,0 0.048,0.01 0.0499,0.016 0.002,0.01 -0.0201,0.036 -0.0489,0.069 -0.0513,0.058 -0.0532,0.059 -0.0965,0.053 -0.0331,0 -0.0429,0 -0.0392,0.01 0.003,0.01 -0.005,0.023 -0.0179,0.034 -0.0228,0.021 -0.0228,0.021 -0.0409,0 z m -5.04009,-0.1584 c -0.0134,-0.013 -0.006,-0.024 0.0168,-0.024 0.0154,0 0.0277,-0.01 0.0351,-0.025 0.007,-0.014 0.0159,-0.025 0.0212,-0.025 0.0198,0 0.0216,0.02 0.003,0.051 -0.0172,0.029 -0.0592,0.042 -0.0773,0.024 z m 5.43295,-0.071 c -0.0222,0 -0.0458,-0.011 -0.0525,-0.02 -0.0103,-0.013 -0.0168,-0.013 -0.0424,0 -0.0265,0.01 -0.0347,0.01 -0.0659,-0.01 -0.0196,-0.011 -0.0357,-0.023 -0.0357,-0.025 0,0 0.007,-0.019 0.015,-0.04 0.0168,-0.041 0.0206,-0.1332 0.005,-0.1426 -0.005,0 -0.0185,0 -0.0293,0.01 -0.0168,0.01 -0.0231,0.01 -0.0457,-0.017 -0.0143,-0.016 -0.025,-0.038 -0.0238,-0.05 0.002,-0.017 0.0112,-0.021 0.0507,-0.023 0.0455,0 0.0488,0 0.0587,0.027 0.008,0.023 0.0175,0.031 0.0406,0.034 0.0414,0 0.0697,0.049 0.0505,0.08 -0.012,0.019 -0.01,0.025 0.0197,0.055 0.0417,0.043 0.0877,0.045 0.17106,0.01 l 0.0588,-0.027 0.0517,0.019 c 0.0615,0.022 0.0786,0.046 0.056,0.078 -0.0416,0.06 -0.0372,0.058 -0.14333,0.055 -0.0548,0 -0.11788,-0.01 -0.14005,-0.01 z m -5.51924,-0.01 c -0.0209,-0.01 0.0484,-0.034 0.0716,-0.027 0.0151,0 0.0167,0.01 0.008,0.021 -0.0117,0.014 -0.0519,0.017 -0.0789,0.01 z m 5.18254,-0.062 -0.0204,-0.029 0.0285,-0.028 c 0.0522,-0.05 0.10157,-0.013 0.0785,0.058 -0.0126,0.039 -0.0584,0.038 -0.0865,-0.01 z m -0.13179,-0.053 c -0.0342,-0.013 -0.034,-0.012 -0.01,-0.053 l 0.0216,-0.036 h -0.0404 c -0.0387,0 -0.0411,0 -0.058,-0.046 -0.0172,-0.045 -0.0172,-0.046 0.003,-0.067 l 0.0209,-0.022 0.008,0.04 c 0.01,0.054 0.0135,0.059 0.0346,0.033 l 0.0185,-0.023 0.0209,0.025 0.021,0.025 0.007,-0.023 c 0.007,-0.025 0.0329,-0.029 0.0652,-0.012 0.0277,0.015 0.0242,0.035 -0.0103,0.059 -0.0178,0.012 -0.0274,0.027 -0.0242,0.035 0.005,0.014 -0.0316,0.077 -0.0449,0.075 -0.003,-3e-4 -0.0181,-0.01 -0.0316,-0.01 z m -0.30005,-0.074 c -0.041,-0.025 -0.0437,-0.025 -0.0746,-0.01 -0.041,0.021 -0.14858,0.012 -0.18268,-0.016 l -0.0229,-0.019 0.0278,-0.01 c 0.0152,0 0.0394,-0.01 0.0537,-0.011 0.0222,0 0.0242,-0.01 0.0131,-0.021 -0.01,-0.011 -0.024,-0.013 -0.052,-0.01 -0.0353,0 -0.0407,0 -0.0584,-0.027 -0.0275,-0.045 -0.0253,-0.048 0.0254,-0.041 0.0444,0.01 0.0449,0.01 0.0534,-0.028 0.008,-0.028 0.0152,-0.035 0.046,-0.043 0.0323,-0.01 0.0404,-0.01 0.0624,0.015 0.0182,0.017 0.0253,0.034 0.0253,0.061 0,0.044 0.0367,0.081 0.0709,0.072 0.0277,-0.01 0.0308,-0.016 0.0206,-0.051 -0.008,-0.026 -0.005,-0.034 0.0146,-0.053 0.0165,-0.015 0.0299,-0.02 0.0454,-0.015 0.0192,0.01 0.021,0.011 0.0148,0.044 -0.0116,0.06 -0.0108,0.065 0.0104,0.07 0.0379,0.01 0.0377,0.021 -0.002,0.067 -0.0212,0.025 -0.041,0.046 -0.0441,0.046 -0.003,0 -0.0246,-0.011 -0.048,-0.025 z m 1.01762,-0.01 c -0.0111,-0.019 -0.0225,-0.029 -0.0323,-0.025 -0.061,0.023 -0.0995,0.027 -0.16664,0.015 -0.0949,-0.016 -0.10374,-0.022 -0.0819,-0.055 0.0137,-0.021 0.0253,-0.027 0.0572,-0.027 0.0453,0 0.0456,-4e-4 0.0253,-0.041 -0.0133,-0.026 -0.0132,-0.029 0.002,-0.034 0.0296,-0.011 0.0532,-0.01 0.0681,0.015 0.0215,0.03 0.0366,0.015 0.0366,-0.038 0,-0.039 -0.002,-0.045 -0.0177,-0.039 -0.0487,0.019 -0.0702,0.017 -0.076,0 -0.005,-0.021 -0.007,-0.021 -0.0443,-0.01 -0.0212,0.01 -0.0435,0.019 -0.0496,0.021 -0.0103,0 -0.0849,-0.081 -0.0849,-0.098 0,0 0.0114,-0.01 0.0254,-0.015 0.0338,-0.01 0.0316,-0.017 -0.0109,-0.044 -0.0406,-0.027 -0.0404,-0.028 0.0107,-0.1079 0.0229,-0.035 0.0485,-0.062 0.0723,-0.072 0.0353,-0.017 0.0372,-0.017 0.048,0 0.0334,0.058 0.0737,0.1118 0.089,0.121 0.0135,0.01 0.0208,0.01 0.0325,-0.01 0.023,-0.03 0.0189,-0.042 -0.0191,-0.054 -0.0308,-0.01 -0.0355,-0.017 -0.0413,-0.055 -0.0107,-0.071 -0.006,-0.078 0.071,-0.1038 0.0579,-0.02 0.0761,-0.022 0.10153,-0.014 0.042,0.015 0.0403,0.015 0.0644,-0.024 0.0198,-0.032 0.0287,-0.036 0.11906,-0.056 l 0.0977,-0.022 0.0835,0.028 c 0.0458,0.016 0.0834,0.029 0.0834,0.034 0,0.01 -0.0227,0.032 -0.0504,0.064 -0.0277,0.033 -0.0504,0.061 -0.0504,0.065 0,0 0.0159,0 0.0353,10e-5 0.0194,-0.01 0.0353,-0.01 0.0353,0 0,0.01 -0.0218,0.035 -0.0485,0.069 -0.0266,0.034 -0.0672,0.09 -0.0902,0.1235 -0.0365,0.053 -0.0476,0.063 -0.0877,0.072 -0.0254,0.01 -0.0458,0.014 -0.0458,0.017 0,0 0.01,0.023 0.0207,0.046 l 0.0205,0.04 -0.0201,0.033 c -0.0111,0.018 -0.0385,0.042 -0.061,0.055 -0.0225,0.012 -0.0409,0.027 -0.0409,0.03 0,0 0.01,0.021 0.0219,0.035 l 0.0219,0.028 -0.0345,0.028 c -0.0445,0.036 -0.0666,0.036 -0.088,0 z m -0.44169,-0.1664 c -0.0179,-0.014 -0.0177,-0.015 0.009,-0.015 0.0152,-2e-4 0.0278,0 0.0278,0.01 0,0.017 -0.0171,0.02 -0.0362,0.01 z m -0.0469,-0.062 c -0.0242,-0.01 -0.0256,-0.099 -0.002,-0.108 0.0264,-0.01 0.0308,-0.01 0.0584,0.034 0.0375,0.056 0.0356,0.081 -0.006,0.079 -0.018,0 -0.0408,0 -0.0504,-0.01 z m -0.91576,-0.045 c -0.0277,-0.039 -0.0271,-0.039 0.10636,-0.081 0.0921,-0.028 0.10442,-0.03 0.14619,-0.019 0.0683,0.018 0.0707,0.026 0.0227,0.073 l -0.0425,0.042 -0.0159,-0.023 -0.016,-0.023 -0.0348,0.022 c -0.0235,0.015 -0.0431,0.019 -0.0602,0.015 -0.0156,0 -0.0338,-2e-4 -0.0473,0.01 -0.0299,0.021 -0.033,0.02 -0.0586,-0.016 z m 0.79158,-0.01 c -0.006,-0.03 -0.0103,-0.035 -0.0368,-0.035 -0.0247,0 -0.0289,-0.01 -0.0228,-0.018 0.003,-0.01 0.01,-0.039 0.0124,-0.065 0.003,-0.027 0.009,-0.047 0.0131,-0.047 0.003,0 0.0146,0 0.0226,-0.01 0.0104,0 0.0166,0 0.0212,0.028 0.003,0.018 0.0177,0.05 0.0311,0.07 0.0211,0.033 0.023,0.042 0.0145,0.073 -0.0138,0.05 -0.0458,0.051 -0.0551,0 z m -4.09798,-0.01 c 0,-0.038 0.0136,-0.045 0.0447,-0.022 0.0151,0.011 0.0163,0.017 0.007,0.035 -0.007,0.011 -0.0206,0.022 -0.0316,0.022 -0.0159,0 -0.0198,-0.01 -0.0198,-0.035 z m 3.75079,-0.01 c -0.0196,-0.01 -0.0253,-0.013 -0.0253,-0.036 v -0.029 h 0.0553 c 0.0305,0 0.0571,0.01 0.0592,0.01 0.008,0.01 -0.0404,0.065 -0.0522,0.064 -0.007,0 -0.0233,0 -0.037,-0.01 z m -3.30211,-0.346 c -0.0111,-0.01 -0.0218,-0.012 -0.0238,-0.014 -0.002,0 0.006,-0.016 0.0177,-0.034 0.0116,-0.016 0.0212,-0.044 0.0212,-0.06 0,-0.02 0.007,-0.034 0.019,-0.041 0.0171,-0.01 0.0191,-0.01 0.0197,0.033 0.002,0.041 -0.014,0.1054 -0.0274,0.1202 -0.003,0 -0.0154,0 -0.0265,-0.01 z"
           id="path15156-4-6-5-5-3-4-4-5-7" />
        <g
           id="g2333-8-4"
           style="fill:#ffffff"
           transform="rotate(-135.96164,-961.67415,2022.9284)">
          <path
             sodipodi:type="star"
             style="fill:#ffffff;stroke:none;stroke-width:15;stroke-miterlimit:4;stroke-dasharray:none;stop-color:#000000"
             inkscape:flatsided="false"
             sodipodi:sides="5"
             sodipodi:cx="-1298.2988"
             sodipodi:cy="989.91431"
             sodipodi:r1="23.642813"
             sodipodi:r2="11.821406"
             sodipodi:arg1="-1.5707963"
             sodipodi:arg2="-0.9424778"
             inkscape:rounded="-3.46945e-18"
             inkscape:randomized="0"
             transform="matrix(0.05238354,0,0,0.05238354,-907.04019,1954.3268)"
             inkscape:transform-center-x="-1.199773e-05"
             inkscape:transform-center-y="-0.16662822"
             id="path15164-2-0-4-8-3-47-3-8-7"
             d="m -1298.2988,966.27149 6.9484,14.0791 15.5372,2.25769 -11.2428,10.95904 2.6541,15.47438 -13.8969,-7.306 -13.8969,7.306 2.654,-15.47438 -11.2428,-10.95904 15.5372,-2.25769 z" />
          <path
             sodipodi:type="star"
             style="fill:#ffffff;stroke:none;stroke-width:15;stroke-miterlimit:4;stroke-dasharray:none;stop-color:#000000"
             inkscape:flatsided="false"
             sodipodi:sides="5"
             sodipodi:cx="-1298.2988"
             sodipodi:cy="989.91431"
             sodipodi:r1="23.642813"
             sodipodi:r2="11.821406"
             sodipodi:arg1="-1.5707963"
             sodipodi:arg2="-0.9424778"
             inkscape:rounded="-3.46945e-18"
             inkscape:randomized="0"
             transform="matrix(0.05238354,0,0,0.05238354,-903.33602,1954.3268)"
             inkscape:transform-center-x="-1.199773e-05"
             inkscape:transform-center-y="-0.16662822"
             id="path2272-2-7"
             d="m -1298.2988,966.27149 6.9484,14.0791 15.5372,2.25769 -11.2428,10.95904 2.6541,15.47438 -13.8969,-7.306 -13.8969,7.306 2.654,-15.47438 -11.2428,-10.95904 15.5372,-2.25769 z" />
          <path
             sodipodi:type="star"
             style="fill:#ffffff;stroke:none;stroke-width:15;stroke-miterlimit:4;stroke-dasharray:none;stop-color:#000000"
             inkscape:flatsided="false"
             sodipodi:sides="5"
             sodipodi:cx="-1298.2988"
             sodipodi:cy="989.91431"
             sodipodi:r1="23.642813"
             sodipodi:r2="11.821406"
             sodipodi:arg1="-1.5707963"
             sodipodi:arg2="-0.9424778"
             inkscape:rounded="-3.46945e-18"
             inkscape:randomized="0"
             transform="matrix(0.05238354,0,0,0.05238354,-899.63186,1954.3268)"
             inkscape:transform-center-x="-1.199773e-05"
             inkscape:transform-center-y="-0.16662822"
             id="path2274-6-6"
             d="m -1298.2988,966.27149 6.9484,14.0791 15.5372,2.25769 -11.2428,10.95904 2.6541,15.47438 -13.8969,-7.306 -13.8969,7.306 2.654,-15.47438 -11.2428,-10.95904 15.5372,-2.25769 z" />
          <path
             sodipodi:type="star"
             style="fill:#ffffff;stroke:none;stroke-width:15;stroke-miterlimit:4;stroke-dasharray:none;stop-color:#000000"
             inkscape:flatsided="false"
             sodipodi:sides="5"
             sodipodi:cx="-1298.2988"
             sodipodi:cy="989.91431"
             sodipodi:r1="23.642813"
             sodipodi:r2="11.821406"
             sodipodi:arg1="-1.5707963"
             sodipodi:arg2="-0.9424778"
             inkscape:rounded="-3.46945e-18"
             inkscape:randomized="0"
             transform="matrix(0.05238354,0,0,0.05238354,-895.92769,1954.3268)"
             inkscape:transform-center-x="-1.199773e-05"
             inkscape:transform-center-y="-0.16662822"
             id="path2276-8-8"
             d="m -1298.2988,966.27149 6.9484,14.0791 15.5372,2.25769 -11.2428,10.95904 2.6541,15.47438 -13.8969,-7.306 -13.8969,7.306 2.654,-15.47438 -11.2428,-10.95904 15.5372,-2.25769 z" />
          <path
             sodipodi:type="star"
             style="fill:#ffffff;stroke:none;stroke-width:15;stroke-miterlimit:4;stroke-dasharray:none;stop-color:#000000"
             inkscape:flatsided="false"
             sodipodi:sides="5"
             sodipodi:cx="-1298.2988"
             sodipodi:cy="989.91431"
             sodipodi:r1="23.642813"
             sodipodi:r2="11.821406"
             sodipodi:arg1="-1.5707963"
             sodipodi:arg2="-0.9424778"
             inkscape:rounded="-3.46945e-18"
             inkscape:randomized="0"
             transform="matrix(0.05238354,0,0,0.05238354,-892.22352,1954.3268)"
             inkscape:transform-center-x="-1.199773e-05"
             inkscape:transform-center-y="-0.16662822"
             id="path2326-7-3"
             d="m -1298.2988,966.27149 6.9484,14.0791 15.5372,2.25769 -11.2428,10.95904 2.6541,15.47438 -13.8969,-7.306 -13.8969,7.306 2.654,-15.47438 -11.2428,-10.95904 15.5372,-2.25769 z" />
        </g>
      </g>
    </g>
  </g>
</svg>
