<?xml version="1.0" encoding="UTF-8" standalone="no"?>
<!-- Created with Inkscape (http://www.inkscape.org/) -->

<svg
   width="317.5mm"
   height="99.648209mm"
   viewBox="0 0 317.5 99.648209"
   version="1.1"
   id="svg5"
   inkscape:version="1.1 (c68e22c387, 2021-05-23)"
   sodipodi:docname="noamlogowhite.svg"
   xmlns:inkscape="http://www.inkscape.org/namespaces/inkscape"
   xmlns:sodipodi="http://sodipodi.sourceforge.net/DTD/sodipodi-0.dtd"
   xmlns="http://www.w3.org/2000/svg"
   xmlns:svg="http://www.w3.org/2000/svg">
  <sodipodi:namedview
     id="namedview7"
     pagecolor="#ffffff"
     bordercolor="#666666"
     borderopacity="1.0"
     inkscape:pageshadow="2"
     inkscape:pageopacity="0.0"
     inkscape:pagecheckerboard="0"
     inkscape:document-units="mm"
     showgrid="false"
     fit-margin-top="0"
     fit-margin-left="0"
     fit-margin-right="0"
     fit-margin-bottom="0"
     inkscape:zoom="0.76435185"
     inkscape:cx="786.94125"
     inkscape:cy="444.16717"
     inkscape:window-width="1920"
     inkscape:window-height="1017"
     inkscape:window-x="1358"
     inkscape:window-y="-8"
     inkscape:window-maximized="1"
     inkscape:current-layer="layer1" />
  <defs
     id="defs2" />
  <g
     inkscape:label="Layer 1"
     inkscape:groupmode="layer"
     id="layer1"
     transform="translate(134.39125,-31.295497)">
    <path
       id="path13366-1-9-3-7-5-0"
       style="font-size:22.0376px;line-height:1.25;font-family:'Fugaz One';-inkscape-font-specification:'Fugaz One';letter-spacing:0px;word-spacing:0px;fill:#ffffff;stroke-width:1.38688"
       d="m -90.983228,31.299052 c -14.328842,0 -28.657692,0.435521 -33.366492,1.30719 -4.82201,0.890967 -6.97,1.729263 -7.29732,2.843948 -3.06042,10.429644 -3.71081,36.761752 -1.18888,48.135663 4.92742,22.225627 15.55424,36.594327 33.329905,45.064377 v 0 c 6.992647,3.33263 10.230591,3.1241 19.108289,-1.22303 9.841263,-4.82047 19.815878,-15.10081 24.916508,-25.68304 6.207929,-12.880362 7.935381,-23.014457 7.317598,-42.91227 -0.275205,-8.862509 -0.982796,-18.106193 -1.573198,-20.541166 l -1.072394,-4.428084 -6.813171,-1.2603 c -4.704474,-0.872365 -19.032137,-1.307886 -33.360845,-1.306841 z m -0.02508,4.413384 c 13.059978,0 26.119817,0.397061 30.40772,1.19223 l 6.208627,1.149312 0.977709,4.034436 c 0.538148,2.219686 1.183939,10.646047 1.434759,18.724186 0.487984,15.719991 -0.634922,24.752918 -4.626441,34.526251 L -117.00265,36.409645 c 6.06949,-0.461648 16.02516,-0.697209 25.99434,-0.697209 z m 120.261753,1.088558 c -10.130333,0 -16.04118,4.831625 -17.735537,14.493064 L 9.6242858,62.108502 c -0.2881641,1.550345 -0.4332216,2.973748 -0.4332216,4.271322 0,2.920797 0.7041766,5.210224 2.1101608,6.868631 2.054911,2.415255 5.695142,3.622674 10.922436,3.622674 5.227363,0 9.283816,-1.207419 12.167826,-3.622674 2.884009,-2.415186 4.759027,-6.128364 5.624216,-11.139953 l 1.891738,-10.814444 c 0.252283,-1.370172 0.378738,-2.650189 0.378738,-3.839633 0,-7.10252 -4.344547,-10.653431 -13.032736,-10.653431 z m -51.85755,0.378459 -6.867795,38.934548 h 9.786292 l 3.677994,-21.306445 6.8130317,21.306445 H 0.59358863 L 7.4066207,37.179453 H -2.3268596 L -5.8408449,57.080471 -12.546512,37.179453 Z m 77.760756,0 -13.897507,38.934548 H 51.58818 l 2.649144,-8.490459 h 9.030698 l -0.324115,8.490459 h 10.274275 l -0.21668,-38.934548 z m 30.06549,0 -6.867655,38.934548 h 9.73348 l 3.894465,-21.954326 3.676043,13.085477 h 7.084336 l 8.32805,-13.085477 -3.89272,21.954326 h 9.78629 l 6.86765,-38.934548 H 113.61243 L 101.17525,55.834942 95.38898,37.179453 Z m -147.851025,4.122293 -0.07211,0.07448 c -0.06131,0.0641 -0.06828,0.09099 -0.03693,0.147983 0.03205,0.05644 0.02857,0.09455 -0.01184,0.169025 -0.06131,0.126873 -0.08751,0.130426 -0.240369,0.03902 l -0.116979,-0.07448 0.02508,0.112311 c 0.0216,0.101652 0.01393,0.101652 -0.02508,0.06758 -0.03553,-0.03902 -0.06619,-0.03902 -0.114681,0 -0.03693,0.03902 -0.11468,0.03902 -0.174738,0.03902 h -0.108758 l 0.121857,-0.108759 c 0.06758,-0.05643 0.133283,-0.147983 0.143803,-0.197311 l 0.02508,-0.09099 h -0.205672 c -0.156553,0 -0.228385,0.03553 -0.304189,0.07448 l -0.100467,0.07448 0.02508,-0.07448 c 0.0216,-0.07448 0.01184,-0.07448 -0.07211,-0.07448 -0.05295,0 -0.198008,0.04598 -0.320213,0.0981 -0.170139,0.07448 -0.216332,0.112312 -0.205672,0.154951 0.01184,0.03553 0.0209,0.07448 0.02857,0.105205 0.01184,0.03553 -0.02857,0.05644 -0.09691,0.09461 -0.108758,0.04598 -0.112311,0.05644 -0.08751,0.207902 l 0.02508,0.15502 h -0.125758 -0.12757 l 0.07211,0.06758 0.07448,0.06758 -0.08159,0.05644 c -0.101651,0.06758 -0.162754,0.06758 -0.21668,0 -0.03762,-0.04598 -0.0627,-0.03553 -0.204,0.112311 -0.124713,0.119906 -0.152652,0.176132 -0.141992,0.232496 0.01742,0.07448 0.01184,0.07448 -0.05644,0.07448 -0.04947,0 -0.124713,0.05643 -0.220233,0.169164 -0.124714,0.1445 -0.143037,0.183238 -0.114681,0.25723 0.02857,0.08514 0.05086,0.08514 0.152861,0.08514 0.106389,0 0.123041,0 0.154742,0.09573 0.05086,0.1445 0.04598,0.179684 -0.02508,0.147914 -0.06758,-0.03553 -0.287189,0.137463 -0.509791,0.369262 l -0.1275,0.13398 0.108758,0.08507 c 0.145475,0.108759 0.392184,0.148054 0.500734,0.07448 0.07448,-0.03902 0.07922,-0.03902 0.100467,0.03553 0.01393,0.05643 0,0.0981 -0.05086,0.151467 -0.05922,0.07448 -0.105205,0.07448 -0.287467,0.07448 h -0.218422 l 0.121856,0.0641 c 0.06828,0.03902 0.152582,0.12325 0.194804,0.197311 0.06974,0.133771 0.08277,0.133771 0.225877,0.133771 0.101721,0 0.195221,-0.03553 0.283984,-0.08507 0.11468,-0.08514 0.172229,-0.08514 0.422492,-0.08514 h 0.289278 l 0.141923,0.14443 c 0.07803,0.07448 0.239254,0.193759 0.355119,0.260714 0.143733,0.08507 0.26141,0.183168 0.36766,0.317147 0.164565,0.207832 0.221279,0.37198 0.222324,0.635968 0,0.126873 0.01393,0.165471 0.08159,0.207832 0.107574,0.06758 0.109942,0.07448 0.16561,-0.06758 0.04389,-0.112312 0.05922,-0.112312 0.17648,-0.112312 0.106389,0 0.168119,0.03553 0.340349,0.169164 0.115864,0.09099 0.215287,0.162058 0.222045,0.197312 0.01184,0 -0.106459,0.03902 -0.254791,0.03902 -0.265939,0 -0.312898,0.03553 -0.218423,0.09817 0.0648,0.0641 0.05992,0.07448 -0.01742,0.112312 -0.106389,0.03553 -0.02508,0.211316 0.123668,0.271234 0.155787,0.04598 0.217378,0.04598 0.291369,-0.03902 0.06131,-0.06758 0.06271,-0.06758 0,-0.112311 -0.03553,0 -0.08152,-0.04598 -0.105205,-0.04598 -0.0216,0 -0.05086,0 -0.06131,-0.03902 -0.01393,-0.03902 0.07211,-0.03902 0.22943,-0.03902 h 0.249427 v 0.179685 c 0,0.115865 0.02508,0.236049 0.07093,0.327668 0.04877,0.101721 0.06758,0.176131 0.04947,0.236119 -0.0216,0.07448 -0.03693,0.07448 -0.145893,0.07448 -0.122205,0 -0.122205,0 -0.132865,0.112241 -0.01184,0.105275 -3.48e-4,0.126873 0.107574,0.176201 0.106389,0.04598 0.118233,0.06758 0.100467,0.158505 -0.01742,0.08507 0.01184,0.130356 0.158504,0.313594 0.164914,0.200865 0.543304,0.560234 0.564484,0.52498 0,0 0.03553,-0.05644 0.06758,-0.10639 0.04598,-0.08514 0.06619,-0.08514 0.104021,-0.05643 0.05922,0.04598 0.06131,0.112311 0.01184,0.197242 -0.03553,0.05713 -0.02857,0.08396 0.04111,0.214938 0.06828,0.126873 0.105205,0.151398 0.222324,0.186652 0.130078,0.03553 0.141992,0.04598 0.141992,0.144431 0,0.115864 0.01185,0.126873 0.238558,0.16568 0.121856,0.03553 0.151188,0.04598 0.442488,0.437959 0.01184,0 0.39518,-0.172717 0.486102,-0.236119 0.05435,-0.03902 0.07915,-0.03553 0.227619,0.148054 l -0.01742,-0.03902 c 0.09218,0.108758 0.18073,0.193758 0.198357,0.193758 0.01742,0 0.08277,-0.03553 0.145406,-0.07448 0.08159,-0.04598 0.109942,-0.08514 0.08981,-0.12332 -0.01393,-0.03553 -0.02857,-0.105205 -0.0216,-0.172578 0.01184,-0.126873 -0.19125,-0.667668 -0.280431,-0.76284 -0.0425,-0.05644 -0.04111,-0.07448 0.01185,-0.193759 0.08514,-0.214869 0.06828,-0.29952 -0.114681,-0.56518 -0.139135,-0.204349 -0.164565,-0.253677 -0.132865,-0.302935 0.01742,-0.03553 0.03693,-0.09225 0.03693,-0.140947 0,-0.05643 0.02857,-0.08507 0.08396,-0.119836 0.05574,-0.03553 0.08152,-0.06758 0.08152,-0.115865 0,-0.0641 0.03762,-0.09573 0.180451,-0.16561 0.171603,-0.08507 0.183238,-0.0981 0.214869,-0.25723 0.02857,-0.14443 0.02508,-0.193758 -0.03553,-0.348848 -0.04111,-0.115865 -0.05922,-0.218353 -0.04947,-0.285378 0.01184,-0.05643 0.14443,-0.292414 0.298824,-0.529438 l 0.280361,-0.426742 v -0.25723 -0.25709 l -0.189091,0.03902 c -0.164217,0.03553 -0.208319,0.04598 -0.331639,0.162127 l -0.143734,0.137324 0.02508,-0.101652 c 0.01394,-0.05643 0.03553,-0.137463 0.05086,-0.17627 0.02508,-0.06758 0.01184,-0.07448 -0.08389,-0.126804 -0.06131,-0.03553 -0.126525,-0.09106 -0.147705,-0.13384 -0.04041,-0.09218 -0.03902,-0.09218 0.269561,0 0.14659,0.04598 0.387865,0 0.387865,-0.05643 0,-0.03553 -0.03693,-0.08514 -0.0804,-0.137394 -0.05922,-0.07448 -0.149307,-0.130356 -0.331151,-0.197381 -0.219468,-0.08514 -0.259669,-0.101721 -0.314988,-0.214939 -0.04111,-0.08514 -0.09462,-0.147914 -0.151119,-0.147914 -0.102836,-0.03553 -0.09336,-0.03902 -0.154742,0.115865 -0.04877,0.130426 -0.05086,0.130426 -0.210967,0.0958 l -0.160316,-0.03902 -0.01184,-0.155021 -0.01185,-0.151537 0.149308,0.03553 c 0.166656,0.03553 0.163102,0.03553 0.198357,-0.218422 l 0.0216,-0.1445 -0.149308,0.03902 c -0.08152,0 -0.149377,0 -0.149377,-0.03902 0,0 0.03205,-0.08507 0.06828,-0.162058 l 0.06758,-0.13384 -0.165611,0.03902 h -0.258553 c -0.08744,-0.03553 -0.09099,-0.03553 -0.0804,-0.169025 l 0.01184,-0.147984 h -0.123737 c -0.07922,0 -0.137394,-0.03553 -0.165541,-0.05643 -0.03902,-0.05644 -0.04877,-0.05644 -0.162058,0 -0.111127,0.05643 -0.127221,0.05643 -0.202258,0 -0.04529,-0.03553 -0.0804,-0.07441 -0.0804,-0.07441 3.49e-4,0 0.05922,-0.06758 0.131123,-0.115865 0.07211,-0.04598 0.130984,-0.115865 0.130984,-0.115865 0,0 -0.04738,-0.03902 -0.107574,-0.06758 -0.100467,-0.05643 -0.118721,-0.05643 -0.229361,0 l -0.118442,0.06758 -0.05295,-0.08514 c -0.05086,-0.08507 -0.05922,-0.08507 -0.165541,-0.03553 l -0.112312,0.04598 -0.25291,-0.295898 c -0.152303,-0.176271 -0.292832,-0.292414 -0.353377,-0.327668 -0.08744,-0.03553 -0.0981,-0.04598 -0.07685,-0.13391 0.02857,-0.126873 -0.04598,-0.162058 -0.167632,-0.08514 -0.106389,0.07448 -0.118791,0.05643 -0.07796,-0.08514 0.05225,-0.179684 0.03902,-0.207762 -0.112311,-0.320561 z m -15.372257,0.653595 c -0.02508,0 -0.04947,0 -0.08751,0.03553 -0.07211,0.03553 -0.149795,0.0981 -0.234655,0.221976 -0.07093,0.0981 -0.188046,0.239533 -0.262037,0.313525 -0.09935,0.09573 -0.127222,0.151537 -0.11705,0.200795 0.01394,0.05713 -0.0216,0.09935 -0.147635,0.207971 -0.195221,0.165472 -0.318959,0.179685 -0.367799,0.05644 -0.05922,-0.154951 -0.03902,-0.204279 0.100467,-0.278271 0.111127,-0.05643 0.128266,-0.07448 0.100537,-0.126803 -0.0216,-0.03553 -0.08632,-0.07448 -0.167771,-0.07448 -0.07566,0 -0.211385,-0.06758 -0.302238,-0.105205 -0.158225,-0.09106 -0.167422,-0.09106 -0.211037,-0.03902 -0.0216,0.03902 -0.04459,0.101651 -0.04598,0.151537 0,0.0733 -0.0216,0.0733 -0.09336,0.112311 -0.04947,0.03553 -0.130426,0.06758 -0.180381,0.105205 -0.119558,0.112312 -0.122344,0.243156 -0.01184,0.353099 0.05574,0.05643 0.08159,0.0981 0.0641,0.147983 -0.01742,0.05644 -0.01184,0.09106 0.07093,0.09106 0.124713,0.03553 0.219398,0.0981 0.19132,0.147844 -0.01393,0.03902 -0.06131,0.03902 -0.118373,0.03902 -0.07922,-0.03553 -0.122693,0 -0.256881,0.123319 -0.125758,0.126804 -0.181427,0.126804 -0.247754,0.126804 -0.04598,0 -0.09336,-0.03902 -0.104021,-0.07329 -0.01393,-0.03902 -0.05922,-0.07448 -0.141992,-0.07448 -0.118234,0 -0.12541,0 -0.118303,-0.13391 0,-0.14443 -0.01184,-0.147983 -0.231451,-0.07448 -0.08514,0.03902 -0.187836,0.03902 -0.227689,0.03902 -0.131332,-0.03902 -0.476906,0.08514 -0.589914,0.197312 -0.09336,0.09573 -0.104021,0.130356 -0.104021,0.292414 0,0.214938 -0.03693,0.250193 -0.11468,0.112311 -0.03205,-0.05643 -0.07211,-0.101651 -0.0827,-0.101651 -0.01393,0 -0.07803,0.0641 -0.14025,0.15509 -0.139135,0.190205 -0.14868,0.313525 -0.03205,0.391418 l 0.08514,0.05644 -0.107574,0.112311 c -0.05922,0.06758 -0.138786,0.112312 -0.176479,0.112312 -0.03762,0 -0.126176,0.04598 -0.196685,0.106389 l -0.12743,0.108758 0.111057,0.03902 c 0.06758,0 0.130287,0.07448 0.158226,0.126803 0.04111,0.08514 0.03902,0.108758 -0.01184,0.204418 -0.02857,0.06758 -0.05434,0.119767 -0.05434,0.119767 h 0.104091 c 0.09099,-0.03553 0.101651,0 0.08388,0.03902 -0.01393,0.03902 0,0.05643 0.06758,0.09099 0.07211,0.03553 0.08159,0.03553 0.04111,0.06758 -0.02857,0.03902 -0.07566,0.03902 -0.111127,0.03902 -0.03205,0 -0.150492,0.04598 -0.262176,0.112312 -0.121857,0.06758 -0.276529,0.13391 -0.384172,0.13391 -0.09928,0 -0.201423,0.05643 -0.232914,0.05643 -0.03762,0.03553 -0.08507,0 -0.15105,-0.03902 -0.11468,-0.0641 -0.303074,-0.07448 -0.393299,0 -0.0804,0.05643 -0.183238,0.06758 -0.123738,0 0.05922,-0.05644 0.04947,-0.08514 -0.05086,-0.137463 -0.06271,-0.07448 -0.133492,-0.06758 -0.223997,-0.03902 -0.180729,0.03553 -0.411483,0 -0.411483,-0.04598 0,-0.09928 -0.187488,-0.112312 -0.311505,-0.06758 -0.05713,0.03553 -0.06758,0.07448 -0.01184,0.07448 0.0216,0 0.08869,0.03902 0.151189,0.08507 0.08277,0.08514 0.122971,0.08514 0.151119,0.04598 0.0641,-0.05643 0.191737,-0.03902 0.213197,0.03902 0.01393,0.04598 0.03553,0.08514 0.111127,0.05643 0.0804,-0.03553 0.100467,0 0.125828,0.05713 0.03553,0.08507 0.118651,0.119767 0.324114,0.119767 0.07685,0 0.149656,0 0.160316,0.03902 0.01184,0.03902 0.09218,0.03902 0.17857,0.03902 0.08514,0 0.20407,0 0.260295,0.03902 0.0641,0.03902 0.162824,0.03902 0.260435,0.03902 0.08632,0 0.387029,-0.03902 0.668295,-0.03902 0.280709,0 0.526722,0 0.544349,-0.04598 0.01742,-0.03553 0.03553,-0.06758 0.03553,-0.12332 0,-0.07448 0.0216,-0.07448 0.134886,-0.112312 h 0.221975 c 0.05434,0 0.157111,0 0.25514,-0.05643 0.109942,-0.03553 0.230754,-0.06758 0.371422,-0.06758 0.292414,0 0.356861,0.03553 0.356861,0.119836 0,0.05643 -0.01184,0.09106 -0.05783,0.05643 -0.03205,0 -0.113496,-0.03902 -0.182193,-0.03902 -0.172717,0 -0.545324,0.14443 -0.573541,0.253676 -0.01393,0.0641 -0.03902,0.0641 -0.118373,0.0641 -0.07803,0 -0.102836,0 -0.1275,0.06758 -0.02857,0.07448 -0.02508,0.07448 0.307533,0.07448 0.291787,0 0.343205,0 0.40598,0.06758 l 0.07211,0.06758 0.165611,-0.151537 c 0.146939,-0.119766 0.177525,-0.154951 0.251168,-0.119766 0.141295,0.05643 0.181496,0.158504 0.182193,0.479135 v 0.295968 l 0.167701,0.148053 c 0.145893,0.126803 0.165541,0.158504 0.165541,0.274787 0,0.108758 0.01393,0.13384 0.09099,0.169094 0.124156,0.05644 0.123459,0.05644 0.07685,0.112312 -0.04877,0.05643 -0.01742,0.798025 0.03553,0.86491 0.01742,0.03553 0.01393,0.05644 -0.01742,0.05644 -0.02508,0 -0.07211,0.0981 -0.104021,0.193758 -0.03205,0.0981 -0.09935,0.260713 -0.15286,0.369262 -0.102836,0.22546 -0.104021,0.24657 0,0.190205 0.05643,-0.03553 0.06828,-0.03553 0.08507,0.06758 0.03553,0.172718 0.02508,0.239603 -0.06131,0.439074 -0.04598,0.101652 -0.08159,0.243156 -0.08159,0.310042 v 0.123319 l 0.09462,-0.112311 c 0.07211,-0.09106 0.111127,-0.130287 0.163799,-0.09106 0.08396,0.03553 0.08632,0.06758 0.02508,0.414132 -0.03762,0.207832 -0.0627,0.25709 -0.143804,0.331082 -0.132098,0.108758 -0.164147,0.271303 -0.08507,0.416848 0.05295,0.0981 0.05643,0.126804 0.0216,0.218423 -0.03205,0.08514 -0.03205,0.130426 0,0.218491 0.03693,0.0981 0.03205,0.12332 -0.02857,0.232496 -0.08751,0.155021 -0.0641,0.371074 0.06758,0.628165 0.05086,0.101721 0.08395,0.193897 0.07685,0.193897 -0.01811,0.03553 -0.218074,-0.229082 -0.318472,-0.395389 -0.06828,-0.108758 -0.0804,-0.115865 -0.127569,-0.0733 -0.04459,0.04598 -0.04598,0.08507 -0.01185,0.324115 0.02508,0.151397 0.08744,0.399779 0.140181,0.554869 l 0.09454,0.281824 -0.08507,0.446738 -0.08751,0.443672 -0.335123,0.591865 c -0.184492,0.324115 -0.421865,0.690939 -0.526025,0.81391 -0.175574,0.207902 -0.194943,0.250123 -0.258693,0.535152 -0.04598,0.204349 -0.113426,0.380132 -0.194803,0.521148 -0.104021,0.179684 -0.132517,0.274717 -0.180381,0.589775 -0.05295,0.345295 -0.05434,0.38682 0,0.598623 0.02857,0.126873 0.07803,0.211385 0.101651,0.24657 0.0216,0 0.04598,0.05643 0.04598,0.101721 0,0.04598 -0.01742,0.08507 -0.0648,0.08507 -0.05574,0 -0.0648,0.03553 -0.0648,0.126873 0,0.07448 0.0216,0.158504 0.04598,0.193758 0.03762,0.05644 0.03693,0.07448 -0.01184,0.151537 -0.0425,0.07329 -0.04111,0.115865 0.0216,0.426255 0.03762,0.186791 0.06828,0.39316 0.06828,0.460463 0,0.108758 0.01393,0.126803 0.162058,0.207902 0.120115,0.06758 0.171881,0.123319 0.200516,0.204418 0.0216,0.05643 0.0648,0.13377 0.100467,0.13377 0.03553,0 0.121509,0.126873 0.194804,0.260783 l 0.132865,0.239533 0.06828,0.764234 c 0.03553,0.420332 0.0648,0.793427 0.0648,0.828681 0,0.03902 0.05783,0.13391 0.127501,0.207902 0.07685,0.08514 0.154672,0.221905 0.194803,0.341742 0.06131,0.176131 0.0641,0.214938 0.02508,0.28893 -0.03205,0.06758 -0.03553,0.112312 -0.01184,0.172578 0.03762,0.0981 0.04111,0.0981 -0.101652,0.03902 -0.06131,-0.03553 -0.14443,-0.07448 -0.185746,-0.07448 l -0.07441,-0.03902 0.05643,0.12332 c 0.06974,0.15509 0.367032,0.470705 0.444229,0.470705 0.03205,0 0.06974,0.03902 0.0804,0.07448 0.01184,0.03902 0.05434,0.105205 0.09691,0.15509 0.162057,0.176131 0.187836,0.331152 0.09691,0.560234 l -0.05086,0.133771 0.25298,0.353516 c 0.14868,0.204209 0.272348,0.421308 0.300566,0.512509 0.04877,0.172717 0.06974,0.172717 0.20393,0.137532 0.0648,-0.03553 0.07448,-0.04598 0.07448,-0.162127 0,-0.172647 -0.108759,-0.361807 -0.218353,-0.397061 -0.05643,0 -0.0827,-0.04598 -0.09336,-0.12325 -0.01184,-0.05644 -0.02857,-0.239673 -0.05574,-0.40173 -0.0216,-0.165611 -0.04947,-0.374836 -0.05922,-0.466107 -0.03553,-0.253676 -0.210758,-0.770226 -0.263988,-0.770226 -0.03553,0 -0.04111,-0.03902 -0.02508,-0.1445 0.01742,-0.112311 0,-0.169024 -0.06131,-0.281824 -0.04459,-0.07448 -0.09106,-0.193758 -0.101652,-0.260783 -0.01184,-0.06758 -0.06619,-0.200795 -0.118373,-0.292414 -0.08507,-0.151467 -0.09454,-0.200725 -0.09454,-0.462205 3.48e-4,-0.260643 0.01184,-0.306557 0.0804,-0.393578 l 0.08033,-0.09928 0.071,0.09106 c 0.0425,0.05643 0.102836,0.09218 0.151049,0.09218 0.05643,0 0.08159,0.03553 0.100467,0.08514 0.01184,0.04598 0.04877,0.09099 0.08396,0.126804 0.05295,0.03902 0.05574,0.06758 0.02857,0.158574 -0.05574,0.193688 0.04947,0.71407 0.221975,1.102074 0.08159,0.176131 0.176132,0.338189 0.211386,0.372676 0.04041,0.03553 0.0641,0.08514 0.0641,0.165681 0,0.08507 0.02508,0.137324 0.100467,0.207762 0.05434,0.04598 0.100537,0.126873 0.100537,0.162058 0,0.04598 0.03693,0.08514 0.0981,0.119905 0.109942,0.05643 0.12541,0.126804 0.04598,0.218423 -0.03902,0.03902 -0.04877,0.08514 -0.03205,0.172647 0.01393,0.06758 0.03693,0.115795 0.04738,0.115795 0.01394,0 0.08869,0.05713 0.163869,0.112312 0.09573,0.08514 0.148332,0.162057 0.173066,0.25723 0.0216,0.07448 0.10402,0.214938 0.202119,0.327668 0.09099,0.101721 0.180729,0.243156 0.198356,0.306557 0.01742,0.06758 0.08159,0.193759 0.142132,0.303005 0.05992,0.108688 0.122205,0.250123 0.132725,0.320561 0.01184,0.07448 0.04459,0.193898 0.07211,0.281964 0.04111,0.140877 0.04111,0.16561 -0.01184,0.257229 -0.02857,0.05643 -0.05434,0.147844 -0.05434,0.204209 0,0.06758 -0.01393,0.102906 -0.06758,0.102906 -0.07566,0 -0.0733,0 0.04041,0.313455 0.04947,0.13398 0.09698,0.186791 0.246012,0.292484 0.112312,0.07448 0.230406,0.193758 0.298755,0.306488 0.119766,0.190344 0.289279,0.299451 0.564484,0.372746 0.09336,0.03553 0.178221,0.08514 0.263848,0.17627 0.137115,0.154951 0.546091,0.422353 0.835718,0.54637 0.09928,0.04598 0.247336,0.119836 0.327668,0.17627 0.0804,0.05644 0.273672,0.154951 0.429738,0.22539 0.369193,0.172717 0.548111,0.179684 0.835648,0.03902 0.197311,-0.0981 0.207832,-0.101652 0.376857,-0.06758 0.164565,0.03902 0.202955,0.07448 0.668225,0.557377 l 0.493419,0.515435 0.671779,0.207902 c 0.369889,0.115865 0.692889,0.200865 0.721106,0.236049 0.02857,0.03553 0.247337,0.253676 0.487915,0.53125 0.399848,0.462693 0.436983,0.523238 0.436983,0.635968 0,0.179684 0.07803,0.306557 0.20407,0.352402 0.14659,0.03553 0.195849,0.03553 0.171185,-0.03553 -0.03553,-0.09454 0.0648,-0.03902 0.121996,0.07448 0.02857,0.05643 0.128824,0.1445 0.223996,0.193898 0.153627,0.08507 0.171254,0.105205 0.171254,0.204279 0,0.123389 0.120811,0.271303 0.174738,0.218422 0.01742,0 0.06974,0 0.125758,0.03902 0.05295,0 0.127918,0.04598 0.169164,0.04598 0.195918,0 0.361947,0.0733 0.471541,0.200726 0.105205,0.123389 0.111127,0.123389 0.121927,0.05643 0.01393,-0.09218 0.06619,-0.08514 0.101651,0.03902 0.01742,0.05643 0.03553,0.101652 0.0425,0.137464 0.01184,0.03902 0.04738,0.03902 0.165611,0 0.08389,-0.03553 0.162406,-0.06758 0.169512,-0.06758 0.01184,0 -0.0216,-0.08507 -0.07093,-0.151398 -0.09935,-0.15509 -0.09225,-0.190344 0.06131,-0.253676 0.0648,-0.03553 0.124713,-0.08514 0.149307,-0.1445 0.03205,-0.07448 0.07211,-0.0981 0.171254,-0.13391 0.125828,-0.03553 0.134886,-0.03553 0.291439,0.115865 0.08862,0.08507 0.177176,0.147844 0.198357,0.147844 0.05434,0 0.04459,0.03902 -0.02508,0.112311 -0.06131,0.06758 -0.05922,0.07448 0.14025,0.389746 l -0.0216,0.0981 c 0.111127,0.176131 0.211386,0.320631 0.222045,0.320631 0.01184,0 0.07915,-0.137393 0.152861,-0.309971 l 0.134607,-0.310041 -0.274857,-0.296037 -0.273045,-0.295898 -0.327668,-0.07448 -0.329341,-0.07448 -0.40786,0.190205 -0.407792,0.190344 -0.07211,-0.08514 c -0.06131,-0.09099 -0.08751,-0.09099 -0.154742,-0.05644 -0.07685,0.03553 -0.09817,0 -0.43148,-0.494951 l -0.351357,-0.525676 0.169164,-0.710378 0.169373,-0.710168 -0.07211,-0.172717 -0.07093,-0.172578 -0.406049,-0.140947 -0.404168,-0.14443 -0.493419,0.03902 c -0.64586,0.04598 -0.625238,0.06758 -0.593537,-0.540586 0.01742,-0.37205 0.02857,-0.434337 0.08514,-0.483734 0.07566,-0.06758 0.263848,-0.641542 0.263848,-0.806456 0,-0.09099 0.03205,-0.140877 0.149377,-0.253676 0.127222,-0.12332 0.148054,-0.158504 0.147705,-0.274857 0,-0.07448 -0.01393,-0.137323 -0.02508,-0.172578 -0.01742,-0.04598 -0.14234,-0.04598 -0.387865,-0.04598 -0.301541,0 -0.418311,0 -0.691775,0.09106 l -0.327668,0.09218 -0.07803,0.313594 c -0.06619,0.271303 -0.09691,0.331152 -0.209295,0.448549 -0.172299,0.176132 -0.333242,0.22539 -0.975898,0.313595 l -0.531668,0.0733 -0.111127,-0.119767 c -0.08277,-0.09099 -0.150004,-0.108758 -0.258554,-0.14443 l -0.147635,-0.03902 -0.08751,-0.299451 c -0.04877,-0.162058 -0.148681,-0.420332 -0.222324,-0.578837 -0.09928,-0.211385 -0.146939,-0.368983 -0.187488,-0.626422 -0.05086,-0.320701 -0.05225,-0.365431 0,-0.67582 0.03553,-0.207832 0.117049,-0.491189 0.220234,-0.758939 0.149447,-0.384799 0.163102,-0.445275 0.141992,-0.601131 -0.01742,-0.151398 -0.01184,-0.197242 0.08033,-0.370935 0.09343,-0.186791 0.11886,-0.207902 0.340488,-0.320562 0.131332,-0.06758 0.354631,-0.193897 0.496971,-0.285516 0.187836,-0.12325 0.319238,-0.179685 0.48255,-0.214869 0.218073,-0.04598 0.229778,-0.04598 0.413225,0.03902 0.177943,0.07441 0.195152,0.08507 0.307603,0.03902 l 0.118303,-0.04598 0.14032,0.137324 c 0.11468,0.115865 0.155717,0.115865 0.232914,0.115865 0.05086,0 0.14868,-0.03902 0.214869,-0.03902 0.09698,-0.03553 0.138787,0 0.222045,0.05713 0.07566,0.03553 0.112312,0.0733 0.140181,0.03553 0.02857,-0.03553 0.01184,-0.06758 -0.07211,-0.133979 l -0.111127,-0.09573 0.08751,-0.112311 0.08507,-0.112312 0.274856,0.03553 c 0.209226,0 0.320283,0 0.455099,-0.03553 0.151258,-0.06758 0.205812,-0.06758 0.375115,-0.03902 0.195918,0.04598 0.233959,0.06758 0.411484,0.292483 l 0.06131,0.07448 0.200447,-0.08514 0.202119,-0.08507 0.249566,0.257229 0.247684,0.253677 -0.01742,0.299381 -0.01742,0.29959 0.172926,0.345156 c 0.09455,0.190345 0.222742,0.402775 0.284054,0.468964 0.06061,0.07448 0.111127,0.158643 0.111127,0.193828 0,0.03553 0.0216,0.0641 0.107574,0.0641 0.09454,0 0.119766,-0.03553 0.218492,-0.193758 0.105205,-0.183238 0.112242,-0.197312 0.09455,-0.453845 -0.01184,-0.200795 -0.04389,-0.331221 -0.134676,-0.558422 -0.0648,-0.162058 -0.120046,-0.331222 -0.120046,-0.370029 0,-0.03902 -0.04598,-0.193689 -0.100537,-0.341742 -0.07796,-0.211316 -0.0981,-0.320562 -0.0981,-0.523865 0,-0.25716 6.27e-4,-0.260713 0.160316,-0.470008 0.08744,-0.115865 0.319865,-0.367103 0.515156,-0.549923 0.279803,-0.260783 0.384311,-0.338258 0.495299,-0.372746 0.101652,-0.03553 0.173693,-0.07448 0.262177,-0.179684 0.10402,-0.126873 0.143385,-0.130427 0.285725,-0.165611 0.176898,-0.03553 0.207484,-0.07448 0.111127,-0.179685 -0.04738,-0.04598 -0.04041,-0.06758 0.100467,-0.162057 0.166378,-0.112312 0.168328,-0.119906 0.100537,-0.313664 -0.02508,-0.07448 -0.04877,-0.172578 -0.04947,-0.221976 0,-0.07448 -0.0216,-0.08514 -0.09106,-0.115865 -0.140181,-0.03902 -0.146173,-0.04598 -0.07678,-0.133909 0.07796,-0.0981 0.06131,-0.250124 -0.03762,-0.36362 -0.0648,-0.07448 -0.0648,-0.07448 0.01184,-0.271303 0.04041,-0.105205 0.08514,-0.179684 0.101652,-0.179684 0.01812,0 0.02857,0.101651 0.02857,0.200864 0,0.13391 0.01742,0.207902 0.06828,0.281894 0.05644,0.08514 0.0648,0.108758 0.03205,0.179684 -0.04877,0.108759 -0.05086,0.229013 0,0.193759 0.0209,0 0.0648,-0.08514 0.100468,-0.162058 0.03553,-0.07448 0.08514,-0.14443 0.113496,-0.179684 0.111127,-0.08514 0.117049,-0.147984 0.03205,-0.341742 -0.08514,-0.190345 -0.0733,-0.232566 0.03205,-0.119906 0.03205,0.04598 0.07211,0.04598 0.08395,0.04598 0.01393,0 0.07803,-0.101652 0.143734,-0.214869 0.08159,-0.13398 0.120114,-0.243226 0.120114,-0.327738 0,-0.140877 0,-0.140877 0.35498,-0.253677 0.09573,-0.03553 0.172926,-0.07448 0.172926,-0.07448 h -0.164914 c -0.09099,0.03553 -0.16561,0 -0.16561,0 0,-0.06758 0.240369,-0.137324 0.447922,-0.137324 0.149795,0 0.253328,-0.03553 0.338537,-0.06758 0.229709,-0.126873 0.226295,-0.119766 0.111127,-0.250193 -0.124713,-0.14443 -0.125061,-0.162057 -0.02857,-0.479065 l 0.07448,-0.24671 0.464226,-0.253676 c 0.33157,-0.183168 0.485963,-0.281824 0.535361,-0.355119 0.05086,-0.07448 0.102836,-0.126873 0.193061,-0.126873 0.06828,0 0.195849,-0.06758 0.282173,-0.115865 0.187836,-0.115795 0.177176,-0.112242 0.198356,-0.03902 0.01185,0.04598 -0.04111,0.115795 -0.18916,0.264197 l -0.207553,0.204348 0.03205,0.137394 c 0.03693,0.16561 0.01742,0.140877 0.169513,0.204348 l 0.121856,0.04598 0.156414,-0.243017 c 0.147287,-0.232566 0.166656,-0.250193 0.322373,-0.285377 0.204,-0.04598 0.245246,-0.07448 0.50798,-0.25723 0.188533,-0.137463 0.204348,-0.158504 0.15293,-0.193758 -0.03205,-0.03553 -0.141225,-0.03553 -0.243852,-0.06758 -0.533271,-0.05713 -0.617923,-0.08396 -0.737271,-0.211385 -0.251935,-0.26775 -0.291439,-0.334636 -0.291439,-0.490423 0,-0.16561 -1.39e-4,-0.16561 -0.08981,-0.130426 -0.04947,0 -0.12116,0 -0.158574,0.03902 -0.04111,0 -0.09099,0 -0.129312,-0.05643 -0.06131,-0.06758 -0.0627,-0.06758 0.114681,-0.06758 0.159201,0 0.189648,0 0.300496,-0.119766 l 0.123738,-0.115865 -0.100468,-0.144431 -0.0981,-0.1445 -0.25298,0.03902 c -0.248102,0.03553 -0.262873,0.03553 -0.653734,0.281824 -0.351147,0.232565 -0.418938,0.28893 -0.557098,0.49293 -0.14875,0.222045 -0.308648,0.383406 -0.340349,0.348849 -0.02508,-0.03553 0.549017,-0.817394 0.71191,-0.982657 0.0827,-0.08514 0.191599,-0.172578 0.243853,-0.172578 0.06974,0 0.115865,-0.06758 0.17648,-0.179684 0.04459,-0.08514 0.106389,-0.172717 0.138438,-0.172717 0.220582,-0.06758 0.701251,-0.112312 1.174325,-0.148054 l 0.555217,-0.03902 0.101652,-0.106459 c 0.05713,-0.05644 0.141434,-0.169025 0.189299,-0.260644 0.07915,-0.147983 0.104021,-0.162057 0.314918,-0.236049 0.125759,-0.03553 0.235004,-0.06758 0.242111,-0.06758 0.01184,0 -0.03553,0.147844 -0.08988,0.303004 -0.07211,0.204349 -0.101652,0.345295 -0.101652,0.497041 0,0.119906 -0.01393,0.232496 -0.03553,0.232496 -0.0216,0.03553 -0.0216,0.07448 -0.01184,0.169164 0.01393,0.112312 0.01184,0.169165 -0.03553,0.232566 -0.03205,0.04598 -0.05643,0.126804 -0.0641,0.183238 -0.01184,0.07448 0,0.112312 0.111127,0.07448 0.460045,-0.07448 0.702296,-0.119767 0.795656,-0.169164 0.08869,-0.07448 0.111127,-0.07448 0.136697,-0.03902 0.01742,0.03553 0.02857,0.07448 0.02857,0.07448 h 0.100467 c 0.09106,-0.03553 0.09928,0 0.06758,0.04598 -0.01742,0.03553 -0.04947,0.04598 -0.06758,0.08396 -0.01742,0 -0.04598,0.04598 -0.06758,0.08514 -0.03205,0.06758 -0.0209,0.06758 0.07803,0.06758 0.106389,0 0.120463,0 0.238557,-0.236119 0.06828,-0.13391 0.159549,-0.285308 0.202258,-0.341742 0.04111,-0.05644 0.07685,-0.151537 0.07685,-0.207902 0,-0.105205 0,-0.105205 -0.08396,-0.07448 -0.13607,0.05644 -0.147635,0.04598 -0.147635,-0.0981 0,-0.07448 -0.01394,-0.158574 -0.03205,-0.193758 -0.03205,-0.06758 -0.03762,-0.06758 -0.204069,0 -0.115865,0.04598 -0.209226,0.04598 -0.283914,0.04598 -0.113496,-0.03553 -0.114681,-0.03553 -0.05295,-0.169164 0.01184,-0.03553 -0.01393,-0.05713 -0.05574,-0.05713 -0.05434,-0.03553 -0.101652,0 -0.189648,0.08514 l -0.11468,0.112311 0.02508,-0.214939 c 0.01184,-0.119836 0.04877,-0.295967 0.07685,-0.388004 0.02857,-0.0981 0.04598,-0.190135 0.03902,-0.190135 -0.01185,-0.03902 -0.07803,0 -0.154672,0 h -0.140181 c 0,0 0.04041,-0.09817 0.08981,-0.197451 l 0.08988,-0.179685 -0.100468,-0.112311 c -0.05434,-0.0641 -0.125061,-0.179685 -0.160315,-0.253677 -0.07211,-0.15509 -0.149795,-0.225528 -0.284054,-0.190344 -0.08159,0.03553 -0.100467,0 -0.136278,-0.06758 -0.03553,-0.06758 -0.05086,-0.101652 -0.156414,-0.06758 l -0.118443,0.03902 0.07685,-0.08507 c 0.08862,-0.0958 0.08389,-0.09817 -0.180381,-0.137394 -0.07566,0 -0.163172,-0.04598 -0.194873,-0.08514 -0.05574,-0.0641 -0.05783,-0.0641 -0.15293,0 -0.111128,0.08514 -0.102837,0.08514 -0.167283,-0.07448 -0.03902,-0.09099 -0.107574,-0.151537 -0.293181,-0.264266 -0.22093,-0.130426 -0.241693,-0.155021 -0.231102,-0.243086 0.01184,-0.05644 0.01184,-0.126804 0.01742,-0.165611 0,-0.04598 -0.151955,-0.239603 -0.52073,-0.635619 -0.288931,-0.313595 -0.533828,-0.549923 -0.540865,-0.549923 -0.01184,0 -0.04598,0.151398 -0.08507,0.320562 l -0.07093,0.306557 -0.193062,0.126873 -0.193131,0.126804 -0.120115,-0.13391 c -0.08514,-0.0958 -0.156065,-0.155021 -0.243783,-0.155021 -0.09928,-0.03553 -0.126106,-0.04598 -0.143733,-0.112241 -0.01184,-0.04598 -0.03553,-0.144501 -0.05086,-0.211386 -0.01811,-0.0641 -0.0216,-0.193897 -0.01184,-0.285377 l 0.02508,-0.162057 -0.111127,-0.03902 c -0.05992,0 -0.165263,-0.03553 -0.231173,-0.03553 -0.08514,-0.03553 -0.147565,-0.05643 -0.218492,-0.141016 -0.05434,-0.06758 -0.188811,-0.186652 -0.298336,-0.260644 -0.180033,-0.126873 -0.202258,-0.137533 -0.242111,-0.09106 -0.03693,0.03902 -0.08514,0.07448 -0.260295,0.03902 -0.118442,0 -0.285377,-0.03553 -0.371422,-0.06758 l -0.156762,-0.04598 -0.06828,0.0958 -0.06828,0.09454 0.06828,0.115865 c 0.05574,0.09573 0.06758,0.151537 0.04947,0.28886 -0.01393,0.115865 0,0.236119 0.03693,0.373095 l 0.05713,0.200865 -0.118443,0.172717 -0.118373,0.172578 0.160315,0.183238 c 0.206787,0.239602 0.221279,0.274857 0.249427,0.547205 0.02508,0.225389 0.0209,0.236049 -0.100467,0.464992 -0.113496,0.207832 -0.145546,0.24664 -0.325927,0.338258 -0.305094,0.162058 -0.287119,0.130357 -0.232844,0.334775 0.02508,0.0981 0.04877,0.281824 0.04947,0.402636 6.97e-4,0.137463 0.0216,0.267819 0.05713,0.338328 0.04598,0.09099 0.05086,0.130217 0.01742,0.200725 -0.0216,0.04598 -0.04041,0.137463 -0.04041,0.204349 v 0.119905 l -0.07803,-0.07448 -0.07678,-0.07448 -0.04947,0.07448 -0.04947,0.07448 -0.107573,-0.0641 c -0.05922,-0.03902 -0.209574,-0.218422 -0.334984,-0.393508 l -0.227689,-0.327669 V 53.66254 53.211204 l -0.14018,-0.03553 c -0.07803,0 -0.25514,-0.03902 -0.3933,-0.03902 -0.233262,-0.03553 -0.259041,-0.03553 -0.362295,-0.137323 -0.06061,-0.0641 -0.190693,-0.151537 -0.287885,-0.197312 -0.09691,-0.03902 -0.312898,-0.193898 -0.478718,-0.327668 -0.332684,-0.27841 -0.275205,-0.264197 -0.712049,-0.193758 l -0.143734,0.03902 0.05434,-0.08514 c 0.04947,-0.07448 0.05295,-0.119767 0.01742,-0.384033 l -0.04041,-0.303005 h -0.143734 c -0.120812,0 -0.150353,0 -0.182123,-0.07448 -0.02857,-0.06758 -0.0216,-0.119767 0.04738,-0.288931 0.04598,-0.115795 0.09928,-0.274717 0.123668,-0.348709 0.03205,-0.108758 0.105205,-0.193828 0.355119,-0.424234 0.191389,-0.172578 0.384033,-0.317078 0.489865,-0.36543 0.09573,-0.04598 0.19766,-0.112312 0.229291,-0.162058 0.05086,-0.08507 0.05086,-0.08507 0,-0.147844 -0.05086,-0.04598 -0.05086,-0.04598 0.0216,-0.08514 0.04111,0 0.17021,-0.03902 0.285726,-0.03902 0.188881,-0.03553 0.231799,-0.04598 0.407791,-0.190205 0.219537,-0.183238 0.245316,-0.225529 0.194943,-0.320561 -0.02857,-0.0641 -0.01394,-0.08514 0.12743,-0.193898 0.143177,-0.101652 0.1615,-0.13384 0.143734,-0.214939 -0.02508,-0.126803 0.01393,-0.130217 0.207623,-0.03902 l 0.143734,0.07448 0.174738,-0.07448 c 0.198705,-0.09106 0.387864,-0.253607 0.387864,-0.331152 0,-0.03553 -0.02857,-0.13391 -0.0641,-0.239602 l -0.0648,-0.190206 0.08277,-0.03902 c 0.06974,-0.03553 0.0804,-0.05643 0.0804,-0.15509 0,-0.119767 -0.01184,-0.126873 -0.245943,-0.253677 -0.218073,-0.126873 -0.257926,-0.126873 -0.333311,-0.09106 -0.08159,0.03902 -0.08632,0.04598 -0.06131,0.215078 0.0216,0.165471 0.01394,0.165471 -0.05086,0.200725 -0.04459,0 -0.09928,0.08507 -0.140181,0.172718 -0.06131,0.140877 -0.209016,0.334635 -0.256881,0.334635 -0.01184,0 -0.05713,-0.07448 -0.100467,-0.169025 l -0.07685,-0.16561 0.06758,-0.06758 c 0.06061,-0.06758 0.0641,-0.08507 0.03693,-0.197242 -0.02857,-0.112312 -0.04947,-0.112312 -0.149447,-0.148054 h -0.123668 c -0.01185,0 -0.04111,0.07448 -0.07796,0.144501 l -0.06828,0.13377 v -0.239463 c 0,-0.229082 -0.01185,-0.236049 -0.08514,-0.271304 -0.09573,-0.03902 -0.09573,-0.04598 -0.01184,-0.186791 l 0.06758,-0.112311 -0.08388,-0.12325 c -0.06061,-0.08514 -0.08514,-0.165611 -0.08514,-0.27841 0,-0.115865 -0.01742,-0.169025 -0.0804,-0.228943 l -0.08152,-0.07448 -0.213127,0.193758 c -0.192713,0.179754 -0.21034,0.204348 -0.182193,0.27834 0.02508,0.06758 0.01742,0.08514 -0.04111,0.137394 l -0.07211,0.05643 0.158504,0.169164 c 0.152304,0.158504 0.156554,0.172578 0.11705,0.26775 -0.03553,0.07448 -0.03553,0.119906 -0.01185,0.183238 0.03553,0.07448 0.02508,0.08514 -0.118303,0.176131 -0.08514,0.05644 -0.168467,0.09573 -0.193062,0.09573 -0.04459,0 -0.08033,0.07448 -0.08033,0.172647 0,0.05644 -0.01184,0.05644 -0.100537,-0.03902 l -0.0981,-0.0958 0.08988,-0.09099 c 0.0827,-0.08514 0.08507,-0.09573 0.03205,-0.15509 -0.05434,-0.0641 -0.05086,-0.07329 0.09691,-0.108759 0.153209,-0.04598 0.153906,-0.04598 0.132726,-0.162057 -0.01394,-0.07448 -0.0627,-0.151537 -0.160246,-0.239603 -0.07685,-0.06758 -0.153558,-0.123319 -0.174738,-0.123319 -0.01742,0 -0.08869,0.05643 -0.156484,0.126803 l -0.123668,0.12332 0.104021,0.126873 0.10402,0.130356 h -0.10402 c -0.09225,0 -0.101652,0.03553 -0.101652,0.115865 v 0.101652 l -0.172996,-0.03902 c -0.09573,-0.03902 -0.249775,-0.03902 -0.342439,-0.03902 -0.1592,0 -0.181774,0 -0.418729,-0.214869 -0.24455,-0.207971 -0.249845,-0.218492 -0.213197,-0.313664 0.02508,-0.05643 0.03205,-0.07448 0.02508,-0.112311 -0.03902,-0.03902 -0.434336,0.03553 -0.462414,0.07448 -0.05086,0.05713 -0.03902,0.0958 0.05783,0.0958 0.05086,0 0.120184,0 0.156483,0.03553 0.05225,0.03553 0.03553,0.03553 -0.08981,0.05644 -0.162824,0.03553 -0.167771,0.03902 -0.207623,0.250123 -0.03693,0.197311 -0.04947,0.204418 -0.11698,0.239602 -0.07448,0.03553 -0.08159,0 -0.02857,-0.119836 0.03205,-0.07448 0.0216,-0.108758 -0.06828,-0.281824 l -0.107574,-0.200865 h -0.225738 c -0.20191,0 -0.244619,0 -0.424373,-0.12325 -0.109943,-0.07448 -0.200029,-0.147983 -0.200029,-0.147983 -3.48e-4,-0.03553 0.06758,-0.03553 0.149308,-0.04598 0.170557,-0.03553 0.188533,-0.03902 0.160246,-0.176271 -0.02508,-0.115864 -0.123599,-0.193758 -0.283914,-0.228942 -0.08981,0 -0.131123,-0.06758 -0.280431,-0.317078 -0.09691,-0.165611 -0.19132,-0.303074 -0.202258,-0.338328 -0.0216,-0.03902 -0.05574,-0.03902 -0.169164,0 -0.206369,0.07448 -0.214869,0.07448 -0.123599,-0.09455 0.09573,-0.172717 0.07566,-0.183237 -0.123668,-0.06758 l -0.143733,0.08507 -0.02508,-0.09099 c -0.01742,-0.06758 0,-0.112311 0.04598,-0.179684 0.06828,-0.08514 0.09462,-0.25723 0.04389,-0.25723 -0.01394,0 -0.0733,0.03553 -0.132865,0.06758 -0.07329,0.04598 -0.137394,0.04598 -0.205672,0.04598 -0.10639,-0.03553 -0.128963,-0.06758 -0.04947,-0.09935 0.07093,-0.03553 0.06061,-0.05643 -0.02508,-0.09573 -0.11921,-0.05644 -0.861566,0 -0.966771,0.07448 -0.101652,0.06758 -0.101652,0.06758 -0.232984,-0.25709 -0.07685,-0.183238 -0.08632,-0.243156 -0.05783,-0.317148 0.02508,-0.07448 0.01742,-0.108758 -0.02857,-0.186791 -0.03205,-0.05713 -0.05922,-0.1445 -0.05922,-0.197311 0,-0.08514 -0.02857,-0.126873 -0.11468,-0.193759 -0.06758,-0.04598 -0.11698,-0.123319 -0.11698,-0.162057 0,-0.03902 -0.03205,-0.105205 -0.06828,-0.144431 -0.03902,-0.04598 -0.07322,-0.133979 -0.08388,-0.214938 -0.0216,-0.186791 -0.06828,-0.271304 -0.149307,-0.306558 -0.0641,-0.03553 -0.0641,-0.03553 0.01184,-0.154951 0.05922,-0.108758 0.06619,-0.151537 0.03553,-0.200864 -0.02508,-0.04598 -0.02508,-0.07441 0,-0.126804 0.01742,-0.03902 0.03205,-0.108758 0.02508,-0.158643 -0.01185,-0.0733 -0.02857,-0.112312 -0.145546,-0.112312 -0.09573,0 -0.161012,-0.04598 -0.220233,-0.112311 l -0.08625,-0.09573 -0.101652,0.05644 c -0.0958,0.05713 -0.100537,0.05713 -0.101721,0 -5.58e-4,-0.03553 -0.04041,-0.08507 -0.08507,-0.115796 -0.07566,-0.07448 -0.114681,-0.07448 -0.385984,-0.03902 l -0.304049,0.03902 -0.134607,-0.126873 c -0.07922,-0.07448 -0.113496,-0.108758 -0.152861,-0.112311 z m -2.791137,0.207762 c -0.01184,0 -0.01742,0 -0.03205,0.03553 -0.03762,0.03553 -0.0641,0.06758 -0.0641,0.133979 0,0.05644 -0.03205,0.144431 -0.06828,0.197312 -0.03762,0.05643 -0.0648,0.112242 -0.05783,0.112242 0.01184,0 0.04111,0 0.07803,0.04598 v -0.03553 c 0.03693,0.03902 0.07685,0.03902 0.08751,0.03902 0.04389,-0.04598 0.09573,-0.260783 0.08981,-0.394205 0,-0.108758 -0.01184,-0.137533 -0.03205,-0.126873 z m 14.787778,0.112312 -0.320283,0.07448 c -0.295967,0.0641 -0.324812,0.07448 -0.389607,0.183238 -0.07922,0.126873 -0.0733,0.126873 -0.211106,0.07448 -0.08277,-0.03553 -0.143804,-0.03553 -0.333242,0.04598 -0.253677,0.08507 -0.266496,0.108758 -0.231242,0.341742 0.01742,0.12325 0.03553,0.14443 0.134606,0.179685 0.124714,0.03902 0.137394,0.07448 0.06131,0.176131 -0.03902,0.07448 -0.06131,0.0641 -0.105205,0.03902 -0.05086,-0.03553 -0.181844,-0.207832 -0.291439,-0.396365 -0.03553,-0.05713 -0.0425,-0.05713 -0.158156,0 -0.07803,0.03553 -0.161709,0.12325 -0.236746,0.23605 -0.16777,0.260782 -0.167422,0.264336 -0.03553,0.353446 0.139135,0.09106 0.145127,0.108759 0.03553,0.1445 -0.04598,0 -0.08159,0.04598 -0.08159,0.04598 0,0.05644 0.243504,0.320631 0.278759,0.320631 0.0216,0 0.09218,-0.03902 0.162057,-0.07448 0.120463,-0.03553 0.126107,-0.03553 0.143734,0.03902 0.01742,0.05644 0.08988,0.06758 0.249426,0 0.05086,-0.03553 0.05783,0 0.05783,0.126804 0,0.172717 -0.04947,0.222045 -0.120254,0.123319 -0.04877,-0.08514 -0.12541,-0.08514 -0.222254,-0.04598 -0.05086,0.03553 -0.05086,0.03553 -0.01184,0.112311 0.06619,0.13384 0.06619,0.13384 -0.08159,0.13384 -0.10402,0 -0.142688,0.03553 -0.187488,0.08507 -0.07211,0.108758 -0.0425,0.126873 0.267751,0.179685 0.219885,0.03902 0.34634,0.03553 0.546229,-0.04598 0.03205,-0.03553 0.06828,0.03553 0.105205,0.08507 v -0.03553 c 0.06974,0.119906 0.141644,0.119906 0.287886,0 l 0.112311,-0.09099 -0.07093,-0.09106 c -0.04041,-0.04598 -0.07211,-0.112312 -0.07211,-0.112312 0,0 0.06131,-0.06758 0.134886,-0.101652 0.0733,-0.04598 0.163799,-0.119836 0.200098,-0.179754 l 0.0648,-0.108758 -0.06758,-0.130426 c -0.03693,-0.07448 -0.06758,-0.151537 -0.06758,-0.151537 0,0 0.06619,-0.03553 0.149447,-0.05644 0.131053,-0.03553 0.168049,-0.06758 0.287467,-0.236119 0.07566,-0.108758 0.207902,-0.292344 0.294923,-0.404377 0.08751,-0.108758 0.160315,-0.190344 0.160315,-0.225529 0,-0.03902 -0.05295,-0.03902 -0.117049,0 -0.0641,0 -0.11468,0 -0.11468,0 0,0 0.07211,-0.101721 0.163869,-0.211385 0.09106,-0.105205 0.16561,-0.176131 0.16561,-0.211385 0,-0.03553 -0.123041,-0.05644 -0.273045,-0.112312 z m -3.015063,1.025643 c -0.02508,0.03902 -0.0648,0.03902 -0.07441,0.03902 -0.01393,0 -0.03553,0.06758 -0.04389,0.154951 -0.01185,0.08514 -0.02857,0.17627 -0.04041,0.211455 -0.0216,0.03553 -0.01184,0.05643 0.07448,0.05643 0.08507,0 0.09928,0.03553 0.120115,0.112312 v 0 c 0.02857,0.165611 0.135303,0.162057 0.180381,0 0.02857,-0.101652 0.0216,-0.130287 -0.04738,-0.239533 -0.04389,-0.06758 -0.09099,-0.169164 -0.101651,-0.229082 -0.01394,-0.09099 -0.03553,-0.09099 -0.06828,-0.09099 z m -1.818931,0.264337 c -0.0827,0 -0.163451,0 -0.389607,0.08507 -0.437263,0.137394 -0.438656,0.137394 -0.347734,0.264197 v 0 c 0.08389,0.119906 0.09336,0.12332 0.19132,0.05644 0.04459,-0.03902 0.105275,-0.03902 0.156414,-0.03902 0.05574,0.03553 0.119418,0 0.196615,-0.04598 l 0.112311,-0.07448 0.05295,0.07448 0.05295,0.07448 0.138369,-0.137463 c 0.15725,-0.155021 0.15084,-0.176131 -0.07204,-0.239533 -0.03553,0 -0.0641,-0.03553 -0.09106,-0.03553 z m 0.63541,0.03553 v 0.09455 c 0,0.07448 0.0216,0.08514 0.08396,0.119836 v 0 c 0.04459,0.03902 0.09573,0.03902 0.120184,0.03902 0.03902,0 0.195918,-0.172717 0.171185,-0.207902 -0.01184,0 -0.09336,-0.03902 -0.193062,-0.03902 z m 1.695193,0.09455 c -0.0216,0 -0.04111,0 -0.07448,0.03553 -0.07685,0.03553 -0.07211,0.317148 0.01184,0.353447 v -0.03553 c 0.03205,0.03902 0.105205,0.03902 0.163799,0.03902 0.137742,0 0.144849,-0.07448 0.0216,-0.25723 -0.05713,-0.09106 -0.08277,-0.126873 -0.11705,-0.130426 z m -13.844765,0.03553 c -0.03902,0 -0.05434,0.03902 -0.05434,0.115865 v 0 c 0,0.08507 0.01393,0.115795 0.0648,0.115795 0.03693,0 0.07922,-0.03902 0.104021,-0.0733 0.02857,-0.06758 0.02508,-0.08507 -0.02508,-0.115795 -0.03762,-0.03553 -0.06758,-0.04598 -0.09099,-0.04598 z m 11.597908,0.317148 c -0.02857,0 -0.06131,0 -0.114681,0.03553 -0.100467,0.03553 -0.126524,0.04598 -0.151049,0.140947 -0.02857,0.126803 -0.02857,0.126803 -0.174738,0.09218 -0.165959,-0.03553 -0.17411,0 -0.08396,0.13391 0.05783,0.08514 0.07566,0.08514 0.19125,0.08514 0.09225,0 0.139554,0 0.171185,0.03902 0.03693,0.03902 0.02857,0.07448 -0.04389,0.07448 -0.04598,0 -0.125061,0.03553 -0.174668,0.03553 l -0.09106,0.03902 0.07448,0.06758 c 0.111127,0.09099 0.464714,0.12325 0.598972,0.05644 0.101721,-0.04598 0.109943,-0.04598 0.244131,0.03902 v -0.03553 c 0.07685,0.04598 0.145894,0.08514 0.156414,0.08514 0.01184,0 0.07448,-0.06758 0.143734,-0.151537 0.130705,-0.148053 0.131123,-0.183238 0.01184,-0.218492 -0.07093,-0.03553 -0.07211,-0.03553 -0.03553,-0.228943 0.0216,-0.108758 0.01394,-0.108758 -0.04947,-0.1445 -0.05086,-0.03553 -0.09573,0 -0.149307,0.04598 -0.0648,0.05643 -0.07211,0.08514 -0.04738,0.172717 0.03205,0.112312 0.02508,0.130357 -0.06758,0.165611 -0.112312,0.03553 -0.232845,-0.09573 -0.232845,-0.236049 0,-0.08514 -0.0216,-0.148054 -0.08277,-0.200865 -0.03693,-0.04598 -0.05992,-0.06758 -0.08981,-0.06758 z m 2.361538,0.172578 c -0.08632,0 -0.08751,0 -0.02857,0.04598 v 0.03553 c 0.06271,0.03553 0.120115,0.03553 0.120115,-0.03553 0,-0.03902 -0.04111,-0.03902 -0.09099,-0.03902 z m -3.936408,0.09106 c -0.07915,0 -0.101652,0.03902 -0.136627,0.12325 -0.04389,0.108758 -0.08981,0.1445 -0.398734,0.313664 l -0.349545,0.190205 0.01184,0.236049 0.01184,0.236049 0.129382,0.03902 c 0.119696,0.03553 0.14443,0.03553 0.311086,-0.06758 0.09928,-0.05644 0.264197,-0.144431 0.364246,-0.197312 l 0.182123,-0.09573 -0.191389,0.169164 -0.189091,0.176131 0.08152,0.119766 c 0.04459,0.06758 0.108758,0.13391 0.14025,0.13391 0.03205,0.03902 -0.01742,0.03902 -0.112312,0.03902 -0.187488,0 -0.213893,0.03553 -0.185746,0.13384 0.01393,0.05643 0.07093,0.09099 0.266148,0.14443 0.176131,0.05644 0.276807,0.09928 0.34418,0.172718 0.198009,0.211385 0.04598,0.246569 -0.258623,0.0641 -0.196266,-0.126803 -0.254721,-0.126803 -0.435172,-0.09099 -0.09691,0.03553 -0.104021,0.03553 -0.104021,0.165611 0,0.137463 0.01184,0.147984 0.169443,0.228943 0.169164,0.08514 0.168816,0.08514 0.147287,0.215078 l -0.02508,0.130217 0.205812,0.09106 c 0.187418,0.112312 0.226852,0.112312 0.455238,0.07448 0.137045,0 0.319934,-0.03553 0.405979,-0.06758 0.178222,-0.05713 0.224136,-0.03902 0.224136,0.07441 0,0.08514 0.07093,0.126873 0.313106,0.176131 v -0.03553 c 0.07211,0.03902 0.176898,0.07448 0.231103,0.03902 0.08514,0 0.104021,0 0.09698,-0.08507 0,-0.04598 -0.01394,-0.112312 -0.03205,-0.147914 -0.01742,-0.04598 -0.01393,-0.07448 0.0216,-0.04598 0.178361,0.05644 0.194246,0.05644 0.22943,-0.03902 0.02857,-0.07448 0.01742,-0.105205 -0.09336,-0.239533 -0.06974,-0.08514 -0.140669,-0.158644 -0.151189,-0.193828 -0.01184,-0.03553 0.0216,-0.190205 0.07685,-0.365291 0.07915,-0.26789 0.09336,-0.345295 0.06828,-0.435173 -0.03902,-0.130356 -0.02857,-0.147983 0.06479,-0.09928 0.05992,0.03902 0.08389,0.03553 0.151189,-0.03553 0.0981,-0.08514 0.09691,-0.115865 0,-0.236049 -0.07566,-0.09106 -0.07803,-0.09106 -0.180381,-0.03902 -0.0641,0.03553 -0.104021,0.07448 -0.104021,0.115865 0,0.04598 -0.01393,0.04598 -0.07685,0.04598 -0.08751,-0.03553 -0.134328,0.05643 -0.238558,0.391557 -0.03553,0.112312 -0.07922,0.193758 -0.10402,0.193758 -0.07211,0 -0.08277,-0.08514 -0.02857,-0.214938 0.06828,-0.158504 0.06619,-0.211386 -0.01184,-0.327668 l -0.0641,-0.0958 -0.05783,0.12332 c -0.05086,0.09928 -0.07093,0.137463 -0.143733,0.09928 -0.113496,-0.03553 -0.118791,-0.03902 -0.05435,-0.112312 0.05226,-0.0641 0.05086,-0.07441 -0.06131,-0.15495 -0.0648,-0.03553 -0.140877,-0.102837 -0.165611,-0.06758 -0.06062,0.03553 -0.05922,0 0.01184,-0.09573 0.04947,-0.07448 0.04877,-0.08514 -0.01184,-0.12332 -0.05086,-0.03553 -0.05783,-0.07448 -0.04041,-0.229082 0.0216,-0.190205 0.0216,-0.190205 -0.207414,-0.225459 -0.06758,0 -0.08988,-0.03553 -0.100467,-0.12325 -0.01393,-0.101721 -0.02508,-0.115865 -0.180172,-0.151607 -0.104021,-0.03553 -0.171185,-0.03902 -0.218353,-0.03902 z m 2.800264,0.04598 -0.06828,0.07448 c -0.06758,0.0641 -0.06758,0.0641 -0.01184,0.218352 0.05434,0.151537 0.0641,0.151537 0.191041,0.151537 h 0.130984 l -0.07093,0.119767 c -0.07922,0.13391 -0.07922,0.130426 0.03205,0.172717 v 0 c 0.04459,0 0.09336,0.03902 0.104021,0.03902 0.0425,0 0.165262,-0.200864 0.147635,-0.246709 -0.01184,-0.03553 0.0209,-0.07448 0.07803,-0.115865 0.114681,-0.08514 0.127152,-0.14443 0.03693,-0.193758 -0.105205,-0.05643 -0.188463,-0.04598 -0.213127,0.03902 l -0.02508,0.07448 -0.06828,-0.08514 -0.06758,-0.08507 -0.06131,0.07448 c -0.06974,0.08507 -0.08159,0.06758 -0.112312,-0.108759 z m 1.005021,0.112312 c -0.129312,0 -0.160316,0.03553 -0.167771,0.07448 0,0.03553 0.03205,0.108759 0.07803,0.162058 0.0733,0.09225 0.09455,0.09225 0.149447,0.05713 0.03553,-0.03902 0.07922,-0.03902 0.09691,-0.03902 0.05086,0.03553 0.03693,0.334774 -0.01742,0.467848 -0.02508,0.0641 -0.04947,0.130426 -0.04947,0.130426 0,0 0.05225,0.04598 0.11705,0.08507 0.101651,0.07329 0.130008,0.07329 0.21668,0.03902 0.08389,-0.04598 0.102836,-0.04598 0.138369,0 0.0216,0.03553 0.100537,0.06758 0.173066,0.06758 v 0 c 0.07211,0 0.279037,0.03902 0.458791,0.03902 0.347803,0 0.333381,0.03553 0.469799,-0.179754 0.0733,-0.101652 0.01742,-0.183099 -0.183934,-0.253607 l -0.169164,-0.06758 -0.193062,0.08514 c -0.273045,0.112312 -0.424025,0.105205 -0.560652,-0.03902 -0.09573,-0.09928 -0.102836,-0.115865 -0.0641,-0.179684 0.0627,-0.101652 -0.02857,-0.260783 -0.165611,-0.260783 -0.07566,0 -0.108758,-0.03902 -0.132795,-0.112312 -0.03205,-0.08507 -0.04111,-0.08507 -0.191389,-0.08507 z m -0.167771,0.538844 c -0.04947,0 -0.112311,0 -0.176479,0.0733 l -0.09336,0.09099 0.06758,0.0958 v -0.03553 c 0.09218,0.158504 0.242807,0.162057 0.283914,0.03902 0.04738,-0.14443 0,-0.24657 -0.08152,-0.260713 z m 96.539774,0.183099 c 2.95612,0 4.433379,1.460746 4.433379,4.380567 0,0.577165 -0.05434,1.225743 -0.162057,1.946292 l -1.836977,10.38387 c -0.432664,2.523666 -1.190767,4.253625 -2.272288,5.190437 -1.081521,0.937927 -2.523526,1.405776 -4.326014,1.405776 -3.028371,0 -4.542765,-1.261345 -4.542765,-3.784662 0,-0.973111 0.07211,-1.909993 0.216681,-2.811551 l 1.838927,-10.38387 c 0.721107,-4.147235 2.937936,-6.256072 6.651114,-6.326859 z M -85.671977,45.38237 c -0.09336,0 -0.260017,0.06758 -0.200447,0.09099 v 0.03553 c 0.08862,0.03553 0.220234,0 0.258623,-0.03902 0.02857,-0.03902 0.02508,-0.07448 -0.02508,-0.07448 -0.01184,0 -0.0216,0 -0.03553,0 z m 0.320283,0.119697 c -0.01742,0 -0.04459,0.03902 -0.06828,0.08514 -0.02508,0.04598 -0.0641,0.08514 -0.11468,0.08514 -0.07685,0 -0.09928,0.03902 -0.05574,0.07448 v 0 c 0.05922,0.05644 0.196615,0.03553 0.25298,-0.07448 0.05922,-0.09935 0.05434,-0.165611 -0.01185,-0.165611 z m 15.911241,0 c -0.258205,0 -0.512856,0.130426 -0.365987,0.186791 0.0648,0.03553 0.0641,0.12332 0,0.176131 -0.04111,0.03553 -0.06758,0.03553 -0.143804,-0.04598 -0.07093,-0.08514 -0.0981,-0.08514 -0.129172,-0.04598 -0.0641,0.06758 -0.04598,0.13391 0.07211,0.285377 0.06131,0.07448 0.124016,0.197242 0.134537,0.271304 0.01393,0.08507 0.04111,0.141016 0.07685,0.141016 v 0 c 0.02857,0 0.07559,-0.03553 0.100467,-0.04598 0.02857,-0.03553 0.08862,-0.05643 0.152931,-0.05643 0.09225,0 0.11468,-0.03553 0.163869,-0.126873 0.05434,-0.119767 0.05574,-0.130357 0,-0.211385 -0.06131,-0.09218 -0.05922,-0.101652 0.101651,-0.285308 0.05435,-0.05713 0.06758,-0.09817 0.04389,-0.15509 -0.02508,-0.07448 -0.05086,-0.07448 -0.209365,-0.07448 z m 0.697279,0.03553 c -0.02508,0 -0.05434,0.03553 -0.112311,0.04598 -0.198357,0.108759 -0.342787,0.543652 -0.221976,0.677841 v 0 c 0.05922,0.0641 0.05922,0.0641 0.134677,0 0.04111,-0.03902 0.06828,-0.07448 0.05783,-0.112312 -0.01185,-0.03902 0.0216,-0.03902 0.129311,-0.03902 0.141644,0.03553 0.146799,0.03553 0.314918,-0.169164 0.09462,-0.105205 0.167423,-0.190275 0.160316,-0.225529 -0.01184,-0.03553 -0.07803,-0.05643 -0.162057,-0.05643 -0.08396,0 -0.185955,-0.04598 -0.223648,-0.08514 -0.03553,-0.03553 -0.05225,-0.04598 -0.07685,-0.04598 z m 1.11796,0.317217 c -0.03553,0 -0.113496,0 -0.205672,0.03902 -0.216681,0.05644 -0.22734,0.06758 -0.395181,0.285308 -0.155856,0.207832 -0.17418,0.246639 -0.174877,0.402635 v 0.172718 h 0.112312 c 0.112311,0 0.23368,0.08514 0.202258,0.13384 -0.01184,0.03553 -0.07803,0.04598 -0.149307,0.04598 -0.07211,0 -0.132865,0.04598 -0.132865,0.04598 0,0 0.118373,0.101652 0.262106,0.197312 l 0.260435,0.172717 0.209225,-0.03902 c 0.200099,-0.03553 0.216681,-0.03553 0.446251,0.105205 l 0.24016,0.126873 0.141992,-0.137394 c 0.07803,-0.07448 0.158991,-0.140877 0.169164,-0.140877 0.01393,0 0.219537,0.162057 0.455237,0.355049 0.303005,0.250193 0.465132,0.412251 0.557169,0.552779 0.122901,0.190345 0.1275,0.204418 0.09099,0.324185 -0.02857,0.08507 -0.07211,0.14443 -0.163869,0.197242 -0.145127,0.08514 -0.149377,0.0958 -0.05922,0.207971 0.03902,0.04598 0.0648,0.07448 0.0648,0.108758 0,0 -0.05922,0.05644 -0.129311,0.09099 -0.105205,0.07448 -0.179336,0.07448 -0.427787,0.07448 h -0.302308 v 0.232496 0.236119 l 0.174738,-0.03902 c 0.109943,0 0.212082,-0.04598 0.275205,-0.08514 0.05434,-0.03902 0.150492,-0.09218 0.213127,-0.09218 0.101652,0 0.135025,0 0.315058,0.162057 0.111127,0.09455 0.238418,0.225459 0.282172,0.288931 0.12966,0.200795 0.154742,0.200795 0.353168,0.200795 0.179336,0 0.192017,0 0.274857,0.126873 0.08159,0.12332 0.09928,0.126734 0.329828,0.162057 l 0.01184,0.04598 c 0.299033,0.03553 0.391349,0.07448 0.391349,0.03553 0,-0.03553 -0.0209,-0.07448 -0.05295,-0.13398 -0.04598,-0.0981 -0.08988,-0.130217 -0.269562,-0.193688 -0.1592,-0.05644 -0.232147,-0.101722 -0.276946,-0.172648 -0.08159,-0.13391 -0.07922,-0.169164 0.01184,-0.13391 0.10402,0.03553 0.388561,0.165611 0.495299,0.236049 0.08744,0.04598 0.09099,0.03902 0.172927,-0.03902 0.101651,-0.0981 0.102836,-0.133771 0.01184,-0.382291 -0.06828,-0.183099 -0.09106,-0.207763 -0.249427,-0.281824 -0.119766,-0.05644 -0.219885,-0.140877 -0.324184,-0.274787 -0.141574,-0.176131 -0.149377,-0.193758 -0.111058,-0.288931 0.0209,-0.05643 0.05434,-0.07448 0.0648,-0.112311 0.04041,-0.03553 0.371631,0.225529 0.542606,0.406676 0.08625,0.09573 0.171464,0.151537 0.189091,0.151537 0.04459,-0.03553 0.176479,-0.338328 0.240369,-0.564832 0.02857,-0.108758 0.06271,-0.218422 0.07211,-0.253676 0.01394,-0.05644 -0.01184,-0.05644 -0.231102,-0.05644 h -0.245664 l -0.02508,-0.0958 c -0.0216,-0.0981 -0.07803,-0.126803 -0.384103,-0.179685 -0.179336,-0.03553 -0.449594,-0.200795 -0.509861,-0.317008 -0.06131,-0.115865 -0.0641,-0.115865 0.07803,-0.151537 l 0.108758,-0.03902 -0.117049,-0.232566 c -0.09336,-0.190205 -0.143385,-0.250123 -0.256881,-0.313455 -0.07803,-0.04598 -0.253328,-0.158644 -0.389607,-0.250262 -0.240926,-0.169095 -0.252631,-0.169095 -0.395041,-0.133841 l -0.145545,0.03902 -0.169373,-0.190345 c -0.174529,-0.204278 -0.218492,-0.214869 -0.440607,-0.16561 -0.0804,0.03553 -0.104021,0.04598 -0.111127,0.112311 -0.01185,0.09928 -0.0733,0.105205 -0.254722,0.03902 l -0.08514,-0.03902 0.131123,-0.112311 c 0.113496,-0.0733 0.157111,-0.112312 0.305791,-0.112312 h 0.172926 c 0,-0.06758 -0.0827,-0.197242 -0.125758,-0.232496 -0.160316,-0.07448 -0.528881,-0.06758 -0.730095,-0.03902 -0.1762,0.03553 -0.244549,0.06758 -0.314987,0.13384 -0.08514,0.08507 -0.08632,0.0981 -0.04947,0.214869 0.03902,0.108758 0.03553,0.123459 -0.03762,0.179684 -0.08862,0.0641 -0.10402,0.05713 -0.154602,-0.09455 -0.05086,-0.15509 -0.01394,-0.317147 0.09691,-0.426045 0.05225,-0.04598 0.09462,-0.07448 0.09462,-0.112312 0,0 -0.01185,0 -0.01742,0 z m -14.694975,0.672127 c -0.01184,0 -0.02857,0 -0.04738,0 -0.111127,0.03553 -0.254791,0.12339 -0.254791,0.176271 0,0.03553 0.04389,0.07448 0.0981,0.105205 v 0 c 0.141643,0.0981 0.391209,0.09573 0.45893,0 0.04459,-0.0641 0.04389,-0.07448 -0.01184,-0.108758 -0.03205,0 -0.09099,-0.04598 -0.131053,-0.04598 -0.05086,0 -0.07448,-0.03553 -0.07448,-0.0641 0,-0.03902 -0.01184,-0.06758 -0.04389,-0.06758 z m 0.409603,0 c -0.07685,0 -0.101652,0 -0.101652,0.0641 0,0.05643 0.01742,0.05643 0.09106,0.05643 0.05574,0 0.09454,-0.03902 0.101652,-0.07448 0.01184,-0.05713 -0.01185,-0.05713 -0.09106,-0.05713 z m 142.636551,0.126873 h 3.406551 l -0.595419,13.734893 h -7.082454 z m -126.938297,1.337427 c -0.04598,0 -0.101652,0.03553 -0.18916,0.08514 l -0.156832,0.112242 0.14032,0.09106 0.141922,0.09218 0.12757,-0.06758 0.129311,-0.06758 -0.05922,-0.0981 c -0.05086,-0.08514 -0.08632,-0.13384 -0.132865,-0.1445 z m -1.822485,0.930542 c -0.0425,0 -0.08751,0 -0.105205,0.03902 -0.01393,0.03553 -0.0648,0.165611 -0.108758,0.334705 -0.05713,0.211316 -0.105205,0.324115 -0.158643,0.369263 l -0.07685,0.06758 h 0.123808 c 0.122901,0 0.123598,0 0.123598,0.13391 v 0 c 0,0.0733 0,0.13384 0.01184,0.13384 0.04598,0 0.319169,-0.140877 0.415037,-0.211385 0.143386,-0.123251 0.33157,-0.13391 0.33157,-0.03902 0,0.03553 0.0216,0.06758 0.04598,0.06758 0.02508,0 0.09099,0.03902 0.145893,0.03902 0.08744,0.03553 0.107574,0 0.152791,-0.07448 0.02508,-0.05713 0.04111,-0.08514 0.03205,-0.119766 -0.01185,-0.03902 -0.08632,-0.03902 -0.167423,-0.03902 -0.129938,0 -0.143036,0 -0.121856,-0.05643 0.06131,-0.1445 0.05574,-0.162127 -0.09698,-0.218492 -0.08507,-0.03553 -0.181774,-0.0981 -0.222184,-0.154951 -0.05225,-0.04598 -0.09106,-0.08514 -0.147636,-0.08514 -0.06131,0 -0.07803,0 -0.08514,-0.07448 -0.01184,-0.05643 -0.03205,-0.09454 -0.08988,-0.09454 z m -42.482743,0.619107 3.22805,3.132112 -4.04196,8.474643 7.32303,-5.294109 3.12424,3.029625 -14.30711,10.378226 -3.14256,-3.046206 4.4462,-8.961513 -7.8145,5.695073 -3.14069,-3.047252 z m 42.894088,0.547762 c -0.09336,0 -0.194804,0.04598 -0.220095,0.115865 -0.04459,0.119766 -0.04041,0.137394 0.05922,0.172578 0.05086,0 0.09817,0.03902 0.108758,0.03902 0.01184,0 0.06898,-0.04598 0.130984,-0.112311 0.102906,-0.105205 0.108758,-0.119697 0.05922,-0.169025 -0.03205,-0.03553 -0.08514,-0.04598 -0.14025,-0.04598 z m 0.608238,0.281963 c -0.02508,0.03553 -0.04598,0.154951 -0.03693,0.218353 v 0.03553 c 0.01184,0.06758 0.105205,0.03553 0.151188,-0.06758 0.04598,-0.09106 0.04598,-0.09817 -0.0216,-0.13384 -0.03902,-0.03553 -0.08514,-0.03553 -0.09698,-0.03553 z m -13.152851,0.260644 c -0.0216,0 -0.0425,0 -0.07685,0.03553 -0.06131,0.03553 -0.0804,0.06758 -0.0804,0.158504 0,0.06758 -0.01184,0.260783 -0.0216,0.432664 v 0 c -0.01742,0.288931 -0.01394,0.303144 0.03205,0.229152 0.02857,-0.04598 0.05086,-0.162127 0.05086,-0.25723 0,-0.15502 0.01394,-0.193758 0.120255,-0.310111 l 0.118303,-0.13384 -0.07211,-0.07441 c -0.03205,-0.03902 -0.05295,-0.05713 -0.07448,-0.0641 z m 12.60481,3.423342 c -0.02508,0 -0.04598,0 -0.05644,0.03553 -0.04389,0.04598 0,0.0981 0.136627,0.169024 v 0 c 0.06758,0.03553 0.124086,0.0641 0.131123,0.0641 0,0 0.01184,-0.03902 0.01184,-0.08507 0,-0.05713 -0.02508,-0.09461 -0.120115,-0.130287 -0.03902,-0.03902 -0.07093,-0.05643 -0.09691,-0.05643 z m 4.903109,1.264759 0.225877,0.123389 c 0.177942,0.09099 0.26134,0.12332 0.398734,0.12332 h 0.173065 c 0,0 -0.07922,-0.06758 -0.176479,-0.13398 -0.164914,-0.112311 -0.192087,-0.112311 -0.398734,-0.112311 z m 3.526735,0.193828 c -0.01184,0 -0.01393,0 -0.02857,0.03553 -0.04738,0.04598 -0.179684,0.47809 -0.185746,0.589774 0,0.09573 0.04389,0.101652 0.0981,0.03902 0.0216,0 0.05295,-0.04598 0.07093,-0.04598 0.01812,0 0.02857,0.03553 0.02857,0.04598 0,0.04598 0.04598,0.05643 0.138508,0 0.06271,-0.03553 0.06758,-0.05713 0.04389,-0.218492 -0.03553,-0.26775 -0.04389,-0.285308 -0.123668,-0.214869 -0.06828,0.05643 -0.06974,0.05643 -0.04598,-0.09225 0.01184,-0.08507 0.01393,-0.115795 0.01184,-0.119697 z m -2.130227,0.918906 c -0.08152,0 -0.105204,0.03553 -0.149377,0.130357 -0.02857,0.07448 -0.05295,0.183098 -0.05295,0.25709 0,0.123459 0.01184,0.126873 0.123668,0.162057 v 0.03553 c 0.06828,0 0.135024,0.03902 0.145545,0.03902 0.01184,0 0.06758,-0.04598 0.123947,-0.123251 0.08751,-0.108758 0.09461,-0.13384 0.05295,-0.169094 -0.02508,-0.03902 -0.06974,-0.07441 -0.0981,-0.03902 -0.03902,0 -0.04947,-0.03553 -0.04947,-0.130427 0,-0.147983 -0.01185,-0.147983 -0.09691,-0.147983 z m -69.276292,5.904646 57.193954,55.80267 c -2.599468,2.09845 -5.312084,3.87628 -8.014667,5.19998 -8.091586,3.9626 -11.043596,4.1519 -17.416858,1.11475 -16.201709,-7.72051 -25.887529,-20.81525 -30.378669,-41.072086 -1.09427,-4.935785 -1.5254,-12.963969 -1.38376,-21.045314 z m 31.316249,0.620779 c 1.86798,0 3.692834,0.881214 5.471216,2.605461 2.789116,2.704464 3.077698,5.19615 0.866652,7.475405 -0.370238,0.382291 -0.808824,0.753226 -1.316316,1.115103 l -3.974658,2.883174 c -1.837743,1.339447 -3.595153,1.947337 -5.272723,1.824365 -1.67777,-0.123389 -3.35625,-0.995685 -5.0343,-2.623087 -1.67805,-1.626776 -2.47016,-3.149182 -2.37784,-4.565129 0.0648,-0.969698 0.55097,-1.922395 1.46019,-2.859904 0.40403,-0.416848 0.89424,-0.82868 1.46931,-1.236262 l 3.97459,-2.884289 c 1.60929,-1.166172 3.18618,-1.743964 4.733879,-1.734837 z m 32.567139,3.182625 c -0.01742,0 -0.02857,0.05643 -0.02857,0.126803 0,0.09928 0.01742,0.151537 0.07803,0.193758 0.05434,0.04598 0.07211,0.08514 0.06131,0.151537 -0.01394,0.06758 0,0.101652 0.06131,0.151537 l 0.07685,0.05644 0.01184,-0.09817 c 0.01184,-0.06758 -0.01184,-0.09099 -0.03762,-0.126804 -0.02857,0 -0.06271,-0.09106 -0.07211,-0.16561 -0.02508,-0.1445 -0.100467,-0.288931 -0.151188,-0.288931 z m -32.093647,0.815652 c -0.68425,0 -1.407451,0.264197 -2.168551,0.817742 l -3.82165,2.760133 c -0.32698,0.243086 -0.64203,0.522889 -0.94497,0.835299 -0.78562,0.810148 -0.69177,1.686345 0.28036,2.629497 v 0 c 0.57877,0.561279 1.18722,0.85864 1.82632,0.894173 0.63889,0.03902 1.42054,-0.281824 2.34495,-0.959386 l 3.821665,-2.760132 c 0.259389,-0.197312 0.479623,-0.387865 0.659168,-0.573193 0.909013,-0.937927 0.888808,-1.867284 -0.05922,-2.787374 -0.607054,-0.566784 -1.253054,-0.852857 -1.937165,-0.859616 z m 30.360273,0.06758 c -0.264893,0 -0.331569,0 -0.52059,0.09928 -0.217029,0.0981 -0.251308,0.13384 -0.329828,0.385705 -0.01742,0.04598 -0.01184,0.04598 0.09691,0.04598 0.07803,0 0.13384,-0.03902 0.169164,-0.09099 0.03205,-0.04598 0.08159,-0.07448 0.14025,-0.07448 0.05225,0 0.121508,-0.03553 0.167213,-0.08514 0.06974,-0.08514 0.102906,-0.08514 0.336935,-0.08514 h 0.258623 l -0.05086,0.09817 -0.05086,0.101652 h 0.274718 0.274857 l 0.174737,0.151537 c 0.167353,0.151467 0.18289,0.151467 0.386054,0.151467 0.194803,0 0.21243,0 0.213127,0.07441 0,0.151607 0.152652,0.253746 0.373303,0.288931 0.143455,0 0.175087,0.03553 0.182193,0.08514 0.01184,0.03902 -0.01393,0.115865 -0.0425,0.172578 l -0.05295,0.105205 h 0.400476 c 0.353934,0 0.632066,-0.03902 0.855853,-0.119766 0.08751,-0.03553 -0.189927,-0.243156 -0.318541,-0.243156 -0.08869,0 -0.11907,-0.03553 -0.160316,-0.0981 -0.02857,-0.05643 -0.0648,-0.101651 -0.07448,-0.101651 -0.01393,0 -0.126106,-0.03902 -0.251168,-0.03902 -0.192016,-0.03553 -0.246639,-0.04598 -0.347803,-0.141016 -0.182402,-0.172648 -0.429738,-0.313525 -0.624542,-0.353378 -0.101651,-0.03553 -0.226225,-0.07448 -0.296664,-0.130356 -0.105274,-0.08514 -0.174737,-0.108758 -0.500664,-0.151467 -0.20832,-0.03553 -0.515783,-0.05644 -0.682787,-0.05644 z m -0.123668,0.550062 c -0.05643,0 -0.120184,0.07441 -0.120184,0.140877 0,0.03902 0.03205,0.03902 0.09099,0.03902 0.108758,-0.03553 0.147287,-0.137463 0.05295,-0.172717 -0.01184,0 -0.01393,0 -0.02508,0 z m 4.014719,0.766254 c -0.04041,0 -0.07093,0 -0.123598,0.04598 -0.139971,0.07448 -0.145545,0.112311 -0.01742,0.112311 0.109943,0 0.200377,0.0733 0.200377,0.165472 0,0.03902 0.03762,0.106389 0.08396,0.162127 0.04598,0.05643 0.08152,0.08507 0.08152,0.115795 0,0 -0.04877,0.03553 -0.107574,0.05713 -0.07915,0.03553 -0.155648,0.03553 -0.300496,0 -0.143386,-0.03902 -0.220234,-0.03902 -0.296595,0 -0.142061,0.04598 -0.142061,0.04598 -0.03693,0.158504 l 0.09462,0.09573 0.07685,-0.07448 c 0.06828,-0.03902 0.111058,-0.06758 0.413156,-0.06758 l 0.336865,0.03902 0.0981,0.119906 v 0 l 0.09817,0.12325 0.06758,-0.09573 c 0.03762,-0.05643 0.09454,-0.115865 0.125758,-0.151398 0.0641,-0.07448 0.175783,-0.08514 0.207484,-0.03902 0.03205,0.04598 0.06828,0.03902 0.173065,-0.04598 0.09573,-0.09106 0.0981,-0.09106 0.291369,-0.03553 0.107574,0.03553 0.210271,0.04598 0.235004,0.08514 0.02857,0.03553 0.05574,0 0.09336,-0.07448 0.05086,-0.09817 0.04947,-0.101721 -0.04041,-0.214938 -0.08159,-0.115865 -0.108758,-0.115865 -0.243922,-0.115865 -0.13391,0 -0.170906,0 -0.282172,-0.126803 -0.11698,-0.112312 -0.146591,-0.112312 -0.358673,-0.148054 -0.133909,-0.03902 -0.286004,-0.03902 -0.360483,0 -0.101722,0 -0.169164,0 -0.325927,-0.03902 -0.09343,-0.03553 -0.143385,-0.04598 -0.183934,-0.04598 z m -1.085144,0.538984 c -0.04111,0 -0.04598,0 -0.01184,0.04598 0.0209,0 0.04738,0.04598 0.05435,0.04598 0,0 0.01184,0 0.01184,-0.04598 0,0 -0.02508,-0.04598 -0.05434,-0.04598 z m 3.504859,0.07448 c -0.10639,0 -0.111127,0 -0.111127,0.05643 0,0.03902 -0.01184,0.08507 -0.0216,0.119836 v 0.03553 c -0.01742,0.05643 0.0216,0.05643 0.291369,0.05643 0.285029,0 0.315964,0 0.384033,-0.07448 l 0.07448,-0.07448 -0.108758,-0.03553 c -0.05922,0 -0.225042,0 -0.365919,-0.03902 -0.06131,0 -0.108758,0 -0.143803,0 z m -4.145842,0.126873 c -0.05086,0 -0.112312,0 -0.207414,0.03553 -0.246013,0.03902 -0.294296,0.05643 -0.205812,0.09099 0.03205,0.03553 0.07211,0.06758 0.08981,0.105205 v 0 c 0.02857,0.09106 0.03762,0.09106 0.25298,0.05643 0.198357,-0.03553 0.338537,-0.08514 0.338537,-0.147914 0,0 -0.05434,-0.04598 -0.123598,-0.07448 -0.05225,-0.03902 -0.09343,-0.05643 -0.143804,-0.05643 z m -19.330404,4.666641 5.727958,5.556913 -12.051334,12.565166 -3.297305,-3.199555 2.745571,-2.624063 -2.898501,-2.810645 -3.49392,1.900866 -3.315633,-3.21537 z m -1.158021,4.771986 -5.647765,3.080764 2.27403,2.204845 4.466195,-4.224084 z m -34.502423,0.535152 -1.51858,2.224981 h -2.69464 l 1.64775,2.131968 -0.82297,2.56519 2.53621,-0.906783 2.18673,1.575148 -0.0804,-2.69485 2.17391,-1.591521 -2.5854,-0.756779 z m 45.31199,4.053178 3.262817,3.16465 -3.949157,7.790393 9.798972,-2.11685 3.281002,3.180535 -14.325434,10.361646 -3.140682,-3.04656 8.083922,-5.836364 -6.74754,1.60873 -2.27403,-2.206308 2.892998,-5.343438 -8.083783,5.834626 -3.124518,-3.029763 z m 67.3445585,1.232083 c -11.9455715,0 -17.9176605,4.642674 -17.9176605,13.925515 0,2.182346 0.628861,4.014026 1.886304,5.492466 1.257443,1.44207 2.772883,2.51523 4.54806,3.21809 1.812242,0.66558 3.606928,1.25758 5.382105,1.77476 1.812173,0.51752 3.34719,1.1645 4.604633,1.94106 1.257374,0.7765 1.8861653,1.77567 1.8861653,2.99688 0,2.29229 -1.8493083,3.43902 -5.5477163,3.43902 -3.661342,0 -5.493093,-1.27716 -5.493093,-3.82876 0,-0.2959 0.03762,-0.62817 0.111128,-0.9982 l 0.111127,-0.66585 h -9.984927 l -0.167214,0.88859 c -0.222045,1.22003 -0.331639,2.3483 -0.331639,3.38489 0,2.73686 0.79489,4.88074 2.385226,6.4338 2.144928,2.07129 6.138745,3.10613 11.98208,3.10613 5.8433351,0 10.1708127,-1.12667 12.9816665,-3.38265 2.81078422,-2.29326 4.2150267,-5.7892 4.2150267,-10.48574 0,-2.32962 -0.6271191,-4.21628 -1.88442305,-5.65835 -1.25758255,-1.47942 -2.79253005,-2.53363 -4.60477275,-3.16291 -1.8120337,-0.62851 -3.6243461,-1.14687 -5.4365191,-1.55306 -1.7752473,-0.44388 -3.2925673,-1.03484 -4.5500103,-1.775038 -1.257304,-0.739222 -1.886165,-1.737624 -1.886165,-2.995137 0,-2.515026 1.978271,-3.772748 5.935372,-3.772748 3.1436775,0 4.7157603,1.2008 4.7157603,3.604977 0,1.294927 -0.4063281,2.368715 -1.2199597,3.218924 H 2.9804177 L 3.4246474,98.82023 c 0.2960371,-0.407304 0.5731929,-1.090927 0.8319554,-2.052682 0.296037,-0.998541 0.4424879,-2.035124 0.4424879,-3.108284 0,-2.921493 -1.1268776,-5.19399 -3.3828624,-6.821741 -2.21898878,-1.664817 -5.511556,-2.498444 -9.8754721,-2.498444 z m 36.2814325,0 c -10.39244,0 -16.458099,4.956617 -18.19628,14.868737 L 7.5849118,110.30297 c -0.296037,1.59041 -0.4441601,3.05115 -0.4441601,4.38224 0,2.99514 0.7206192,5.34518 2.1629724,7.04664 2.1080709,2.47796 5.8438919,3.71562 11.2064889,3.71562 5.362597,0 9.524116,-1.23766 12.482744,-3.71562 2.958629,-2.47796 4.880396,-6.28875 5.76802,-11.42888 l 1.942669,-11.095154 c 0.259041,-1.405566 0.387865,-2.71826 0.387865,-3.938359 0,-7.286245 -4.456441,-10.930378 -13.369392,-10.930378 z m 36.891133,0 c -10.355374,0 -16.36432,4.67967 -18.028649,14.036503 L 44.308764,111.1345 c -0.258971,1.44312 -0.387795,2.79211 -0.387795,4.04969 0,2.92219 0.702992,5.19685 2.108419,6.8246 2.03373,2.29228 5.696605,3.43867 10.984235,3.43867 10.243341,0 16.105278,-4.3086 17.584558,-12.92482 L 74.8768,110.9128 h -9.98653 c -0.702783,3.95703 -2.810017,5.9353 -6.323445,5.9353 -2.921703,0 -4.382449,-1.22038 -4.382449,-3.66099 0,-0.92455 0.09099,-1.86624 0.276946,-2.82813 l 1.942739,-11.206145 c 0.702644,-4.142777 2.921075,-6.214061 6.656479,-6.214061 1.368292,0 2.403481,0.408279 3.106055,1.221144 0.702783,0.776496 1.054349,1.849796 1.054349,3.218227 0,2.5886 -0.611165,4.584495 -1.831751,5.989155 h 9.819177 l 0.611791,-1.10834 c 0.406746,-0.70285 0.813005,-1.77469 1.21982,-3.217113 0.443742,-1.479071 0.666345,-2.959604 0.666345,-4.439023 0,-3.180813 -1.111062,-5.676052 -3.330051,-7.488504 -2.219058,-1.849308 -5.472609,-2.775251 -9.762673,-2.775251 z m 35.891826,0 c -10.355375,0 -16.36446,4.67967 -18.028789,14.036503 L 80.20226,111.13451 c -0.258902,1.44312 -0.389607,2.79211 -0.389607,4.04969 0,2.92219 0.702992,5.19685 2.10828,6.8246 2.034218,2.29228 5.695838,3.43867 10.984374,3.43867 10.244523,0 16.106883,-4.30755 17.586303,-12.92482 l 0.27666,-1.60984 h -9.98478 c -0.70265,3.95703 -2.811693,5.9353 -6.325051,5.9353 -2.921772,0 -4.382519,-1.22038 -4.382519,-3.66099 0,-0.92455 0.09225,-1.86624 0.276877,-2.82813 l 1.942669,-11.206145 c 0.702644,-4.142777 2.921285,-6.214061 6.656688,-6.214061 1.368296,0 2.403346,0.408279 3.105986,1.221144 0.70264,0.776496 1.05421,1.849796 1.05421,3.218227 0,2.5886 -0.60935,4.584495 -1.8298,5.989155 h 9.81918 l 0.60984,-1.10834 c 0.40681,-0.70285 0.81307,-1.77469 1.21996,-3.217113 0.44367,-1.479071 0.66634,-2.959604 0.66634,-4.439023 0,-3.180813 -1.10925,-5.676052 -3.32824,-7.488504 -2.21906,-1.849308 -5.47442,-2.775251 -9.76441,-2.775251 z m 21.30233,0.389746 -7.04441,39.943195 h 27.84782 l 1.55307,-8.65363 h -17.8629 l 1.11057,-6.49087 h 14.75503 l 1.55495,-8.65572 h -14.75692 l 1.27626,-7.489135 h 17.86304 l 1.55306,-8.65384 z m 34.22938,0 -7.04616,39.943195 h 10.65114 l 2.27403,-14.92462 h 3.43936 l 4.661,14.92462 h 11.20656 L 176.174,108.47296 c 1.33129,-0.62928 2.5323,-1.6823 3.60483,-3.16277 1.10953,-1.47851 1.8868,-3.42014 2.33054,-5.824452 l 0.7774,-4.327268 c 0.14798,-0.813911 0.22198,-1.591173 0.22198,-2.330674 0,-2.144997 -0.66586,-3.919686 -1.9973,-5.325461 -1.77517,-1.849796 -4.77094,-2.77351 -8.98708,-2.77351 z m -268.5297,2.760481 -1.5185,2.224911 h -2.69457 l 1.64767,2.131968 -0.82303,2.56526 2.53815,-0.906923 2.18478,1.575357 -0.078,-2.695058 2.17203,-1.590964 -2.58532,-0.757894 z m 138.772956,5.449478 c 3.03262,0 4.54806,1.498091 4.54806,4.493228 0,0.591934 -0.05435,1.258488 -0.165611,1.99771 L 28.77633,110.08098 c -0.443812,2.58895 -1.221005,4.36399 -2.330604,5.32581 -1.109529,0.96113 -2.587833,1.44131 -4.437071,1.44131 -3.106473,0 -4.660999,-1.29297 -4.660999,-3.88185 0,-0.99813 0.0733,-1.96037 0.222046,-2.88527 l 1.886164,-10.651268 c 0.73964,-4.254392 3.014785,-6.417991 6.824041,-6.490938 z m 138.188464,0.443881 h 4.16034 c 2.51482,0 3.77247,1.497743 3.77247,4.493995 0,1.553062 -0.42563,2.81057 -1.27633,3.77268 -0.85048,0.9249 -2.25487,1.38724 -4.21481,1.38724 h -3.88374 z m -268.23839,2.542059 -1.51844,2.224981 h -2.69464 l 1.64775,2.131965 -0.82123,2.56742 2.53628,-0.90901 2.18666,1.57459 -0.0804,-2.69255 2.17391,-1.592915 -2.58728,-0.756082 z m 8.724906,8.435486 -1.518435,2.22714 h -2.69464 l 1.647607,2.1319 -0.822898,2.56749 2.536276,-0.90839 2.186591,1.5746 -0.0804,-2.69214 2.173911,-1.59326 -2.585394,-0.75573 z m 8.722956,8.43549 -1.518436,2.2261 h -2.69464 l 1.647746,2.13189 -0.822967,2.56526 2.538017,-0.90789 2.18492,1.57459 -0.07803,-2.69325 2.172169,-1.59326 -2.585464,-0.75504 z" />
  </g>
</svg>
