<?xml version="1.0" encoding="UTF-8" standalone="no"?>
<!-- Created with Inkscape (http://www.inkscape.org/) -->

<svg
   width="162.70488mm"
   height="51.065277mm"
   viewBox="0 0 162.70488 51.065277"
   version="1.1"
   id="svg2938"
   inkscape:version="1.1 (c68e22c387, 2021-05-23)"
   sodipodi:docname="noamlogowhite.svg"
   xmlns:inkscape="http://www.inkscape.org/namespaces/inkscape"
   xmlns:sodipodi="http://sodipodi.sourceforge.net/DTD/sodipodi-0.dtd"
   xmlns="http://www.w3.org/2000/svg"
   xmlns:svg="http://www.w3.org/2000/svg">
  <sodipodi:namedview
     id="namedview2940"
     pagecolor="#ffffff"
     bordercolor="#666666"
     borderopacity="1.0"
     inkscape:pageshadow="2"
     inkscape:pageopacity="0.0"
     inkscape:pagecheckerboard="0"
     inkscape:document-units="mm"
     showgrid="false"
     inkscape:zoom="0.76435185"
     inkscape:cx="266.89279"
     inkscape:cy="8.503937"
     inkscape:window-width="1920"
     inkscape:window-height="1017"
     inkscape:window-x="1358"
     inkscape:window-y="-8"
     inkscape:window-maximized="1"
     inkscape:current-layer="layer1" />
  <defs
     id="defs2935" />
  <g
     inkscape:label="Layer 1"
     inkscape:groupmode="layer"
     id="layer1"
     transform="translate(-34.262944,-146.50578)">
    <path
       id="path13366-1-9-3-7-5"
       style="font-size:22.0376px;line-height:1.25;font-family:'Fugaz One';-inkscape-font-specification:'Fugaz One';letter-spacing:0px;word-spacing:0px;fill:#ffffff;stroke-width:0.710713"
       d="m 56.507626,146.5076 c -7.342883,0 -14.68582,0.22317 -17.098807,0.66988 -2.47107,0.45658 -3.571866,0.88614 -3.739601,1.4574 -1.568323,5.34472 -1.90159,18.83876 -0.609262,24.66738 2.525093,11.38966 7.970887,18.75298 17.080124,23.09349 v 0 c 3.583387,1.70783 5.242723,1.60097 9.79218,-0.62675 5.043178,-2.47027 10.154767,-7.73848 12.768584,-13.1614 3.181273,-6.60063 4.066495,-11.79391 3.749911,-21.99066 -0.141014,-4.54163 -0.503619,-9.27863 -0.806154,-10.52642 l -0.549568,-2.26921 -3.491411,-0.64583 c -2.410873,-0.44707 -9.753144,-0.67024 -17.095996,-0.6697 z m -0.01266,2.26164 c 6.692621,0 13.385242,0.20348 15.582594,0.61099 l 3.181655,0.58895 0.501038,2.06748 c 0.275742,1.13748 0.606694,5.45564 0.735248,9.59533 0.250086,8.05579 -0.325373,12.68477 -2.370843,17.69316 L 43.173996,149.12653 c 3.110355,-0.23656 8.212197,-0.35729 13.320969,-0.35729 z m 61.628804,0.55787 c -5.19132,0 -8.22041,2.47596 -9.08869,7.42704 l -0.97038,5.5419 c -0.14769,0.79449 -0.22205,1.52392 -0.22205,2.18889 0,1.49677 0.36088,2.66999 1.08141,3.51985 1.05302,1.23774 2.9185,1.85649 5.59727,1.85649 2.67879,0 4.75751,-0.61875 6.23545,-1.85649 1.47795,-1.23768 2.43879,-3.14051 2.88215,-5.70874 l 0.96943,-5.5419 c 0.12928,-0.70216 0.1941,-1.35811 0.1941,-1.96765 0,-3.63974 -2.22635,-5.45939 -6.67869,-5.45939 z m -26.574695,0.19391 -3.519417,19.95225 h 5.015051 l 1.884761,-10.91861 3.491374,10.91861 h 5.016006 l 3.49141,-19.95225 h -4.988 l -1.80075,10.19839 -3.436381,-10.19839 z m 39.848975,0 -7.12185,19.95225 h 5.29311 l 1.35757,-4.35099 h 4.62787 l -0.16611,4.35099 h 5.26513 l -0.11104,-19.95225 z m 15.40719,0 -3.51936,19.95225 h 4.98799 l 1.99575,-11.25064 1.8838,6.70574 h 3.63044 l 4.2677,-6.70574 -1.99482,11.25064 h 5.01503 l 3.51942,-19.95225 h -5.23714 l -6.37356,9.56013 -2.96517,-9.56013 z m -75.767086,2.11249 -0.03719,0.0382 c -0.03162,0.0327 -0.03483,0.0466 -0.0186,0.0758 0.01623,0.0291 0.01442,0.0485 -0.0055,0.0866 -0.03162,0.065 -0.04495,0.0668 -0.123138,0.02 l -0.05979,-0.0382 0.01266,0.0576 c 0.01084,0.0521 0.0072,0.0521 -0.01266,0.0345 -0.01805,-0.02 -0.03392,-0.02 -0.0587,0 -0.0186,0.02 -0.0587,0.02 -0.08955,0.02 h -0.05597 l 0.06247,-0.0557 c 0.03429,-0.0291 0.06825,-0.0758 0.07366,-0.1011 l 0.01266,-0.0466 h -0.105443 c -0.08017,0 -0.117001,0.0182 -0.15582,0.0382 l -0.05131,0.0382 0.01266,-0.0382 c 0.01084,-0.0382 0.0055,-0.0382 -0.03719,-0.0382 -0.02726,0 -0.101469,0.0236 -0.164126,0.0503 -0.0872,0.0382 -0.110858,0.0575 -0.105443,0.0794 0.0055,0.0182 0.01084,0.0382 0.01448,0.0539 0.0055,0.0182 -0.01448,0.0291 -0.04949,0.0485 -0.05579,0.0236 -0.05743,0.0291 -0.04495,0.10655 l 0.01266,0.0794 h -0.06446 -0.06536 l 0.03719,0.0345 0.03829,0.0345 -0.0421,0.0291 c -0.05216,0.0345 -0.08342,0.0345 -0.111041,0 -0.01914,-0.0236 -0.03199,-0.0182 -0.10454,0.0576 -0.06392,0.0614 -0.07818,0.0903 -0.07276,0.11916 0.009,0.0382 0.0055,0.0382 -0.02908,0.0382 -0.02526,0 -0.06392,0.0291 -0.112845,0.0867 -0.06392,0.074 -0.0733,0.0939 -0.05888,0.13182 0.01442,0.0436 0.02617,0.0436 0.07836,0.0436 0.05434,0 0.06301,0 0.07927,0.0491 0.02635,0.074 0.02344,0.0921 -0.01266,0.0758 -0.03429,-0.0182 -0.147151,0.0704 -0.261202,0.18924 l -0.06536,0.0686 0.05598,0.0436 c 0.07457,0.0557 0.200975,0.0758 0.25658,0.0382 0.03829,-0.02 0.04065,-0.02 0.05131,0.0182 0.0072,0.0291 0,0.0503 -0.02635,0.0776 -0.03053,0.0382 -0.05379,0.0382 -0.147326,0.0382 h -0.111943 l 0.06247,0.0327 c 0.03538,0.02 0.07818,0.0632 0.09985,0.10111 0.03574,0.0686 0.04259,0.0686 0.115735,0.0686 0.05198,0 0.100027,-0.0182 0.145527,-0.0436 0.05852,-0.0436 0.08829,-0.0436 0.216502,-0.0436 h 0.148236 l 0.07276,0.074 c 0.0401,0.0382 0.122599,0.0993 0.18196,0.13357 0.07367,0.0436 0.133975,0.0939 0.188448,0.16253 0.08432,0.1065 0.113384,0.19064 0.11393,0.32592 0,0.065 0.0072,0.0848 0.04204,0.10649 0.05525,0.0345 0.05616,0.0382 0.08486,-0.0345 0.02241,-0.0575 0.03053,-0.0575 0.09046,-0.0575 0.05434,0 0.08612,0.0182 0.174412,0.0867 0.05943,0.0466 0.110319,0.0831 0.113748,0.10111 0.0055,0 -0.0547,0.02 -0.130541,0.02 -0.136313,0 -0.160333,0.0182 -0.111943,0.0503 0.03338,0.0327 0.03108,0.0382 -0.009,0.0575 -0.0547,0.0182 -0.01266,0.10831 0.06337,0.13903 0.07981,0.0236 0.111404,0.0236 0.14932,-0.02 0.03162,-0.0345 0.03199,-0.0345 0,-0.0575 -0.01823,0 -0.04156,-0.0236 -0.05416,-0.0236 -0.01084,0 -0.02617,0 -0.03162,-0.02 -0.0072,-0.02 0.03683,-0.02 0.117541,-0.02 h 0.127832 v 0.0921 c 0,0.0594 0.01266,0.12097 0.03629,0.16792 0.0249,0.0521 0.03429,0.0903 0.02526,0.12098 -0.01084,0.0382 -0.0186,0.0382 -0.07475,0.0382 -0.06266,0 -0.06266,0 -0.06807,0.0575 -0.0055,0.0539 -1.94e-4,0.065 0.05507,0.0903 0.05452,0.0236 0.06034,0.0345 0.05125,0.0812 -0.009,0.0436 0.0055,0.0668 0.08125,0.16071 0.08449,0.10293 0.278413,0.28708 0.289263,0.26903 0,0 0.01805,-0.0291 0.03429,-0.0545 0.02381,-0.0436 0.03392,-0.0436 0.05307,-0.0291 0.03017,0.0236 0.03162,0.0576 0.0055,0.10111 -0.01805,0.0291 -0.01442,0.043 0.0215,0.11013 0.03538,0.065 0.05361,0.0776 0.11393,0.0957 0.06662,0.0182 0.07277,0.0236 0.07277,0.074 0,0.0594 0.0055,0.065 0.122229,0.0849 0.06248,0.0182 0.07746,0.0236 0.226721,0.22444 0.0055,0 0.202551,-0.0885 0.24913,-0.12097 0.02781,-0.02 0.04065,-0.0182 0.116637,0.0758 l -0.009,-0.02 c 0.04731,0.0557 0.09262,0.0993 0.101651,0.0993 0.009,0 0.04259,-0.0182 0.07457,-0.0382 0.04156,-0.0236 0.05652,-0.0436 0.04586,-0.0632 -0.0072,-0.0182 -0.01448,-0.0539 -0.01084,-0.0884 0.0055,-0.065 -0.09805,-0.34215 -0.143722,-0.39091 -0.02151,-0.0291 -0.02096,-0.0382 0.0055,-0.0993 0.04386,-0.11013 0.03538,-0.15351 -0.05888,-0.28963 -0.07132,-0.10474 -0.08432,-0.13 -0.06807,-0.15526 0.009,-0.0182 0.0186,-0.0472 0.0186,-0.0722 0,-0.0291 0.01442,-0.0436 0.04295,-0.0614 0.02817,-0.0182 0.04204,-0.0345 0.04204,-0.0594 0,-0.0327 0.01951,-0.0491 0.09244,-0.0849 0.08793,-0.0436 0.09389,-0.0503 0.110137,-0.13182 0.01448,-0.074 0.01266,-0.0993 -0.01805,-0.17877 -0.02151,-0.0594 -0.03053,-0.11189 -0.02526,-0.14624 0.0055,-0.0291 0.07403,-0.14987 0.153112,-0.27133 l 0.143716,-0.21869 v -0.13182 -0.13175 l -0.09696,0.02 c -0.08414,0.0182 -0.106709,0.0236 -0.169898,0.083 l -0.07367,0.0704 0.01266,-0.0521 c 0.0072,-0.0291 0.01805,-0.0705 0.02617,-0.0903 0.01266,-0.0345 0.0055,-0.0382 -0.04295,-0.065 -0.03162,-0.0182 -0.06482,-0.0466 -0.07565,-0.0686 -0.0206,-0.0472 -0.02005,-0.0472 0.138119,0 0.07511,0.0236 0.19877,0 0.19877,-0.0291 0,-0.0182 -0.0186,-0.0436 -0.04113,-0.0704 -0.03017,-0.0382 -0.07655,-0.0668 -0.169723,-0.10117 -0.112482,-0.0436 -0.133066,-0.0521 -0.161411,-0.11013 -0.02096,-0.0436 -0.04822,-0.0758 -0.07746,-0.0758 -0.0527,-0.0182 -0.04786,-0.02 -0.07927,0.0594 -0.0249,0.0668 -0.02635,0.0668 -0.108151,0.0491 l -0.08215,-0.02 -0.0055,-0.0794 -0.0055,-0.0777 0.07655,0.0182 c 0.0854,0.0182 0.0836,0.0182 0.101651,-0.11195 l 0.01084,-0.074 -0.07655,0.02 c -0.0421,0 -0.07655,0 -0.07655,-0.02 0,0 0.01623,-0.0436 0.03538,-0.0831 l 0.03429,-0.0686 -0.08486,0.02 h -0.132528 c -0.04495,-0.0182 -0.0464,-0.0182 -0.04113,-0.0866 l 0.0055,-0.0758 h -0.06337 c -0.04065,0 -0.07042,-0.0182 -0.08486,-0.0291 -0.02005,-0.0291 -0.0249,-0.0291 -0.08305,0 -0.05688,0.0291 -0.06518,0.0291 -0.103638,0 -0.0229,-0.0182 -0.04101,-0.0382 -0.04101,-0.0382 1.81e-4,0 0.03017,-0.0345 0.06717,-0.0594 0.03683,-0.0236 0.06716,-0.0594 0.06716,-0.0594 0,0 -0.02435,-0.02 -0.05506,-0.0345 -0.05161,-0.0291 -0.06085,-0.0291 -0.117541,0 l -0.06067,0.0345 -0.02726,-0.0436 c -0.02581,-0.0436 -0.03017,-0.0436 -0.08486,-0.0182 l -0.05779,0.0236 -0.129638,-0.15163 c -0.078,-0.0903 -0.150041,-0.14987 -0.18102,-0.16792 -0.04495,-0.0182 -0.05004,-0.0236 -0.0392,-0.0686 0.01442,-0.065 -0.02344,-0.083 -0.08594,-0.0436 -0.0547,0.0382 -0.06085,0.0291 -0.0401,-0.0436 0.02671,-0.0921 0.02005,-0.1065 -0.05779,-0.16429 z m -7.877615,0.33494 c -0.01266,0 -0.02526,0 -0.04495,0.0182 -0.03683,0.0182 -0.07673,0.0503 -0.120248,0.11377 -0.03629,0.0503 -0.09642,0.12273 -0.134333,0.16065 -0.05089,0.0491 -0.06518,0.0777 -0.05979,0.10293 0.0072,0.0291 -0.01084,0.0509 -0.07565,0.10655 -0.100027,0.0848 -0.163405,0.0921 -0.188466,0.0291 -0.03017,-0.0794 -0.02005,-0.10468 0.05125,-0.1426 0.05688,-0.0291 0.06572,-0.0382 0.05125,-0.065 -0.01084,-0.0182 -0.0444,-0.0382 -0.08594,-0.0382 -0.03865,0 -0.108332,-0.0345 -0.154911,-0.0539 -0.08107,-0.0466 -0.08577,-0.0466 -0.108151,-0.02 -0.01084,0.02 -0.02296,0.0521 -0.02344,0.0777 0,0.0376 -0.01084,0.0376 -0.04786,0.0576 -0.02526,0.0182 -0.06681,0.0345 -0.09244,0.0539 -0.06121,0.0575 -0.06266,0.12461 -0.0055,0.18094 0.02871,0.0291 0.0415,0.0503 0.03247,0.0759 -0.009,0.0291 -0.0055,0.0466 0.03629,0.0466 0.06392,0.0182 0.112488,0.0503 0.09804,0.0758 -0.0072,0.02 -0.03162,0.02 -0.06066,0.02 -0.04065,-0.0182 -0.06283,0 -0.131625,0.0632 -0.06446,0.065 -0.09298,0.065 -0.12693,0.065 -0.02381,0 -0.04786,-0.02 -0.05307,-0.0376 -0.0072,-0.02 -0.03017,-0.0382 -0.07277,-0.0382 -0.06046,0 -0.06427,0 -0.06066,-0.0686 0,-0.074 -0.0055,-0.0758 -0.118625,-0.0382 -0.04386,0.02 -0.09624,0.02 -0.116638,0.02 -0.06735,-0.02 -0.244361,0.0436 -0.302299,0.1011 -0.04786,0.0491 -0.05307,0.0668 -0.05307,0.14988 0,0.11013 -0.0186,0.12818 -0.05888,0.0575 -0.01624,-0.0291 -0.03683,-0.0521 -0.0421,-0.0521 -0.0072,0 -0.03974,0.0327 -0.07186,0.0795 -0.07132,0.0975 -0.07619,0.16065 -0.01623,0.20057 l 0.04386,0.0291 -0.05507,0.0576 c -0.03017,0.0345 -0.07114,0.0575 -0.09046,0.0575 -0.01914,0 -0.06464,0.0236 -0.100748,0.0545 l -0.06536,0.0557 0.05688,0.02 c 0.03483,0 0.0668,0.0382 0.08107,0.065 0.02096,0.0436 0.02005,0.0557 -0.0055,0.10474 -0.01442,0.0345 -0.02817,0.0614 -0.02817,0.0614 h 0.05325 c 0.0464,-0.0182 0.05198,0 0.04295,0.02 -0.0072,0.02 0,0.0291 0.03429,0.0466 0.03683,0.0182 0.04156,0.0182 0.02151,0.0345 -0.01442,0.02 -0.03865,0.02 -0.05688,0.02 -0.01624,0 -0.07709,0.0236 -0.134327,0.0576 -0.06247,0.0345 -0.141736,0.0686 -0.19688,0.0686 -0.05076,0 -0.103275,0.0291 -0.119346,0.0291 -0.01914,0.0182 -0.0435,0 -0.07746,-0.02 -0.0587,-0.0327 -0.155274,-0.0382 -0.20155,0 -0.04119,0.0291 -0.09389,0.0345 -0.06338,0 0.03053,-0.0291 0.02526,-0.0436 -0.02635,-0.0705 -0.03199,-0.0382 -0.06843,-0.0345 -0.114833,-0.02 -0.09262,0.0182 -0.210868,0 -0.210868,-0.0236 0,-0.0509 -0.09605,-0.0576 -0.159612,-0.0345 -0.02908,0.0182 -0.03429,0.0382 -0.0055,0.0382 0.01084,0 0.04531,0.02 0.07746,0.0436 0.04241,0.0436 0.06301,0.0436 0.07746,0.0236 0.03253,-0.0291 0.09822,-0.02 0.109235,0.02 0.0072,0.0236 0.01805,0.0436 0.05688,0.0291 0.04119,-0.0182 0.05179,0 0.06446,0.0291 0.01805,0.0436 0.06085,0.0614 0.166107,0.0614 0.03919,0 0.07673,0 0.08215,0.02 0.0055,0.02 0.04731,0.02 0.09154,0.02 0.04386,0 0.104541,0 0.133431,0.02 0.03253,0.02 0.08342,0.02 0.13343,0.02 0.0444,0 0.19834,-0.02 0.34242,-0.02 0.143898,0 0.269962,0 0.278988,-0.0236 0.009,-0.0182 0.01805,-0.0345 0.01805,-0.0632 0,-0.0382 0.01084,-0.0382 0.06915,-0.0576 h 0.113748 c 0.02817,0 0.08053,0 0.130722,-0.0291 0.05634,-0.0182 0.118262,-0.0345 0.19032,-0.0345 0.149859,0 0.18288,0.0182 0.18288,0.0614 0,0.0291 -0.0055,0.0466 -0.02962,0.0291 -0.01624,0 -0.05834,-0.02 -0.09334,-0.02 -0.08847,0 -0.279461,0.074 -0.293885,0.13 -0.0072,0.0327 -0.01969,0.0327 -0.06066,0.0327 -0.0401,0 -0.0527,0 -0.06536,0.0345 -0.01442,0.0382 -0.01266,0.0382 0.157625,0.0382 0.149496,0 0.175859,0 0.208033,0.0345 l 0.03719,0.0345 0.08486,-0.0777 c 0.07529,-0.0614 0.091,-0.0794 0.128736,-0.0614 0.0724,0.0291 0.09298,0.0812 0.09334,0.24552 v 0.15169 l 0.08594,0.0758 c 0.07475,0.065 0.08486,0.0812 0.08486,0.14084 0,0.0557 0.0072,0.0686 0.04677,0.0866 0.06355,0.0291 0.0632,0.0291 0.03919,0.0575 -0.0249,0.0291 -0.009,0.40896 0.01805,0.44325 0.009,0.0182 0.0072,0.0291 -0.009,0.0291 -0.01266,0 -0.03683,0.0503 -0.05307,0.0993 -0.01624,0.0503 -0.05113,0.13363 -0.07836,0.18924 -0.0527,0.11553 -0.05343,0.12637 0,0.0975 0.02908,-0.0182 0.03483,-0.0182 0.04386,0.0345 0.01805,0.0885 0.01266,0.1228 -0.03156,0.22499 -0.02344,0.0521 -0.0421,0.12461 -0.0421,0.1589 v 0.0632 l 0.04858,-0.0575 c 0.0372,-0.0466 0.05688,-0.0668 0.08396,-0.0466 0.04295,0.0182 0.0444,0.0345 0.01266,0.21221 -0.01914,0.10649 -0.03198,0.13175 -0.07366,0.16968 -0.06771,0.0557 -0.08414,0.13902 -0.04386,0.2136 0.02726,0.0503 0.02908,0.065 0.01084,0.11194 -0.01624,0.0436 -0.01624,0.0668 0,0.11195 0.0186,0.0503 0.01624,0.0632 -0.01442,0.11916 -0.04495,0.0794 -0.03302,0.19016 0.03429,0.32192 0.02617,0.0521 0.04295,0.0993 0.03919,0.0993 -0.009,0.0182 -0.111767,-0.1174 -0.163222,-0.20263 -0.03538,-0.0557 -0.0415,-0.0594 -0.06536,-0.0376 -0.02296,0.0236 -0.02344,0.0436 -0.0055,0.16611 0.01266,0.0776 0.04495,0.20487 0.07186,0.28435 l 0.04858,0.14442 -0.04386,0.22893 -0.04495,0.22735 -0.171704,0.30331 c -0.09461,0.16611 -0.216211,0.35409 -0.269623,0.41709 -0.08991,0.10656 -0.09985,0.12818 -0.132521,0.27424 -0.02387,0.10474 -0.05797,0.19482 -0.09985,0.26709 -0.05343,0.0921 -0.06789,0.14078 -0.09245,0.30222 -0.02726,0.17695 -0.02762,0.19822 0,0.30677 0.01448,0.065 0.03974,0.10832 0.05234,0.12637 0.01084,0 0.02344,0.0291 0.02344,0.0521 0,0.0236 -0.009,0.0436 -0.03338,0.0436 -0.02817,0 -0.03338,0.0182 -0.03338,0.065 0,0.0382 0.01084,0.0812 0.02344,0.0993 0.01914,0.0291 0.0186,0.0382 -0.0055,0.0777 -0.02205,0.0376 -0.02096,0.0594 0.01084,0.21845 0.01914,0.0957 0.03538,0.20148 0.03538,0.23595 0,0.0557 0.0072,0.065 0.08305,0.10656 0.06157,0.0345 0.08811,0.0632 0.102735,0.10474 0.01084,0.0291 0.03338,0.0686 0.05131,0.0686 0.01805,0 0.06229,0.065 0.09985,0.13363 l 0.06807,0.12273 0.03538,0.39164 c 0.01805,0.21542 0.03338,0.40661 0.03338,0.42466 0,0.02 0.02962,0.0686 0.06536,0.10656 0.03919,0.0436 0.07926,0.1137 0.09985,0.17513 0.03156,0.0903 0.03247,0.11013 0.01266,0.14805 -0.01624,0.0345 -0.01824,0.0575 -0.0055,0.0884 0.01969,0.0503 0.02096,0.0503 -0.05216,0.02 -0.03162,-0.0182 -0.07403,-0.0382 -0.09515,-0.0382 l -0.03829,-0.02 0.02908,0.0632 c 0.03574,0.0795 0.18812,0.24122 0.227678,0.24122 0.01624,0 0.03574,0.02 0.04101,0.0382 0.0055,0.02 0.02817,0.0539 0.04949,0.0795 0.08305,0.0903 0.09624,0.16968 0.04949,0.28709 l -0.02617,0.0686 0.129638,0.18113 c 0.07619,0.10468 0.139567,0.2159 0.154009,0.26267 0.0249,0.0885 0.03592,0.0885 0.10454,0.0705 0.03308,-0.0182 0.03829,-0.0236 0.03829,-0.0831 0,-0.0885 -0.05561,-0.18543 -0.111943,-0.20349 -0.02908,0 -0.0421,-0.0236 -0.04786,-0.0632 -0.0055,-0.0291 -0.01442,-0.12279 -0.02817,-0.20584 -0.01084,-0.0849 -0.02526,-0.1921 -0.03053,-0.23887 -0.01805,-0.13 -0.107969,-0.39472 -0.135235,-0.39472 -0.01823,0 -0.02096,-0.02 -0.01266,-0.074 0.009,-0.0576 0,-0.0866 -0.03162,-0.14442 -0.0229,-0.0382 -0.04677,-0.0993 -0.05216,-0.13364 -0.0055,-0.0345 -0.03392,-0.10292 -0.06067,-0.14987 -0.0435,-0.0776 -0.04858,-0.10286 -0.04858,-0.23686 1.76e-4,-0.13358 0.0055,-0.15708 0.04101,-0.20167 l 0.04119,-0.0509 0.03629,0.0466 c 0.02205,0.0291 0.05288,0.0472 0.07746,0.0472 0.02908,0 0.04204,0.0182 0.05125,0.0436 0.0055,0.0236 0.0249,0.0466 0.04295,0.065 0.02726,0.02 0.02871,0.0345 0.01442,0.0812 -0.02871,0.0993 0.02526,0.36595 0.113748,0.56477 0.04156,0.0903 0.09028,0.17332 0.108333,0.191 0.0206,0.0182 0.03253,0.0436 0.03253,0.0849 0,0.0436 0.01266,0.0704 0.05131,0.10649 0.02817,0.0236 0.05125,0.065 0.05125,0.0831 0,0.0236 0.0186,0.0436 0.0504,0.0614 0.05652,0.0291 0.06427,0.065 0.02344,0.11195 -0.02005,0.02 -0.0249,0.0436 -0.01624,0.0884 0.0072,0.0345 0.0186,0.0594 0.02435,0.0594 0.0072,0 0.04531,0.0291 0.08396,0.0576 0.04877,0.0436 0.07601,0.0831 0.08865,0.13182 0.01084,0.0382 0.05343,0.11013 0.103637,0.16792 0.0464,0.0521 0.09262,0.12461 0.101651,0.15708 0.009,0.0345 0.04156,0.0993 0.07277,0.15527 0.03108,0.0557 0.06265,0.12818 0.06807,0.16429 0.0055,0.0382 0.0229,0.0993 0.0372,0.14448 0.0215,0.0722 0.0215,0.0849 -0.0055,0.13181 -0.01442,0.0291 -0.02817,0.0758 -0.02817,0.10468 0,0.0345 -0.0072,0.0527 -0.03429,0.0527 -0.03865,0 -0.03774,0 0.0206,0.16065 0.02526,0.0686 0.04968,0.0957 0.126028,0.14987 0.05725,0.0382 0.118079,0.0993 0.153106,0.15708 0.06139,0.0975 0.148235,0.15345 0.289268,0.19101 0.04804,0.0182 0.09136,0.0436 0.13523,0.0903 0.07024,0.0794 0.279842,0.21645 0.428259,0.27999 0.05107,0.0236 0.126749,0.0614 0.167912,0.0903 0.04101,0.0291 0.140287,0.0794 0.220221,0.11552 0.189168,0.0885 0.280884,0.0921 0.428217,0.02 0.101112,-0.0503 0.106527,-0.0521 0.193136,-0.0345 0.08432,0.02 0.104002,0.0382 0.342438,0.28563 l 0.252849,0.26412 0.34428,0.10656 c 0.189562,0.0594 0.355038,0.10292 0.369516,0.12097 0.01448,0.0182 0.126749,0.13 0.250032,0.27224 0.204949,0.23711 0.223959,0.26812 0.223959,0.32591 0,0.0921 0.03974,0.15709 0.10454,0.18059 0.07511,0.0182 0.100391,0.0182 0.08775,-0.0182 -0.01823,-0.0485 0.03308,-0.02 0.06247,0.0382 0.01442,0.0291 0.06608,0.074 0.114832,0.0994 0.07872,0.0436 0.08775,0.0539 0.08775,0.10468 0,0.0632 0.06193,0.13903 0.08955,0.11195 0.009,0 0.03574,0 0.06446,0.02 0.02726,0 0.06555,0.0236 0.08667,0.0236 0.100384,0 0.185497,0.0376 0.241671,0.10287 0.05379,0.0632 0.05706,0.0632 0.06247,0.0291 0.0072,-0.0472 0.03392,-0.0436 0.05234,0.02 0.009,0.0291 0.01805,0.0521 0.02151,0.0704 0.0055,0.02 0.02435,0.02 0.08486,0 0.04295,-0.0182 0.08324,-0.0345 0.08685,-0.0345 0.0055,0 -0.01084,-0.0436 -0.03629,-0.0776 -0.05113,-0.0795 -0.04731,-0.0975 0.03162,-0.13 0.03338,-0.0182 0.06392,-0.0436 0.07655,-0.074 0.01624,-0.0382 0.0372,-0.0503 0.08775,-0.0686 0.06446,-0.0182 0.06915,-0.0182 0.14932,0.0594 0.04531,0.0436 0.09081,0.0758 0.101651,0.0758 0.02781,0 0.0229,0.02 -0.01266,0.0575 -0.03156,0.0345 -0.03053,0.0382 0.07186,0.19973 l -0.01084,0.0503 c 0.05707,0.0903 0.108332,0.16429 0.113754,0.16429 0.0055,0 0.04065,-0.0704 0.07836,-0.15884 l 0.06897,-0.15889 -0.140827,-0.15169 -0.13993,-0.15163 -0.167918,-0.0382 -0.168814,-0.0382 -0.20899,0.0975 -0.209007,0.0975 -0.0372,-0.0436 c -0.03162,-0.0466 -0.04495,-0.0466 -0.07927,-0.0291 -0.03919,0.0182 -0.05052,0 -0.221141,-0.25364 l -0.180009,-0.2694 0.08666,-0.36401 0.08685,-0.36396 -0.0372,-0.0885 -0.03629,-0.0884 -0.208105,-0.0722 -0.20713,-0.074 -0.252849,0.02 c -0.331007,0.0236 -0.320412,0.0345 -0.304159,-0.27703 0.009,-0.19064 0.01442,-0.22256 0.04386,-0.24789 0.03865,-0.0345 0.135236,-0.32876 0.135236,-0.41326 0,-0.0466 0.01624,-0.0722 0.07655,-0.13 0.06518,-0.0632 0.07583,-0.0812 0.07566,-0.14085 0,-0.0382 -0.0072,-0.0704 -0.01266,-0.0884 -0.009,-0.0236 -0.07294,-0.0236 -0.198733,-0.0236 -0.154554,0 -0.214442,0 -0.354554,0.0466 l -0.167912,0.0472 -0.0401,0.16071 c -0.03392,0.13903 -0.04967,0.16968 -0.107248,0.22984 -0.08829,0.0903 -0.170801,0.11552 -0.500075,0.16071 l -0.272495,0.0376 -0.05688,-0.0614 c -0.04259,-0.0466 -0.07692,-0.0557 -0.132527,-0.074 l -0.07565,-0.02 -0.04495,-0.15345 c -0.0249,-0.083 -0.07619,-0.21542 -0.11393,-0.29665 -0.05107,-0.10832 -0.07529,-0.18907 -0.09605,-0.32101 -0.02635,-0.16435 -0.02671,-0.18725 0,-0.34632 0.01805,-0.1065 0.06015,-0.25171 0.112845,-0.38892 0.07655,-0.19718 0.0836,-0.2282 0.07277,-0.30804 -0.009,-0.0776 -0.0055,-0.10111 0.04113,-0.1901 0.04804,-0.0957 0.06085,-0.10655 0.174418,-0.16428 0.06735,-0.0345 0.181778,-0.0994 0.25472,-0.1463 0.09623,-0.0632 0.16358,-0.0921 0.247269,-0.11013 0.111762,-0.0236 0.117723,-0.0236 0.211771,0.02 0.09118,0.0382 0.100027,0.0436 0.157625,0.02 l 0.06066,-0.0236 0.07186,0.0704 c 0.05907,0.0594 0.07981,0.0594 0.119346,0.0594 0.02617,0 0.0762,-0.02 0.110138,-0.02 0.04967,-0.0182 0.07114,0 0.113748,0.0291 0.03865,0.0182 0.05743,0.0376 0.07186,0.0182 0.01442,-0.0182 0.0055,-0.0345 -0.03719,-0.0686 l -0.05688,-0.0491 0.04495,-0.0576 0.04386,-0.0575 0.140833,0.0182 c 0.107248,0 0.164125,0 0.233276,-0.0182 0.07746,-0.0345 0.105443,-0.0345 0.192179,-0.02 0.100391,0.0236 0.119891,0.0345 0.210868,0.14987 l 0.03162,0.0382 0.102735,-0.0436 0.103637,-0.0436 0.127833,0.13182 0.12693,0.13 -0.009,0.15345 -0.009,0.1535 0.08866,0.17689 c 0.04858,0.0975 0.114106,0.20639 0.145522,0.24032 0.03108,0.0382 0.05688,0.0813 0.05688,0.0994 0,0.0182 0.01084,0.0327 0.05507,0.0327 0.04858,0 0.06139,-0.0182 0.111943,-0.0993 0.05379,-0.0939 0.05761,-0.10111 0.04858,-0.23256 -0.0055,-0.10292 -0.02241,-0.16974 -0.06897,-0.28617 -0.03338,-0.0831 -0.06157,-0.16974 -0.06157,-0.18961 0,-0.02 -0.02344,-0.0993 -0.05131,-0.17514 -0.0401,-0.10831 -0.05034,-0.16429 -0.05034,-0.26848 0,-0.13176 3.21e-4,-0.13358 0.08215,-0.24086 0.04495,-0.0594 0.163944,-0.1881 0.264044,-0.28181 0.143359,-0.13364 0.19691,-0.17332 0.253799,-0.19101 0.05234,-0.0182 0.08901,-0.0382 0.134333,-0.0921 0.05343,-0.065 0.07349,-0.0668 0.14643,-0.0849 0.09064,-0.0182 0.106346,-0.0382 0.05688,-0.0921 -0.02435,-0.0236 -0.0206,-0.0345 0.05131,-0.083 0.08522,-0.0576 0.08631,-0.0614 0.05125,-0.16071 -0.01266,-0.0382 -0.0249,-0.0884 -0.02526,-0.11377 0,-0.0382 -0.01084,-0.0436 -0.04677,-0.0594 -0.07186,-0.02 -0.07493,-0.0236 -0.03919,-0.0686 0.0401,-0.0503 0.03156,-0.12819 -0.01951,-0.18634 -0.03338,-0.0382 -0.03338,-0.0382 0.0055,-0.13903 0.0206,-0.0539 0.0435,-0.0921 0.05234,-0.0921 0.009,0 0.01448,0.0521 0.01448,0.10292 0,0.0686 0.009,0.10656 0.03538,0.14448 0.02908,0.0436 0.03308,0.0557 0.01623,0.0921 -0.0249,0.0557 -0.02581,0.11734 0,0.0993 0.01084,0 0.03338,-0.0436 0.05125,-0.083 0.01805,-0.0382 0.0435,-0.074 0.05797,-0.0921 0.0567,-0.0436 0.06009,-0.0758 0.01624,-0.17513 -0.0435,-0.0975 -0.03774,-0.11916 0.01623,-0.0614 0.01623,0.0236 0.03719,0.0236 0.04295,0.0236 0.0072,0 0.03974,-0.0521 0.07367,-0.11014 0.04204,-0.0686 0.06157,-0.12461 0.06157,-0.16792 0,-0.0722 -3.45e-4,-0.0722 0.181905,-0.13 0.04877,-0.0182 0.08866,-0.0382 0.08866,-0.0382 h -0.08455 c -0.04677,0.0182 -0.08486,0 -0.08486,0 0,-0.0345 0.123138,-0.0704 0.229538,-0.0704 0.07673,0 0.12982,-0.0182 0.173509,-0.0345 0.117722,-0.065 0.115917,-0.0614 0.05688,-0.12818 -0.06392,-0.074 -0.0641,-0.083 -0.01442,-0.24553 l 0.03829,-0.12642 0.237898,-0.13 c 0.169899,-0.0938 0.249038,-0.14442 0.274318,-0.18198 0.02581,-0.0382 0.0527,-0.065 0.09894,-0.065 0.03483,0 0.100384,-0.0345 0.144619,-0.0594 0.09624,-0.0594 0.09082,-0.0575 0.10165,-0.02 0.0055,0.0236 -0.02151,0.0594 -0.09696,0.13539 l -0.106345,0.10474 0.01623,0.0704 c 0.0186,0.0849 0.009,0.0722 0.08684,0.10474 l 0.06247,0.0236 0.08017,-0.12455 c 0.07547,-0.11916 0.0854,-0.12818 0.165204,-0.14624 0.10454,-0.0236 0.125664,-0.0382 0.260306,-0.13181 0.09659,-0.0705 0.104716,-0.0812 0.07836,-0.0993 -0.01623,-0.0182 -0.0724,-0.0182 -0.124943,-0.0345 -0.273288,-0.0291 -0.316674,-0.043 -0.377865,-0.10832 -0.129092,-0.13721 -0.149313,-0.17149 -0.149313,-0.25134 0,-0.0849 -5.5e-5,-0.0849 -0.04586,-0.0668 -0.02526,0 -0.06211,0 -0.08125,0.02 -0.02151,0 -0.04677,0 -0.06626,-0.0291 -0.03162,-0.0345 -0.03198,-0.0345 0.0587,-0.0345 0.08161,0 0.09714,0 0.154014,-0.0614 l 0.06337,-0.0594 -0.05125,-0.074 -0.0504,-0.074 -0.129638,0.02 c -0.127106,0.0182 -0.13469,0.0182 -0.334963,0.14442 -0.180009,0.11916 -0.214726,0.14806 -0.285524,0.25261 -0.0762,0.11377 -0.158165,0.19646 -0.174412,0.17877 -0.01266,-0.0182 0.281369,-0.4189 0.364822,-0.50359 0.04259,-0.0436 0.09822,-0.0884 0.124943,-0.0884 0.03574,0 0.05943,-0.0345 0.09046,-0.0921 0.02296,-0.0436 0.0547,-0.0885 0.07096,-0.0885 0.113028,-0.0345 0.35937,-0.0575 0.601763,-0.0758 l 0.284574,-0.02 0.05234,-0.0545 c 0.02908,-0.0291 0.0724,-0.0866 0.09696,-0.13358 0.04065,-0.0758 0.05325,-0.083 0.161418,-0.12097 0.06445,-0.0182 0.12043,-0.0345 0.12404,-0.0345 0.0055,0 -0.01805,0.0758 -0.04586,0.15526 -0.03719,0.10474 -0.05234,0.17695 -0.05234,0.25473 0,0.0614 -0.0072,0.11916 -0.01805,0.11916 -0.01084,0.0182 -0.01084,0.0382 -0.0055,0.0867 0.0072,0.0575 0.0055,0.0867 -0.01805,0.11916 -0.01623,0.0236 -0.02908,0.065 -0.03253,0.0939 -0.0055,0.0382 0,0.0575 0.05688,0.0382 0.23579,-0.0382 0.359867,-0.0614 0.40773,-0.0867 0.04531,-0.0382 0.05725,-0.0382 0.07005,-0.02 0.009,0.0182 0.01442,0.0382 0.01442,0.0382 h 0.05131 c 0.0464,-0.0182 0.05076,0 0.03429,0.0236 -0.009,0.0182 -0.02526,0.0236 -0.03429,0.043 -0.009,0 -0.02381,0.0236 -0.03429,0.0436 -0.01623,0.0345 -0.01084,0.0345 0.0401,0.0345 0.05434,0 0.06175,0 0.122235,-0.12098 0.03538,-0.0686 0.08179,-0.14624 0.103638,-0.17513 0.02151,-0.0291 0.03919,-0.0777 0.03919,-0.10656 0,-0.0539 0,-0.0539 -0.04295,-0.0382 -0.0697,0.0291 -0.07565,0.0236 -0.07565,-0.0503 0,-0.0382 -0.0072,-0.0812 -0.01624,-0.0993 -0.01623,-0.0345 -0.01914,-0.0345 -0.104541,0 -0.05924,0.0236 -0.107248,0.0236 -0.145527,0.0236 -0.05834,-0.0182 -0.05906,-0.0182 -0.02726,-0.0867 0.0055,-0.0182 -0.0072,-0.0291 -0.02817,-0.0291 -0.02817,-0.0182 -0.05198,0 -0.09714,0.0436 l -0.0587,0.0576 0.01266,-0.11013 c 0.0055,-0.0614 0.0249,-0.15169 0.03919,-0.19882 0.01442,-0.0503 0.02344,-0.0975 0.01969,-0.0975 -0.0055,-0.02 -0.03974,0 -0.07926,0 h -0.07186 c 0,0 0.0206,-0.0503 0.04586,-0.10116 l 0.04586,-0.0921 -0.05131,-0.0576 c -0.02817,-0.0327 -0.0641,-0.0921 -0.08215,-0.13 -0.03683,-0.0795 -0.07673,-0.11559 -0.145528,-0.0975 -0.04204,0.0182 -0.05179,0 -0.06987,-0.0345 -0.01824,-0.0345 -0.02635,-0.0521 -0.08017,-0.0345 l -0.06066,0.02 0.03919,-0.0436 c 0.04531,-0.0491 0.04295,-0.0503 -0.09245,-0.0704 -0.03865,0 -0.08359,-0.0236 -0.09985,-0.0436 -0.02871,-0.0327 -0.02962,-0.0327 -0.07836,0 -0.0567,0.0436 -0.05289,0.0436 -0.08576,-0.0382 -0.01969,-0.0466 -0.05506,-0.0777 -0.150222,-0.13546 -0.113209,-0.0668 -0.123859,-0.0794 -0.118443,-0.12455 0.0055,-0.0291 0.0055,-0.065 0.009,-0.0849 0,-0.0236 -0.07781,-0.12279 -0.266854,-0.32573 -0.148054,-0.16071 -0.273543,-0.28181 -0.277117,-0.28181 -0.0055,0 -0.02344,0.0776 -0.04386,0.16429 l -0.03629,0.15708 -0.09894,0.065 -0.09894,0.065 -0.06157,-0.0686 c -0.04386,-0.0491 -0.07998,-0.0794 -0.124943,-0.0794 -0.05107,-0.0182 -0.06464,-0.0236 -0.07366,-0.0575 -0.0055,-0.0236 -0.01805,-0.074 -0.02617,-0.10832 -0.009,-0.0327 -0.01084,-0.0994 -0.0055,-0.14623 l 0.01266,-0.0831 -0.05688,-0.02 c -0.03108,0 -0.08468,-0.0182 -0.118443,-0.0182 -0.04349,-0.0182 -0.07565,-0.0291 -0.111943,-0.0723 -0.02781,-0.0345 -0.09677,-0.0957 -0.15293,-0.13358 -0.09226,-0.065 -0.103638,-0.0704 -0.124041,-0.0466 -0.0186,0.02 -0.04349,0.0382 -0.133424,0.02 -0.06067,0 -0.146248,-0.0182 -0.190325,-0.0345 l -0.08035,-0.0236 -0.03538,0.0491 -0.03538,0.0485 0.03538,0.0594 c 0.02871,0.0491 0.03429,0.0777 0.02526,0.14806 -0.0072,0.0594 0,0.12097 0.0186,0.19118 l 0.02908,0.10292 -0.06067,0.0885 -0.06066,0.0884 0.08215,0.0939 c 0.105982,0.12279 0.113385,0.14085 0.127833,0.28042 0.01266,0.11552 0.01084,0.12097 -0.05125,0.23831 -0.05797,0.1065 -0.07457,0.12637 -0.167008,0.17332 -0.15636,0.083 -0.147152,0.0668 -0.119346,0.17156 0.01266,0.0503 0.0249,0.14442 0.02526,0.20633 3.82e-4,0.0704 0.01084,0.13727 0.02908,0.17337 0.02344,0.0466 0.02581,0.0668 0.009,0.10287 -0.01084,0.0236 -0.0206,0.0704 -0.0206,0.10474 v 0.0614 l -0.0401,-0.0382 -0.03919,-0.0382 -0.02526,0.0382 -0.02526,0.0382 -0.05507,-0.0327 c -0.03053,-0.02 -0.10743,-0.11195 -0.171704,-0.20167 l -0.116638,-0.16792 v -0.23256 -0.23129 l -0.07186,-0.0182 c -0.03974,0 -0.130722,-0.02 -0.201551,-0.02 -0.119527,-0.0182 -0.132709,-0.0182 -0.185685,-0.0704 -0.03108,-0.0327 -0.09768,-0.0777 -0.147509,-0.10111 -0.04949,-0.02 -0.160333,-0.0993 -0.245355,-0.16792 -0.170443,-0.14267 -0.141014,-0.1354 -0.364828,-0.0993 l -0.07366,0.02 0.02817,-0.0436 c 0.02526,-0.0382 0.02726,-0.0614 0.009,-0.19682 l -0.0206,-0.15526 h -0.07367 c -0.06193,0 -0.07709,0 -0.09334,-0.0382 -0.01442,-0.0345 -0.01084,-0.0614 0.02435,-0.14806 0.02381,-0.0594 0.05076,-0.14078 0.06338,-0.1787 0.01624,-0.0557 0.05416,-0.0994 0.18196,-0.21742 0.09804,-0.0884 0.19682,-0.16247 0.251007,-0.18725 0.04895,-0.0236 0.101287,-0.0575 0.11754,-0.083 0.02617,-0.0436 0.02617,-0.0436 0,-0.0758 -0.02617,-0.0236 -0.02581,-0.0236 0.01084,-0.0436 0.02151,0 0.08721,-0.02 0.14643,-0.02 0.09677,-0.0182 0.118801,-0.0236 0.209008,-0.0975 0.112482,-0.0939 0.125664,-0.11559 0.09985,-0.16429 -0.01442,-0.0327 -0.0072,-0.0436 0.06536,-0.0994 0.07331,-0.0521 0.0827,-0.0686 0.07366,-0.11013 -0.01266,-0.065 0.0072,-0.0668 0.106346,-0.02 l 0.07367,0.0382 0.08955,-0.0382 c 0.101832,-0.0466 0.198733,-0.12995 0.198733,-0.16968 0,-0.0182 -0.01442,-0.0686 -0.03253,-0.1228 l -0.03338,-0.0975 0.0421,-0.02 c 0.03574,-0.0182 0.04101,-0.0291 0.04101,-0.0795 0,-0.0614 -0.0055,-0.065 -0.126028,-0.13 -0.111761,-0.065 -0.132164,-0.065 -0.170801,-0.0466 -0.04156,0.02 -0.0444,0.0236 -0.03162,0.11019 0.01084,0.0848 0.0072,0.0848 -0.02635,0.10286 -0.02296,0 -0.05113,0.0436 -0.07186,0.0885 -0.03162,0.0722 -0.107066,0.1715 -0.131625,0.1715 -0.0055,0 -0.02908,-0.0382 -0.05125,-0.0866 l -0.03919,-0.0849 0.03429,-0.0345 c 0.03108,-0.0345 0.03301,-0.0436 0.0186,-0.10111 -0.01442,-0.0575 -0.02526,-0.0575 -0.07656,-0.0758 h -0.06337 c -0.0055,0 -0.02096,0.0382 -0.0401,0.074 l -0.03538,0.0686 v -0.12273 c 0,-0.11741 -0.0055,-0.12098 -0.04386,-0.13903 -0.04913,-0.02 -0.04877,-0.0236 -0.0055,-0.0957 l 0.03429,-0.0576 -0.04295,-0.0632 c -0.03108,-0.0436 -0.04386,-0.0849 -0.04386,-0.14266 0,-0.0594 -0.009,-0.0866 -0.04101,-0.11734 l -0.04204,-0.0382 -0.109235,0.0993 c -0.09876,0.0921 -0.107787,0.10474 -0.09335,0.14266 0.01266,0.0345 0.009,0.0436 -0.02151,0.0704 l -0.0372,0.0291 0.08125,0.0867 c 0.078,0.0812 0.08016,0.0884 0.05979,0.13721 -0.01805,0.0382 -0.01805,0.0614 -0.0055,0.0939 0.01805,0.0382 0.01266,0.0436 -0.06066,0.0903 -0.0435,0.0291 -0.08631,0.0491 -0.09894,0.0491 -0.0229,0 -0.04101,0.0382 -0.04101,0.0884 0,0.0291 -0.0055,0.0291 -0.05131,-0.02 l -0.05034,-0.0491 0.04586,-0.0466 c 0.04259,-0.0436 0.0435,-0.0491 0.01624,-0.0795 -0.02781,-0.0327 -0.02581,-0.0376 0.04949,-0.0557 0.07854,-0.0236 0.0789,-0.0236 0.06807,-0.0831 -0.0072,-0.0382 -0.03199,-0.0777 -0.08215,-0.12279 -0.03919,-0.0345 -0.07872,-0.0632 -0.08956,-0.0632 -0.009,0 -0.04531,0.0291 -0.08016,0.065 l -0.06338,0.0632 0.05325,0.065 0.05307,0.0668 h -0.05307 c -0.04731,0 -0.05216,0.0182 -0.05216,0.0594 v 0.0521 l -0.08865,-0.02 c -0.04895,-0.02 -0.128014,-0.02 -0.175496,-0.02 -0.08161,0 -0.09317,0 -0.214587,-0.11013 -0.125306,-0.10656 -0.128014,-0.11195 -0.109235,-0.16071 0.01266,-0.0291 0.01623,-0.0382 0.01266,-0.0576 -0.02005,-0.02 -0.222565,0.0182 -0.236995,0.0382 -0.02581,0.0291 -0.01969,0.0491 0.02962,0.0491 0.02581,0 0.06157,0 0.08017,0.0182 0.02671,0.0182 0.01805,0.0182 -0.04586,0.0291 -0.08342,0.0182 -0.08594,0.02 -0.106345,0.12819 -0.0186,0.1011 -0.02526,0.10474 -0.05973,0.12279 -0.03829,0.0182 -0.04156,0 -0.01442,-0.0614 0.01623,-0.0382 0.01084,-0.0557 -0.03538,-0.14442 l -0.05507,-0.10292 h -0.115735 c -0.103456,0 -0.125301,0 -0.217423,-0.0632 -0.05616,-0.0382 -0.102553,-0.0759 -0.102553,-0.0759 -1.82e-4,-0.0182 0.03429,-0.0182 0.07655,-0.0236 0.08739,-0.0182 0.0966,-0.02 0.08216,-0.0903 -0.01266,-0.0594 -0.06338,-0.0993 -0.145528,-0.11734 -0.04586,0 -0.06717,-0.0345 -0.143722,-0.16247 -0.04949,-0.0849 -0.09804,-0.15532 -0.103638,-0.17337 -0.01084,-0.02 -0.02817,-0.02 -0.08666,0 -0.105806,0.0382 -0.110138,0.0382 -0.06338,-0.0485 0.04895,-0.0885 0.03865,-0.0939 -0.06337,-0.0345 l -0.07366,0.0436 -0.01266,-0.0466 c -0.009,-0.0345 0,-0.0575 0.02344,-0.0921 0.03483,-0.0436 0.0484,-0.13182 0.02241,-0.13182 -0.0072,0 -0.03774,0.0182 -0.06807,0.0345 -0.03774,0.0236 -0.07042,0.0236 -0.105443,0.0236 -0.0547,-0.0182 -0.06608,-0.0345 -0.02526,-0.0509 0.03629,-0.0182 0.03108,-0.0291 -0.01266,-0.0491 -0.06103,-0.0291 -0.441453,0 -0.495417,0.0382 -0.05234,0.0345 -0.05179,0.0345 -0.119345,-0.13176 -0.0392,-0.0939 -0.0444,-0.12461 -0.02962,-0.16253 0.01266,-0.0382 0.009,-0.0557 -0.01442,-0.0957 -0.01623,-0.0291 -0.03053,-0.074 -0.03053,-0.10111 0,-0.0436 -0.01442,-0.065 -0.0587,-0.0993 -0.03483,-0.0236 -0.05979,-0.0632 -0.05979,-0.0831 0,-0.02 -0.01623,-0.0539 -0.03538,-0.074 -0.02005,-0.0236 -0.03774,-0.0686 -0.04295,-0.11013 -0.01084,-0.0957 -0.03538,-0.13902 -0.07655,-0.15708 -0.03247,-0.0182 -0.03247,-0.0182 0.0055,-0.0794 0.03053,-0.0557 0.03392,-0.0777 0.01805,-0.10292 -0.01266,-0.0236 -0.01266,-0.0382 0,-0.065 0.009,-0.02 0.01624,-0.0557 0.01266,-0.0813 -0.0055,-0.0375 -0.01442,-0.0575 -0.07457,-0.0575 -0.04895,0 -0.08251,-0.0236 -0.112845,-0.0575 l -0.04404,-0.0491 -0.05216,0.0291 c -0.04913,0.0291 -0.0518,0.0291 -0.05234,0 -3.27e-4,-0.0182 -0.0206,-0.0436 -0.04386,-0.0594 -0.03865,-0.0382 -0.05852,-0.0382 -0.197776,-0.02 l -0.15582,0.02 -0.06897,-0.065 c -0.04065,-0.0382 -0.05797,-0.0557 -0.07836,-0.0575 z m -1.430325,0.1065 c -0.0055,0 -0.009,0 -0.01624,0.0182 -0.01914,0.0182 -0.03253,0.0345 -0.03253,0.0686 0,0.0291 -0.01624,0.074 -0.03538,0.1011 -0.01914,0.0291 -0.03338,0.0576 -0.02962,0.0576 0.0055,0 0.02151,0 0.0401,0.0236 v -0.0182 c 0.0186,0.02 0.03919,0.02 0.04495,0.02 0.02241,-0.0236 0.04931,-0.13363 0.04586,-0.20203 0,-0.0557 -0.0055,-0.0704 -0.01624,-0.065 z m 7.578079,0.0575 -0.164126,0.0382 c -0.151664,0.0327 -0.166469,0.0382 -0.199691,0.0939 -0.04065,0.065 -0.03774,0.065 -0.108151,0.0382 -0.04259,-0.0182 -0.07367,-0.0182 -0.170807,0.0236 -0.129995,0.0436 -0.136495,0.0557 -0.118443,0.17513 0.009,0.0632 0.01805,0.074 0.06898,0.0921 0.06392,0.02 0.07042,0.0382 0.03162,0.0903 -0.01969,0.0382 -0.03162,0.0327 -0.05416,0.02 -0.02581,-0.0182 -0.09316,-0.1065 -0.149314,-0.20312 -0.01805,-0.0291 -0.02205,-0.0291 -0.08107,0 -0.03974,0.0182 -0.08287,0.0632 -0.121333,0.12098 -0.08594,0.13363 -0.08576,0.13545 -0.01805,0.18113 0.07132,0.0466 0.07438,0.0557 0.01805,0.074 -0.02344,0 -0.04204,0.0236 -0.04204,0.0236 0,0.0291 0.124761,0.16429 0.142813,0.16429 0.01084,0 0.04731,-0.02 0.08306,-0.0382 0.06175,-0.0182 0.06464,-0.0182 0.07366,0.02 0.009,0.0291 0.04586,0.0345 0.127833,0 0.02635,-0.0182 0.02962,0 0.02962,0.065 0,0.0885 -0.02526,0.11376 -0.06157,0.0632 -0.0249,-0.0436 -0.06427,-0.0436 -0.113924,-0.0236 -0.02581,0.0182 -0.02617,0.0182 -0.0055,0.0576 0.03392,0.0686 0.03392,0.0686 -0.04204,0.0686 -0.05361,0 -0.07312,0.0182 -0.09605,0.0436 -0.03683,0.0557 -0.02205,0.065 0.137216,0.0921 0.11267,0.02 0.177489,0.0182 0.279897,-0.0236 0.01623,-0.0182 0.03538,0.0182 0.05416,0.0436 v -0.0182 c 0.03574,0.0614 0.07259,0.0614 0.147515,0 l 0.05779,-0.0466 -0.03629,-0.0466 c -0.0206,-0.0236 -0.03719,-0.0575 -0.03719,-0.0575 0,0 0.03162,-0.0345 0.06915,-0.0521 0.03774,-0.0236 0.08395,-0.0614 0.102553,-0.0921 l 0.03338,-0.0557 -0.03429,-0.0668 c -0.0186,-0.0382 -0.03429,-0.0777 -0.03429,-0.0777 0,0 0.03392,-0.0182 0.07656,-0.0291 0.06716,-0.0182 0.08612,-0.0345 0.147327,-0.12097 0.03865,-0.0557 0.106527,-0.14981 0.151125,-0.20724 0.04495,-0.0557 0.08215,-0.0975 0.08215,-0.11558 0,-0.02 -0.02726,-0.02 -0.05973,0 -0.03253,0 -0.0587,0 -0.0587,0 0,0 0.0372,-0.0521 0.08396,-0.10832 0.04677,-0.0539 0.08486,-0.0903 0.08486,-0.10831 0,-0.0182 -0.06301,-0.0291 -0.139931,-0.0576 z m -1.545067,0.52558 c -0.01266,0.02 -0.03308,0.02 -0.03829,0.02 -0.0072,0 -0.01805,0.0345 -0.02241,0.0794 -0.0055,0.0436 -0.01442,0.0903 -0.0206,0.10838 -0.01084,0.0182 -0.0055,0.0291 0.03829,0.0291 0.0435,0 0.05076,0.0182 0.06157,0.0576 v 0 c 0.01442,0.0849 0.06934,0.083 0.09245,0 0.01442,-0.0521 0.01084,-0.0668 -0.02435,-0.12274 -0.02241,-0.0345 -0.04677,-0.0867 -0.05216,-0.1174 -0.0072,-0.0466 -0.01805,-0.0466 -0.03538,-0.0466 z m -0.932109,0.13545 c -0.04259,0 -0.08377,0 -0.199691,0.0436 -0.22405,0.0704 -0.224771,0.0704 -0.178204,0.13539 v 0 c 0.04295,0.0614 0.04786,0.0632 0.09804,0.0291 0.0229,-0.02 0.05398,-0.02 0.08016,-0.02 0.02871,0.0182 0.06121,0 0.100748,-0.0236 l 0.05779,-0.0382 0.02726,0.0382 0.02726,0.0382 0.07096,-0.0704 c 0.08053,-0.0794 0.07727,-0.0903 -0.03719,-0.12273 -0.01805,0 -0.03253,-0.0182 -0.04677,-0.0182 z m 0.325609,0.0182 v 0.0485 c 0,0.0382 0.01084,0.0436 0.04295,0.0614 v 0 c 0.02296,0.02 0.04895,0.02 0.06157,0.02 0.01969,0 0.100391,-0.0885 0.08775,-0.10656 -0.0055,0 -0.04786,-0.02 -0.09894,-0.02 z m 0.868659,0.0485 c -0.01084,0 -0.02151,0 -0.03829,0.0182 -0.03919,0.0182 -0.03683,0.16253 0.0055,0.18113 v -0.0182 c 0.01623,0.02 0.05379,0.02 0.08396,0.02 0.0706,0 0.07421,-0.0382 0.01084,-0.13182 -0.02908,-0.0466 -0.04241,-0.065 -0.05979,-0.0668 z m -7.094801,0.0182 c -0.01969,0 -0.02817,0.02 -0.02817,0.0594 v 0 c 0,0.0436 0.0072,0.0594 0.03338,0.0594 0.0186,0 0.04065,-0.02 0.05307,-0.0376 0.01442,-0.0345 0.01266,-0.0436 -0.01266,-0.0594 -0.01951,-0.0182 -0.03483,-0.0236 -0.04677,-0.0236 z m 5.943434,0.16253 c -0.01442,0 -0.03162,0 -0.05888,0.0182 -0.05179,0.0182 -0.06482,0.0236 -0.07746,0.0722 -0.01442,0.065 -0.01442,0.065 -0.08955,0.0473 -0.08504,-0.0182 -0.0892,0 -0.04295,0.0686 0.02962,0.0436 0.03865,0.0436 0.09804,0.0436 0.04731,0 0.0715,0 0.08775,0.02 0.0186,0.02 0.01442,0.0382 -0.02241,0.0382 -0.02381,0 -0.0641,0.0182 -0.08956,0.0182 l -0.04677,0.02 0.03829,0.0345 c 0.05725,0.0466 0.238128,0.0632 0.306921,0.0291 0.05198,-0.0236 0.05634,-0.0236 0.125125,0.02 v -0.0182 c 0.03919,0.0236 0.07475,0.0436 0.08016,0.0436 0.0055,0 0.03829,-0.0345 0.07366,-0.0777 0.06699,-0.0759 0.06717,-0.0939 0.0055,-0.11195 -0.03629,-0.0182 -0.0372,-0.0182 -0.01805,-0.11734 0.01084,-0.0557 0.0072,-0.0557 -0.02526,-0.074 -0.02581,-0.0182 -0.04876,0 -0.07655,0.0236 -0.03338,0.0291 -0.03683,0.0436 -0.02435,0.0885 0.01624,0.0575 0.01266,0.0668 -0.03429,0.0849 -0.05743,0.0182 -0.119345,-0.0491 -0.119345,-0.12097 0,-0.0436 -0.01084,-0.0759 -0.0421,-0.10293 -0.0186,-0.0236 -0.03108,-0.0345 -0.04586,-0.0345 z m 1.210141,0.0884 c -0.0444,0 -0.04495,0 -0.01448,0.0236 v 0.0182 c 0.03199,0.0182 0.06157,0.0182 0.06157,-0.0182 0,-0.02 -0.02096,-0.02 -0.04677,-0.02 z m -2.017198,0.0466 c -0.04065,0 -0.05234,0.02 -0.07005,0.0632 -0.02242,0.0557 -0.04586,0.074 -0.204314,0.16072 l -0.179112,0.0975 0.0055,0.12097 0.0055,0.12098 0.06627,0.02 c 0.06138,0.0182 0.07403,0.0182 0.15943,-0.0345 0.05107,-0.0291 0.135412,-0.074 0.186637,-0.1011 l 0.09334,-0.0491 -0.09804,0.0867 -0.09696,0.0903 0.04204,0.0614 c 0.0229,0.0345 0.05561,0.0686 0.07187,0.0686 0.01623,0.02 -0.009,0.02 -0.05779,0.02 -0.09605,0 -0.109599,0.0182 -0.09515,0.0686 0.0072,0.0291 0.03629,0.0466 0.136314,0.074 0.09028,0.0291 0.141917,0.0509 0.176405,0.0885 0.101468,0.10831 0.02344,0.12636 -0.132528,0.0327 -0.100566,-0.065 -0.130541,-0.065 -0.223002,-0.0466 -0.04949,0.0182 -0.05307,0.0182 -0.05307,0.0849 0,0.0705 0.0055,0.0759 0.08685,0.11734 0.08666,0.0436 0.08648,0.0436 0.07547,0.1102 l -0.01266,0.0667 0.105443,0.0466 c 0.09605,0.0575 0.116274,0.0575 0.233275,0.0382 0.07023,0 0.163938,-0.0182 0.208051,-0.0345 0.09136,-0.0291 0.114833,-0.02 0.114833,0.0382 0,0.0436 0.03629,0.065 0.160509,0.0903 v -0.0182 c 0.03719,0.02 0.09064,0.0382 0.118443,0.02 0.0435,0 0.05307,0 0.04949,-0.0436 0,-0.0236 -0.0072,-0.0575 -0.01623,-0.0758 -0.009,-0.0236 -0.0072,-0.0382 0.01084,-0.0236 0.09136,0.0291 0.09949,0.0291 0.11754,-0.02 0.01442,-0.0382 0.009,-0.0539 -0.04786,-0.12273 -0.03574,-0.0436 -0.07204,-0.0813 -0.07746,-0.0993 -0.0055,-0.0182 0.01084,-0.0975 0.03919,-0.18719 0.04065,-0.13727 0.04804,-0.17695 0.03538,-0.22299 -0.02005,-0.0668 -0.01442,-0.0758 0.03338,-0.0509 0.03108,0.02 0.04295,0.0182 0.07746,-0.0182 0.05004,-0.0436 0.04986,-0.0594 0,-0.12097 -0.03865,-0.0466 -0.0401,-0.0466 -0.09244,-0.02 -0.03253,0.0182 -0.05307,0.0382 -0.05307,0.0594 0,0.0236 -0.0072,0.0236 -0.0392,0.0236 -0.04495,-0.0182 -0.06879,0.0291 -0.122235,0.20064 -0.01805,0.0575 -0.04065,0.0993 -0.05307,0.0993 -0.0372,0 -0.0421,-0.0436 -0.01442,-0.11013 0.03538,-0.0812 0.03392,-0.10831 -0.0055,-0.16792 l -0.03247,-0.0491 -0.02962,0.0632 c -0.02635,0.0509 -0.03629,0.0705 -0.07366,0.0509 -0.05815,-0.0182 -0.06085,-0.02 -0.02817,-0.0575 0.02671,-0.0327 0.02581,-0.0382 -0.03162,-0.0794 -0.03338,-0.0182 -0.07222,-0.0527 -0.08486,-0.0345 -0.03108,0.0182 -0.03053,0 0.0055,-0.0491 0.02526,-0.0382 0.0249,-0.0436 -0.0055,-0.0632 -0.02581,-0.0182 -0.02962,-0.0382 -0.0206,-0.1174 0.01084,-0.0975 0.01084,-0.0975 -0.106346,-0.11552 -0.03483,0 -0.04586,-0.0182 -0.05125,-0.0632 -0.0072,-0.0521 -0.01266,-0.0594 -0.09227,-0.0777 -0.05307,-0.0182 -0.08775,-0.02 -0.111943,-0.02 z m 1.435002,0.0236 -0.03538,0.0382 c -0.03429,0.0327 -0.03429,0.0327 -0.0055,0.11189 0.02817,0.0777 0.03301,0.0777 0.09786,0.0777 h 0.06717 l -0.03629,0.0614 c -0.04065,0.0686 -0.04065,0.0668 0.01624,0.0885 v 0 c 0.02296,0 0.04786,0.02 0.05325,0.02 0.02205,0 0.08468,-0.10292 0.07565,-0.12642 -0.0055,-0.0182 0.01084,-0.0382 0.0401,-0.0594 0.0587,-0.0436 0.06518,-0.074 0.0186,-0.0993 -0.05416,-0.0291 -0.0966,-0.0236 -0.109235,0.02 l -0.01266,0.0382 -0.03538,-0.0436 -0.03429,-0.0436 -0.03162,0.0382 c -0.03592,0.0436 -0.04156,0.0345 -0.05779,-0.0557 z m 0.515026,0.0575 c -0.06626,0 -0.08215,0.0182 -0.08594,0.0382 0,0.0182 0.01624,0.0557 0.0401,0.0831 0.03774,0.0472 0.0484,0.0472 0.07655,0.0291 0.01823,-0.02 0.04065,-0.02 0.04949,-0.02 0.02581,0.0182 0.0186,0.17156 -0.009,0.23977 -0.01266,0.0327 -0.02526,0.0668 -0.02526,0.0668 0,0 0.02672,0.0236 0.05973,0.0436 0.05234,0.0376 0.06662,0.0376 0.111041,0.02 0.04295,-0.0236 0.05289,-0.0236 0.07095,0 0.01084,0.0182 0.05131,0.0345 0.08866,0.0345 v 0 c 0.0372,0 0.142995,0.02 0.235111,0.02 0.17821,0 0.170807,0.0182 0.240733,-0.0921 0.03774,-0.0521 0.009,-0.0938 -0.09425,-0.12994 l -0.08666,-0.0345 -0.09894,0.0436 c -0.13993,0.0575 -0.217313,0.0539 -0.287336,-0.02 -0.04931,-0.0509 -0.05288,-0.0594 -0.03253,-0.0921 0.03199,-0.0521 -0.01442,-0.13363 -0.08486,-0.13363 -0.03865,0 -0.05561,-0.02 -0.06807,-0.0576 -0.01624,-0.0436 -0.02151,-0.0436 -0.09804,-0.0436 z m -0.08594,0.27611 c -0.02526,0 -0.05761,0 -0.09046,0.0376 l -0.04786,0.0466 0.03447,0.0491 v -0.0182 c 0.04731,0.0812 0.124404,0.0831 0.145528,0.02 0.02435,-0.074 3.45e-4,-0.12636 -0.04204,-0.13363 z m 49.472331,0.0938 c 1.51488,0 2.27192,0.74857 2.27192,2.24486 0,0.29574 -0.0278,0.62813 -0.083,0.99736 l -0.94142,5.32128 c -0.22172,1.29329 -0.61019,2.17979 -1.16443,2.65988 -0.55424,0.48063 -1.29318,0.7204 -2.21688,0.7204 -1.55186,0 -2.32795,-0.64638 -2.32795,-1.93949 0,-0.49868 0.0372,-0.97876 0.11104,-1.44079 l 0.94238,-5.32128 c 0.36952,-2.12527 1.50552,-3.20593 3.40839,-3.24222 z m -58.17379,0.0975 c -0.04786,0 -0.133248,0.0345 -0.102735,0.0466 v 0.0182 c 0.04531,0.0182 0.112846,0 0.132528,-0.02 0.01442,-0.02 0.01266,-0.0382 -0.01266,-0.0382 -0.0055,0 -0.01084,0 -0.01805,0 z m 0.164125,0.0614 c -0.009,0 -0.0229,0.02 -0.03538,0.0436 -0.01266,0.0236 -0.03302,0.0436 -0.05888,0.0436 -0.03919,0 -0.05058,0.02 -0.02817,0.0382 v 0 c 0.03053,0.0291 0.100748,0.0182 0.129638,-0.0382 0.03053,-0.0509 0.02762,-0.0849 -0.0055,-0.0849 z m 8.153805,0 c -0.132346,0 -0.262832,0.0668 -0.187545,0.0957 0.03338,0.0182 0.03283,0.0632 0,0.0903 -0.02151,0.0182 -0.03483,0.0182 -0.07366,-0.0236 -0.03629,-0.0436 -0.05004,-0.0436 -0.06626,-0.0236 -0.03253,0.0345 -0.02381,0.0686 0.03719,0.14624 0.03162,0.0382 0.06356,0.1011 0.06897,0.13903 0.0072,0.0436 0.02096,0.0723 0.03919,0.0723 v 0 c 0.01442,0 0.03865,-0.0182 0.05125,-0.0236 0.01448,-0.0182 0.04531,-0.0291 0.07836,-0.0291 0.04731,0 0.05852,-0.0182 0.08396,-0.065 0.02817,-0.0614 0.02871,-0.0668 0,-0.10831 -0.03162,-0.0472 -0.03053,-0.0521 0.05216,-0.14624 0.02817,-0.0291 0.03483,-0.0503 0.02241,-0.0795 -0.01266,-0.0382 -0.02617,-0.0382 -0.107249,-0.0382 z m 0.357334,0.0182 c -0.01266,0 -0.0278,0.0182 -0.05779,0.0236 -0.101651,0.0557 -0.175678,0.2786 -0.113749,0.34735 v 0 c 0.03053,0.0327 0.03053,0.0327 0.06897,0 0.02096,-0.02 0.03538,-0.0382 0.02962,-0.0575 -0.0055,-0.02 0.01084,-0.02 0.06627,-0.02 0.07258,0.0182 0.07529,0.0182 0.161411,-0.0867 0.0484,-0.0539 0.08577,-0.0975 0.08215,-0.11558 -0.0055,-0.0182 -0.0401,-0.0291 -0.08305,-0.0291 -0.04295,0 -0.09533,-0.0236 -0.11465,-0.0436 -0.01805,-0.0182 -0.02672,-0.0236 -0.0392,-0.0236 z m 0.572909,0.16253 c -0.01805,0 -0.05834,0 -0.105443,0.02 -0.11104,0.0291 -0.116456,0.0345 -0.202507,0.14624 -0.07981,0.1065 -0.08919,0.12637 -0.08955,0.20633 v 0.0885 h 0.05779 c 0.05779,0 0.119709,0.0436 0.103638,0.0686 -0.0055,0.0182 -0.03974,0.0236 -0.07655,0.0236 -0.03719,0 -0.06807,0.0236 -0.06807,0.0236 0,0 0.06066,0.0521 0.134333,0.10111 l 0.133424,0.0885 0.107248,-0.02 c 0.102559,-0.0182 0.11104,-0.0182 0.228635,0.0539 l 0.123138,0.065 0.07277,-0.0704 c 0.0401,-0.0382 0.08143,-0.0722 0.08666,-0.0722 0.0072,0 0.112482,0.0831 0.233257,0.18198 0.155275,0.12819 0.238383,0.21124 0.285525,0.28327 0.06301,0.0975 0.06536,0.10474 0.04677,0.1661 -0.01442,0.0436 -0.0372,0.074 -0.08396,0.10111 -0.07438,0.0436 -0.07655,0.0491 -0.03053,0.10656 0.01969,0.0236 0.03338,0.0382 0.03338,0.0557 0,0 -0.03017,0.0291 -0.06626,0.0466 -0.05416,0.0382 -0.0919,0.0382 -0.219227,0.0382 h -0.154918 v 0.11916 0.12097 l 0.08955,-0.02 c 0.05652,0 0.108696,-0.0236 0.141015,-0.0436 0.02762,-0.02 0.0771,-0.0472 0.109235,-0.0472 0.05216,0 0.06915,0 0.161418,0.0831 0.05688,0.0485 0.122229,0.11552 0.144619,0.14805 0.06644,0.10292 0.07927,0.10292 0.181008,0.10292 0.0919,0 0.0984,0 0.140827,0.065 0.0421,0.0632 0.05095,0.0649 0.169002,0.0831 l 0.0055,0.0236 c 0.153288,0.0182 0.200594,0.0382 0.200594,0.0182 0,-0.0182 -0.01084,-0.0382 -0.02726,-0.0686 -0.02344,-0.0503 -0.04586,-0.0668 -0.138119,-0.0993 -0.08161,-0.0291 -0.118988,-0.0521 -0.141917,-0.0884 -0.04204,-0.0686 -0.04065,-0.0867 0.0055,-0.0686 0.05343,0.0182 0.199097,0.0849 0.253806,0.12098 0.04495,0.0236 0.0464,0.02 0.08865,-0.02 0.05198,-0.0503 0.0527,-0.0686 0.0055,-0.19591 -0.03538,-0.0938 -0.0464,-0.1065 -0.127832,-0.14442 -0.06138,-0.0291 -0.112664,-0.0722 -0.166107,-0.14085 -0.07259,-0.0903 -0.07655,-0.0993 -0.05688,-0.14805 0.01084,-0.0291 0.02817,-0.0382 0.03338,-0.0575 0.0206,-0.0182 0.190471,0.11558 0.278037,0.20839 0.0444,0.0491 0.08793,0.0777 0.09696,0.0777 0.02296,-0.0182 0.09046,-0.17338 0.123138,-0.28944 0.01442,-0.0557 0.03199,-0.11195 0.03719,-0.13001 0.0072,-0.0291 -0.0055,-0.0291 -0.118443,-0.0291 h -0.125846 l -0.01266,-0.0491 c -0.01084,-0.0503 -0.0401,-0.065 -0.196855,-0.0921 -0.0919,-0.0182 -0.23035,-0.10292 -0.261257,-0.16247 -0.03162,-0.0594 -0.03253,-0.0594 0.0401,-0.0777 l 0.05597,-0.02 -0.05979,-0.11915 c -0.04786,-0.0975 -0.07348,-0.12819 -0.131619,-0.16066 -0.03974,-0.0236 -0.129819,-0.0813 -0.199679,-0.12824 -0.123495,-0.0866 -0.129456,-0.0866 -0.202453,-0.0686 l -0.07457,0.02 -0.08684,-0.0975 c -0.08938,-0.10468 -0.111943,-0.11013 -0.225764,-0.0849 -0.04119,0.0182 -0.05325,0.0236 -0.05688,0.0575 -0.0055,0.0509 -0.03774,0.0539 -0.130541,0.02 l -0.04386,-0.02 0.06716,-0.0575 c 0.05834,-0.0376 0.08053,-0.0575 0.156722,-0.0575 h 0.08865 c 0,-0.0345 -0.04259,-0.1011 -0.06446,-0.11916 -0.08216,-0.0382 -0.271064,-0.0345 -0.374163,-0.02 -0.09027,0.0182 -0.1253,0.0345 -0.161411,0.0686 -0.0435,0.0436 -0.0444,0.0503 -0.02526,0.11013 0.01969,0.0557 0.01805,0.0632 -0.01951,0.0921 -0.04531,0.0327 -0.05343,0.0291 -0.07926,-0.0485 -0.02617,-0.0795 -0.0072,-0.16254 0.04949,-0.21833 0.02671,-0.0236 0.04858,-0.0382 0.04858,-0.0575 0,0 -0.0055,0 -0.009,0 z m -7.53053,0.34445 c -0.0055,0 -0.01442,0 -0.02435,0 -0.05707,0.0182 -0.13054,0.0633 -0.13054,0.0903 0,0.0182 0.02241,0.0382 0.0504,0.0539 v 0 c 0.07258,0.0503 0.200448,0.0491 0.235135,0 0.0229,-0.0327 0.02235,-0.0382 -0.0055,-0.0557 -0.01624,0 -0.0464,-0.0236 -0.06716,-0.0236 -0.02581,0 -0.03829,-0.0182 -0.03829,-0.0327 0,-0.02 -0.0055,-0.0345 -0.02235,-0.0345 z m 0.20991,0 c -0.03919,0 -0.05216,0 -0.05216,0.0327 0,0.0291 0.009,0.0291 0.04677,0.0291 0.02817,0 0.04858,-0.02 0.05216,-0.0382 0.0055,-0.0291 -0.0055,-0.0291 -0.04677,-0.0291 z m 73.094887,0.065 h 1.74572 l -0.30512,7.03856 h -3.62948 z m -65.050226,0.68539 c -0.02344,0 -0.05198,0.0182 -0.09696,0.0436 l -0.08035,0.0575 0.07186,0.0466 0.07276,0.0472 0.06536,-0.0345 0.06627,-0.0345 -0.03053,-0.0503 c -0.02617,-0.0436 -0.0444,-0.0686 -0.06807,-0.074 z m -0.933987,0.47687 c -0.02205,0 -0.04495,0 -0.05416,0.02 -0.0072,0.0182 -0.03308,0.0849 -0.05597,0.1715 -0.02908,0.10831 -0.05361,0.16611 -0.08125,0.18925 l -0.03919,0.0345 h 0.06338 c 0.06301,0 0.06337,0 0.06337,0.0686 v 0 c 0,0.0376 0,0.0686 0.0055,0.0686 0.02344,0 0.16358,-0.0722 0.212728,-0.10832 0.07348,-0.0632 0.169898,-0.0686 0.169898,-0.02 0,0.0182 0.01084,0.0345 0.02344,0.0345 0.01266,0 0.0464,0.02 0.07475,0.02 0.04495,0.0182 0.05543,0 0.07836,-0.0382 0.01266,-0.0291 0.0215,-0.0436 0.01623,-0.0614 -0.0055,-0.02 -0.0444,-0.02 -0.08577,-0.02 -0.06662,0 -0.07331,0 -0.06247,-0.0291 0.03162,-0.074 0.02872,-0.0831 -0.04949,-0.11195 -0.04386,-0.0182 -0.09316,-0.0503 -0.11393,-0.0794 -0.02671,-0.0236 -0.0464,-0.0436 -0.07565,-0.0436 -0.03162,0 -0.0401,0 -0.04386,-0.0382 -0.0055,-0.0291 -0.01623,-0.0485 -0.04586,-0.0485 z m -21.770518,0.31725 1.654266,1.60509 -2.071306,4.34287 3.752674,-2.71301 1.601053,1.55257 -7.33176,5.31837 -1.610407,-1.56105 2.278454,-4.5924 -4.004584,2.91849 -1.609467,-1.56159 z m 21.981385,0.28072 c -0.04786,0 -0.09984,0.0236 -0.112845,0.0594 -0.0229,0.0614 -0.0206,0.0704 0.03053,0.0884 0.02581,0 0.05058,0.02 0.05598,0.02 0.0055,0 0.03538,-0.0236 0.06716,-0.0575 0.0527,-0.0539 0.05579,-0.0614 0.03053,-0.0866 -0.01624,-0.0182 -0.0435,-0.0236 -0.07186,-0.0236 z m 0.311652,0.14448 c -0.01266,0.0182 -0.02381,0.0794 -0.0186,0.11189 v 0.0182 c 0.0055,0.0345 0.05397,0.0182 0.07746,-0.0345 0.02344,-0.0466 0.02344,-0.0503 -0.01084,-0.0686 -0.01969,-0.0182 -0.04386,-0.0182 -0.04949,-0.0182 z m -6.740248,0.13358 c -0.01084,0 -0.02205,0 -0.03919,0.0182 -0.03162,0.0182 -0.04113,0.0345 -0.04113,0.0812 0,0.0345 -0.0055,0.13363 -0.01084,0.22171 v 0 c -0.009,0.14806 -0.0072,0.15533 0.01624,0.1174 0.01442,-0.0236 0.02581,-0.083 0.02635,-0.13181 0,-0.0794 0.0072,-0.0993 0.06157,-0.1589 l 0.06066,-0.0686 -0.03719,-0.0382 c -0.01624,-0.02 -0.02726,-0.0291 -0.03829,-0.0327 z m 6.4594,1.75429 c -0.01266,0 -0.0235,0 -0.02908,0.0182 -0.02235,0.0236 0,0.0503 0.07006,0.0866 v 0 c 0.03429,0.0182 0.06355,0.0327 0.06716,0.0327 0,0 0.0055,-0.02 0.0055,-0.0436 0,-0.0291 -0.01266,-0.0485 -0.06157,-0.0668 -0.01969,-0.02 -0.03629,-0.0291 -0.04949,-0.0291 z m 2.512633,0.64813 0.115735,0.0632 c 0.09118,0.0466 0.133969,0.0632 0.204368,0.0632 h 0.08865 c 0,0 -0.04065,-0.0345 -0.09046,-0.0686 -0.0845,-0.0575 -0.0984,-0.0575 -0.204313,-0.0575 z m 1.807286,0.0994 c -0.0055,0 -0.0072,0 -0.01442,0.0182 -0.02435,0.0236 -0.09208,0.24498 -0.09515,0.30223 4.18e-4,0.0491 0.02241,0.0521 0.0504,0.02 0.01084,0 0.02726,-0.0236 0.03629,-0.0236 0.009,0 0.01442,0.0182 0.01442,0.0236 0,0.0236 0.02344,0.0291 0.07095,0 0.03199,-0.0182 0.03483,-0.0291 0.02241,-0.11195 -0.01805,-0.13721 -0.02241,-0.14624 -0.06337,-0.11013 -0.03538,0.0291 -0.03592,0.0291 -0.02344,-0.0473 0.0055,-0.0436 0.0072,-0.0594 0.0055,-0.0614 z m -1.091624,0.47087 c -0.0415,0 -0.05361,0.0182 -0.07656,0.0668 -0.01442,0.0382 -0.02726,0.0938 -0.02726,0.13176 0,0.0632 0.0055,0.065 0.06337,0.0831 v 0.0182 c 0.03538,0 0.06916,0.02 0.07457,0.02 0.0055,0 0.03483,-0.0236 0.06355,-0.0632 0.04495,-0.0557 0.04876,-0.0686 0.02726,-0.0866 -0.01266,-0.02 -0.03574,-0.0382 -0.0504,-0.02 -0.02005,0 -0.02526,-0.0182 -0.02526,-0.0668 0,-0.0759 -0.0055,-0.0759 -0.04949,-0.0759 z m -35.501051,3.0259 29.309408,28.59638 c -1.332158,1.07539 -2.722258,1.98643 -4.107192,2.66479 -4.146604,2.03065 -5.659388,2.12764 -8.925417,0.57125 -8.302616,-3.95644 -13.266169,-10.6669 -15.567697,-21.04763 -0.560727,-2.5294 -0.781669,-6.64346 -0.709102,-10.78479 z m 16.048224,0.3181 c 0.957238,0 1.892412,0.45161 2.803737,1.33521 1.429276,1.38591 1.57713,2.66279 0.444125,3.8308 -0.189744,0.19591 -0.414496,0.38601 -0.674566,0.57144 l -2.036837,1.47751 c -0.941765,0.68641 -1.842349,0.99791 -2.702037,0.9349 -0.85979,-0.0632 -1.719969,-0.51025 -2.57985,-1.34423 -0.859942,-0.83362 -1.265842,-1.61381 -1.218555,-2.33942 0.03338,-0.49693 0.282387,-0.98513 0.748284,-1.46558 0.207057,-0.2136 0.458283,-0.42465 0.752979,-0.63353 l 2.036788,-1.47805 c 0.824673,-0.59761 1.632778,-0.89372 2.425932,-0.88905 z m 16.689169,1.63095 c -0.009,0 -0.01448,0.0291 -0.01448,0.065 0,0.0509 0.009,0.0777 0.0401,0.0993 0.02817,0.0236 0.03719,0.0436 0.03162,0.0777 -0.0072,0.0345 0,0.0521 0.03162,0.0777 l 0.03919,0.0291 0.0055,-0.0503 c 0.0055,-0.0345 -0.0055,-0.0466 -0.01951,-0.065 -0.01442,0 -0.03199,-0.0466 -0.0372,-0.0849 -0.01266,-0.074 -0.05131,-0.14805 -0.07746,-0.14805 z m -16.4466,0.41799 c -0.350598,0 -0.721199,0.1354 -1.111252,0.41909 l -1.958442,1.41444 c -0.167554,0.12455 -0.329002,0.26794 -0.484259,0.42805 -0.402562,0.41514 -0.354463,0.86415 0.143717,1.34751 v 0 c 0.296562,0.28763 0.608414,0.43998 0.935847,0.45821 0.327469,0.02 0.728026,-0.14442 1.201726,-0.49165 l 1.958442,-1.41445 c 0.132885,-0.1011 0.245736,-0.19876 0.337797,-0.29374 0.465813,-0.48063 0.455502,-0.9569 -0.03053,-1.42838 -0.311077,-0.29048 -0.642138,-0.43708 -0.992736,-0.44053 z m 15.558332,0.0345 c -0.135775,0 -0.169899,0 -0.266806,0.0509 -0.111222,0.0503 -0.128735,0.0686 -0.168996,0.19767 -0.009,0.0236 -0.0055,0.0236 0.04949,0.0236 0.03974,0 0.06861,-0.02 0.08667,-0.0466 0.01624,-0.0236 0.04204,-0.0382 0.07186,-0.0382 0.02671,0 0.06229,-0.0182 0.08576,-0.0436 0.03592,-0.0436 0.0527,-0.0436 0.172612,-0.0436 h 0.132528 l -0.02617,0.0503 -0.02635,0.0521 h 0.140833 0.140833 l 0.08955,0.0777 c 0.08576,0.0776 0.09371,0.0776 0.197831,0.0776 0.09985,0 0.108878,0 0.109235,0.0382 0,0.0777 0.07818,0.13001 0.191277,0.14806 0.07349,0 0.08974,0.0182 0.09335,0.0436 0.0055,0.02 -0.0072,0.0594 -0.0215,0.0884 l -0.02726,0.0539 h 0.20527 c 0.18133,0 0.323895,-0.02 0.438546,-0.0614 0.04495,-0.0182 -0.09731,-0.12461 -0.163217,-0.12461 -0.04531,0 -0.06103,-0.0182 -0.08215,-0.0503 -0.01448,-0.0291 -0.03308,-0.0521 -0.03829,-0.0521 -0.0072,0 -0.06464,-0.02 -0.128735,-0.02 -0.0984,-0.0182 -0.126385,-0.0236 -0.178204,-0.0723 -0.09353,-0.0885 -0.220221,-0.16065 -0.320067,-0.18107 -0.05198,-0.0182 -0.115916,-0.0382 -0.152027,-0.0668 -0.05379,-0.0436 -0.08955,-0.0557 -0.256587,-0.0776 -0.106703,-0.0182 -0.26431,-0.0291 -0.349907,-0.0291 z m -0.06338,0.28187 c -0.02908,0 -0.06157,0.0382 -0.06157,0.0722 0,0.02 0.01624,0.02 0.04677,0.02 0.05598,-0.0182 0.07547,-0.0705 0.02726,-0.0885 -0.0055,0 -0.0072,0 -0.01266,0 z m 2.057373,0.39267 c -0.0206,0 -0.03629,0 -0.06338,0.0236 -0.07168,0.0382 -0.07457,0.0575 -0.009,0.0575 0.05616,0 0.102735,0.0376 0.102735,0.0848 0,0.02 0.01951,0.0545 0.04295,0.0831 0.02344,0.0291 0.04204,0.0436 0.04204,0.0594 0,0 -0.0249,0.0182 -0.05507,0.0291 -0.04065,0.0182 -0.0798,0.0182 -0.154009,0 -0.07349,-0.02 -0.112845,-0.02 -0.152028,0 -0.07276,0.0236 -0.07276,0.0236 -0.0186,0.0812 l 0.04858,0.0491 0.03919,-0.0382 c 0.03538,-0.02 0.05688,-0.0345 0.211776,-0.0345 l 0.172607,0.02 0.0504,0.0614 v 0 l 0.0504,0.0632 0.03429,-0.0491 c 0.01914,-0.0291 0.04822,-0.0594 0.06445,-0.0776 0.03253,-0.0382 0.0901,-0.0436 0.106346,-0.02 0.01623,0.0236 0.03483,0.02 0.08866,-0.0236 0.04913,-0.0466 0.05004,-0.0466 0.149314,-0.0182 0.05507,0.0182 0.107794,0.0236 0.12043,0.0436 0.01442,0.0182 0.02871,0 0.04786,-0.0382 0.02635,-0.0503 0.02526,-0.0521 -0.0206,-0.11013 -0.04156,-0.0594 -0.05598,-0.0594 -0.124943,-0.0594 -0.06861,0 -0.08757,0 -0.144626,-0.065 -0.05973,-0.0575 -0.07511,-0.0575 -0.183783,-0.0758 -0.06861,-0.02 -0.146612,-0.02 -0.184782,0 -0.05216,0 -0.08666,0 -0.167009,-0.02 -0.04804,-0.0182 -0.07349,-0.0236 -0.09425,-0.0236 z m -0.556105,0.27624 c -0.02151,0 -0.02387,0 -0.0055,0.0236 0.01084,0 0.02435,0.0236 0.02817,0.0236 0,0 0.0055,0 0.0055,-0.0236 0,0 -0.01266,-0.0236 -0.02817,-0.0236 z m 1.796104,0.0382 c -0.05452,0 -0.05688,0 -0.05688,0.0291 0,0.02 -0.0055,0.0436 -0.01084,0.0614 v 0.0182 c -0.009,0.0291 0.01084,0.0291 0.149314,0.0291 0.146067,0 0.161957,0 0.196856,-0.0382 l 0.03829,-0.0382 -0.05597,-0.0182 c -0.03053,0 -0.115372,0 -0.187557,-0.02 -0.03162,0 -0.05561,0 -0.07366,0 z m -2.12453,0.065 c -0.02617,0 -0.05779,0 -0.106346,0.0182 -0.126027,0.02 -0.150762,0.0291 -0.105443,0.0466 0.01623,0.0182 0.03683,0.0345 0.04586,0.0539 v 0 c 0.01442,0.0466 0.01951,0.0466 0.129638,0.0291 0.101651,-0.0182 0.173509,-0.0436 0.173509,-0.0758 0,0 -0.02817,-0.0236 -0.06337,-0.0382 -0.02672,-0.02 -0.04786,-0.0291 -0.07367,-0.0291 z m -9.90602,2.39146 2.935325,2.84767 -6.175753,6.43907 -1.689722,-1.63962 1.407014,-1.34472 -1.485397,-1.44031 -1.79047,0.9741 -1.699099,-1.64774 z m -0.593408,2.44543 -2.894283,1.57873 1.165378,1.12991 2.288729,-2.16465 z m -17.681003,0.27424 -0.778149,1.1402 h -1.380923 l 0.84441,1.09254 -0.421736,1.31455 1.299712,-0.4647 1.120587,0.80721 -0.04119,-1.38101 1.114032,-0.81556 -1.3249,-0.38783 z m 23.220433,2.07705 1.671997,1.62175 -2.023752,3.99224 5.021582,-1.08478 1.681332,1.62987 -7.341132,5.30988 -1.609474,-1.56122 4.14269,-2.99089 -3.457832,0.82442 -1.165379,-1.13064 1.482574,-2.73827 -4.14263,2.98997 -1.601108,-1.55262 z m 34.511096,0.63141 c -6.121621,0 -9.182004,2.37916 -9.182004,7.13621 0,1.11834 0.322272,2.057 0.966615,2.81466 0.644391,0.73899 1.421008,1.28893 2.330703,1.64912 0.92868,0.34106 1.848383,0.64444 2.758096,0.90947 0.928681,0.26521 1.715274,0.59676 2.359617,0.9947 0.644392,0.39794 0.966645,0.90995 0.966645,1.53578 0,1.17468 -0.947726,1.76235 -2.842954,1.76235 -1.876328,0 -2.814986,-0.65449 -2.814986,-1.96207 0,-0.15163 0.01914,-0.32192 0.05688,-0.51153 l 0.05688,-0.34124 h -5.116792 l -0.08576,0.45537 c -0.113749,0.62523 -0.169899,1.20339 -0.169899,1.73461 0,1.40251 0.407306,2.50116 1.222268,3.29704 1.099227,1.06146 3.145853,1.59176 6.140315,1.59176 2.994437,0 5.212139,-0.57737 6.652539,-1.73345 1.44037,-1.17522 2.15998,-2.96671 2.15998,-5.3735 0,-1.19382 -0.32135,-2.16065 -0.96569,-2.89965 -0.64439,-0.75814 -1.43099,-1.29837 -2.35967,-1.62083 -0.928627,-0.3221 -1.857356,-0.58774 -2.786031,-0.79588 -0.909719,-0.22748 -1.687286,-0.53031 -2.331666,-0.90965 -0.644337,-0.3788 -0.966608,-0.89044 -0.966608,-1.53488 0,-1.28881 1.013805,-1.93336 3.041688,-1.93336 1.610952,0 2.416567,0.61536 2.416567,1.8474 0,0.66358 -0.20818,1.21387 -0.625134,1.64955 h 5.031864 l 0.22768,-0.34105 c 0.15166,-0.2087 0.2937,-0.55902 0.42635,-1.05189 0.15167,-0.5117 0.22672,-1.04292 0.22672,-1.59285 0,-1.49714 -0.57746,-2.6617 -1.73358,-3.49586 -1.13709,-0.85313 -2.82437,-1.28033 -5.060748,-1.28033 z m 18.592583,0 c -5.32562,0 -8.43401,2.54006 -9.32475,7.61956 l -0.99465,5.68578 c -0.15166,0.81502 -0.22762,1.56359 -0.22762,2.24571 0,1.53487 0.36932,2.73917 1.10843,3.61108 1.08031,1.26985 2.99475,1.9041 5.74284,1.9041 2.74809,0 4.8807,-0.63425 6.39688,-1.9041 1.51616,-1.26985 2.50097,-3.22272 2.95585,-5.85679 l 0.99555,-5.68578 c 0.13271,-0.72027 0.19874,-1.393 0.19874,-2.01823 0,-3.73388 -2.28376,-5.60133 -6.85127,-5.60133 z m 18.90513,0 c -5.30669,0 -8.38603,2.39812 -9.23889,7.19309 l -1.16629,6.53836 c -0.1327,0.73954 -0.19873,1.43086 -0.19873,2.0753 0,1.4975 0.36024,2.66315 1.08045,3.49731 1.04223,1.17468 2.91931,1.76217 5.629,1.76217 5.24921,0 8.25317,-2.20796 9.01125,-6.62341 l 0.14282,-0.82496 h -5.11771 c -0.36009,2.02781 -1.43997,3.04159 -3.24042,3.04159 -1.49726,0 -2.24584,-0.62541 -2.24584,-1.87612 0,-0.47378 0.0468,-0.95635 0.14192,-1.44928 l 0.99555,-5.74266 c 0.3601,-2.12297 1.49697,-3.18442 3.41116,-3.18442 0.70123,0 1.2317,0.20923 1.59174,0.62577 0.36011,0.39794 0.54025,0.94793 0.54025,1.64919 0,1.32655 -0.31319,2.34936 -0.93861,3.06921 h 5.03186 l 0.31347,-0.56798 c 0.20847,-0.3602 0.41667,-0.90947 0.62514,-1.64865 0.22744,-0.75796 0.34148,-1.51664 0.34148,-2.27478 0,-1.63005 -0.56936,-2.90874 -1.7065,-3.83753 -1.13715,-0.94769 -2.80447,-1.4222 -5.00295,-1.4222 z m 18.39295,0 c -5.3067,0 -8.38609,2.39812 -9.23895,7.19309 l -1.16533,6.53836 c -0.1327,0.73954 -0.19969,1.43086 -0.19969,2.0753 0,1.4975 0.3603,2.66315 1.08045,3.49731 1.04242,1.17468 2.91882,1.76217 5.629,1.76217 5.24984,0 8.25408,-2.20742 9.01221,-6.62341 l 0.14173,-0.82496 h -5.11675 c -0.36009,2.02781 -1.44087,3.04159 -3.24133,3.04159 -1.49725,0 -2.24583,-0.62541 -2.24583,-1.87612 0,-0.47378 0.0473,-0.95635 0.14192,-1.44928 l 0.99551,-5.74266 c 0.3601,-2.12297 1.49701,-3.18442 3.41122,-3.18442 0.70123,0 1.23164,0.20923 1.59173,0.62577 0.3601,0.39794 0.54025,0.94793 0.54025,1.64919 0,1.32655 -0.31228,2.34936 -0.9377,3.06921 h 5.03186 l 0.31255,-0.56798 c 0.20844,-0.3602 0.41667,-0.90947 0.62515,-1.64865 0.22739,-0.75796 0.34147,-1.51664 0.34147,-2.27478 0,-1.63005 -0.56844,-2.90874 -1.70558,-3.83753 -1.13715,-0.94769 -2.80539,-1.4222 -5.00385,-1.4222 z m 10.91646,0.19973 -3.60989,20.46911 h 14.27075 l 0.79592,-4.43459 h -9.154 l 0.56914,-3.3263 h 7.56132 l 0.79682,-4.43568 h -7.56226 l 0.65404,-3.83783 h 9.15399 l 0.79588,-4.43471 z m 17.54108,0 -3.61085,20.46911 h 5.45827 l 1.16534,-7.64822 h 1.76253 l 2.38856,7.64822 h 5.74283 l -2.58728,-8.30132 c 0.68227,-0.32245 1.29774,-0.86209 1.84736,-1.62077 0.56857,-0.75766 0.96688,-1.75266 1.19429,-2.98477 l 0.39841,-2.21753 c 0.0758,-0.41709 0.11375,-0.81539 0.11375,-1.19437 0,-1.09919 -0.34123,-2.00866 -1.02356,-2.72906 -0.9097,-0.94793 -2.44489,-1.42129 -4.60544,-1.42129 z m -137.609578,1.41463 -0.778149,1.14015 h -1.380869 l 0.844355,1.09253 -0.421735,1.31461 1.300669,-0.46476 1.11963,0.80727 -0.0401,-1.38107 1.113075,-0.81532 -1.324882,-0.38837 z m 71.114968,2.79261 c 1.5541,0 2.33072,0.76771 2.33072,2.30258 0,0.30332 -0.0282,0.64492 -0.0849,1.02372 l -0.96661,5.4583 c -0.22744,1.32673 -0.62571,2.23638 -1.19429,2.72925 -0.56862,0.49256 -1.32622,0.73863 -2.27382,0.73863 -1.59197,0 -2.38857,-0.66261 -2.38857,-1.98928 0,-0.51152 0.0377,-1.00463 0.11375,-1.4786 l 0.9666,-5.4583 c 0.37908,-2.18016 1.54493,-3.28893 3.49702,-3.3263 z m 70.81548,0.22747 h 2.13199 c 1.28879,0 1.93328,0.76753 1.93328,2.30295 0,0.79588 -0.21818,1.44031 -0.65409,1.93336 -0.43587,0.47397 -1.15551,0.71089 -2.15994,0.71089 h -1.99021 z m -137.460289,1.30268 -0.778148,1.14021 h -1.380875 l 0.844416,1.09253 -0.420839,1.3157 1.299736,-0.46585 1.120562,0.80691 -0.04095,-1.3798 1.114015,-0.81629 -1.325839,-0.38746 z m 4.471111,4.32282 -0.778149,1.1413 h -1.380868 l 0.844355,1.09253 -0.421717,1.3157 1.299711,-0.46548 1.120569,0.8069 -0.04119,-1.37961 1.114032,-0.81648 -1.3249,-0.38728 z m 4.470172,4.32282 -0.778149,1.14075 h -1.380887 l 0.84441,1.09254 -0.421772,1.31455 1.300669,-0.46524 1.119666,0.8069 -0.0401,-1.38016 1.11313,-0.81648 -1.324936,-0.38691 z" />
  </g>
</svg>
